<svg version="1" xmlns="http://www.w3.org/2000/svg" width="2133.333" height="2133.333" viewBox="0 0 1600.000000 1600.000000"><path d="M792.5 4.3c-.8.4-2.6 1.9-4 3.3-1.3 1.3-3 2.4-3.7 2.5-.7 0-5.2.2-9.9.3-8.1.3-8.8.5-11.9 3.5-2.9 2.7-4 3.1-9 3.1s-6.1.4-8.8 3c-1.9 1.7-4.3 3-5.7 3-1.6 0-4 1.4-6.2 3.5-2 1.9-4 3.6-4.5 3.6-.4.1-1.2.3-1.8.4-.5.1-1.8.3-2.7.4-1 0-3.4 1.4-5.3 3.1-1.9 1.6-4.8 3.2-6.5 3.6-2.9.6-10.6 7.9-25 24-3.3 3.6-9.1 9.9-13 14-3.8 4-10.8 11.4-15.5 16.4-4.7 5.1-10.5 11.3-13 14-38.4 40.8-42.1 44.4-46.7 45.9-3.2 1.1-6.3 3.6-13 10.9-8 8.7-28 29.7-32.7 34.3-1.1 1-3.2 1.9-4.7 1.9-2.9 0-10.2 6.7-24.9 23.1-3.6 3.9-8.1 8.9-10 10.9-13.3 14.2-28.8 30.7-32.8 34.8-2.6 2.6-7.3 7.7-10.6 11.3-13.6 14.9-24.7 26.8-33.6 36-5.2 5.3-11.4 11.8-13.7 14.3-2.3 2.5-4.7 4.7-5.3 4.7-.5.1-1.4.3-2 .4-.5.1-1.6.3-2.4.4-1.5.1-4.5 2.9-12.8 11.8-4 4.4-6.8 6.5-9.8 7.4-2.8.8-6.1 3.2-10.1 7.2-3.2 3.3-5.9 6.3-5.9 6.7 0 2-4.2 5-8.3 6.1-5 1.2-7.2 3.1-21.7 18.8-4.6 5-8.2 8.1-9.5 8.1-2.7 0-8.2 3.5-11.3 7.2-1.5 1.8-4.7 5.3-7.2 7.8-2.5 2.6-5.6 6-7 7.7-2.8 3.4-6 5.3-8.8 5.3-1 0-3.3 1.3-4.9 2.9-1.7 1.6-4.5 3.2-6.2 3.6-1.7.4-4.4 1.7-5.9 2.9-3.6 3.1-6.7 4.6-9 4.6-2.1 0-5.6 3.3-17.2 16-4.1 4.6-9.1 10-11 12-1.9 2.1-7.8 8.3-13 13.9-18.5 19.9-22.5 23.6-26.9 25-2.8.8-5.9 3-9.1 6.4-2.7 2.9-9.6 10.1-15.2 16.1-21.8 23-23.5 24.6-26.4 24.6-2 0-4.3 1.7-9.3 6.9-12.2 12.6-29.5 30.9-36.1 38.1-20 22.1-25.9 27.9-28.7 28.6-1.6.3-3.6.8-4.6 1.1-1 .2-3.5 2.8-5.7 5.6-5.4 7.2-12.9 13.3-17.8 14.6-3.1.9-4.9 2.3-7.6 6-3.3 4.5-7.4 7.1-11.3 7.1-.7 0-2.7 1.3-4.5 3-1.7 1.6-3.4 3-3.7 3.1-3.5.4-5.9 1.2-7.9 2.7-5.8 4.1-7.8 5.2-9.8 5.2-1.1 0-3 .9-4.2 2-1.2 1.1-2.8 2-3.7 2-1.1 0-1.5 1.1-1.5 4.4 0 2.5.5 4.8 1.2 5.2.7.5.8.2.3-.7-.6-1.1-.5-1.2.6-.1.8.7 1.4 3.6 1.4 7.5.2 10.8 1.3 12 11.2 12.2 4.5 0 5.7.5 8.8 3.5 3.5 3.4 3.6 3.4 11.5 3.2 7-.2 8.5 0 11.3 2 1.8 1.2 3.5 2.6 3.8 3.1.9 1.4 6.9 1.7 34.5 2l24.2.2 4.1 3.3c2.3 1.8 5.6 3.8 7.4 4.4 6.4 2 24.2 10.4 26.3 12.4.7.6 1.5 2.5 1.7 4.3.3 1.8 1.7 5 3.2 7.1 2.5 3.7 3.3 5.6 3.4 9.1.1.9 1.5 3.1 3.1 4.9 3 3.2 3.4 4.5 3 10.7-.1 3.2 2.1 8.5 4.6 11.1.8.7 1.4 1.6 1.5 2 0 .4.2 1.4.4 2.2.2.8.6 2.6.9 3.9.3 1.4 1 2.7 1.4 3 2.2 1.4 4.2 7.4 4.2 12.4 0 5.3.2 5.7 6 11.8 3.4 3.5 6.3 7.3 6.6 8.4.2 1.1.3 6.8.1 12.6-.3 10-.5 10.8-3 13.3-1.5 1.5-2.8 3.6-2.8 4.6-.1 1.1-.3 2.4-.4 3-.1.5-.3 1.4-.4 1.9 0 .5-2.6 3.5-5.6 6.7-3.1 3.1-5.8 6.9-6.1 8.3-1.4 6.5-3.2 9.5-9.4 15.7-2.9 2.8-3.7 4.6-3.9 8.5-.1 1.6-3.6 6.3-8.9 11.6-1.9 1.9-3.6 4.8-3.9 6.6-.6 3.7-3.2 9.7-4.3 9.7-1 0-7 5.8-7.1 7-.5 3.4-2.1 8.5-2.8 9-1 .6-6.3 11-5.7 11 .3 0-.3 1.9-1.4 4.2-1 2.4-2.1 6.5-2.5 9.3-.6 3.8-1.6 64.4-1.6 94.4 0 2.3 1.1 5 3.3 8l3.3 4.6.1 27c0 15-.4 27.9-.9 29-.5 1.1-2 3.1-3.2 4.5-2.1 2.3-2.3 3.3-2.1 11 .3 10.2-.3 11.5-8 19.5-3.3 3.3-4.4 5.7-5.7 12.1-.3 1-8.1 10.7-10.2 12.5-.5.5-2.3 2-3.8 3.3-1.6 1.4-3.1 3.9-3.4 5.8-.6 2.9-.7 328.6-.2 333.1.1 1 2.4 3.6 5.2 5.9 5.7 4.9 6.5 6.4 6.8 14.9.3 6.9-.7 5.3 11.9 18.8 2 2.1 5.1 4.3 7 4.9 1.9.7 5.1 2.5 7 4.2 1.9 1.6 4 3 4.7 3 .6 0 1 .8.8 1.8-.3 1.6 31.5 1.7 659.9 1.7 502 0 660.1-.3 660.1-1.2 0-.6.3-1.5.7-1.9.4-.3.6.2.4 1.3-.4 1.9.1 2 10.5 1.9 8.3-.1 10.9-.4 10.9-1.4 0-.8-.5-1-1.2-.6-.8.4-.9.3-.5-.2.5-.5 3.2-.9 6.1-.9 4.7-.1 5.2.1 4.8 1.8-.4 1.6.1 1.8 3.9 1.5 2.4-.2 4.4-.8 4.4-1.3.1-.6 1.1-2.6 2.3-4.5 1.6-2.5 2.2-5.1 2.2-9.1 0-5.2.3-6 3.9-10l4-4.3-.4-159.5c-.2-87.8-.4-159.9-.4-160.2-.1-.4-1.4-2.1-3-3.8-2.7-2.9-2.9-3.6-2.5-9 .4-5.2.1-6.3-2.6-10.2-1.6-2.4-3.4-6-4-8-1.3-4.8-3.8-7.5-7.8-8.4-1.8-.3-4.5-1.7-6-2.9-3.8-3.2-6.4-4.4-8.7-4-1.1.2-4.7.6-8 .8-5 .4-6.2.1-7.7-1.6-.9-1.1-1.9-2.5-2.1-3.1-.1-.5-3.1-1.4-6.6-1.8-6.7-.8-8.9-2.1-9.6-5.9-.5-2.4-4.5-9-5.6-9-.3 0-.7-2.4-.8-5.3-.3-7.7-1.5-12.7-3-12.7-.8 0-2.4-3.5-5.1-10.8-.7-1.7-1.6-3.2-2-3.2-2.4 0-3.1-6.6-2.8-26.9l.4-21.3-3.3-5.1c-1.8-2.8-3.3-5.8-3.4-6.7-.1-3.3.1-35.6.2-37.5.4-4.6-.3-6.5-3.1-9.5-1.6-1.8-3-3.5-3.1-3.9-.1-.3-.3-4.4-.4-9.1-.5-10.9-.6-11.2-3.9-15.2-2.6-3.2-2.7-3.7-2.3-12.2.3-8.1.2-9.1-2.1-12.5-1.3-2-2.7-3.8-3.1-4.1-.3-.3-.8-1.2-1-2-.3-1.2-.3-26.8 0-39.5.1-4-.7-7.2-2.3-9-2.2-2.5-3.3-4-3.7-5.5-.3-.8-.5-11-.5-22.5-.1-15.4-.5-21.9-1.5-24.3-.7-1.7-1.7-3.2-2.1-3.2-2.3 0-3-6.6-2.7-26.5.3-16.9.1-21.6-1.1-24-.8-1.7-1.8-3.2-2.2-3.5-2.1-1.5-3-5.7-2.8-12.7.1-7.9-1.1-12.2-5-16.6-1.3-1.5-1.6-4.8-1.7-17.5-.2-17.2.3-20.5 3.7-24.2 2.2-2.5 2.5-3.2 3.4-7.4.5-2.7 2.5-5.4 8.5-11.6l5.3-5.5 10.5-.1c10.7-.1 17.1-.9 17.1-2.3 0-.4 1.8-1.7 3.9-2.9 3.9-2.2 3.9-2.2 63.7-2.1 33 .1 60.6.1 61.4 0 .8-.1 2.8-1.2 4.4-2.6 1.6-1.4 4.5-3 6.5-3.5 2-.6 5.2-2.4 7.1-4.1 1.9-1.7 4.6-3.3 6.1-3.6 1.4-.3 4.1-1.8 6-3.4 2.2-1.8 4.5-2.9 6.5-2.9 2.2 0 3.8-.8 5.5-2.9 1.4-1.7 3.7-3.2 5.2-3.5 7.2-1.3 8.1-2.4 10.1-12.3.5-2.7 1.5-2.4 1.1.3-.4 2.4-.3 2.6.6 1.1 1.2-2.1.8-10.2-.6-10.2-.5-.1-5.1-4.2-10.1-9.3-5.1-5.1-9.6-9.2-10-9.3-4.2-.3-6.4-1.5-9.8-5.2-13.6-15-14.1-15.4-18-16.1-4.1-.8-5.6-2.2-24.6-22.7-16-17.4-15.6-17-21.5-16.9-.8 0-7.1-6.5-34.5-35.8-6.3-6.8-14-15-17.2-18.4-4.4-4.7-6.6-6.2-9.9-6.9-2.4-.6-4.6-1.5-5-2.1-4-6.4-49.2-50.8-51.8-50.8-2.7 0-10.4-6.9-22.9-20.4-2.4-2.5-5.9-5.3-7.9-6.1-2-.8-5.6-3.5-8.2-6-2.5-2.5-9.8-9.6-16.1-15.9-6.3-6.2-12.6-11.6-13.8-12-2.1-.7-9.1-7.2-18.3-17.2-2.6-2.8-5.1-4.3-8.6-5.2-2.9-.8-5.5-2.2-6.4-3.4-.8-1.2-3.5-4.5-6-7.3-2.5-2.7-6.6-7.2-9-9.9-9.5-10.4-12.1-12.6-15-12.6-3 0-5.2-1.9-17-14.6-3-3.3-6-5.3-8.8-6.2-4.3-1.3-11.5-7.9-22-20-4.4-5.1-5.6-5.9-10.7-6.8-2.6-.5-7.2-5-25.4-24.4-13.2-14.2-23.5-25.2-30-32-7.1-7.4-25.2-26.9-31-33.3-2.5-2.7-7.4-8-11-11.7-12.9-13.3-21.5-22.7-24-25.9-4-5.2-5-6.1-7.8-6.7-6-1.3-10.6-5.3-29.9-26.2-3.2-3.5-8.3-9-11.3-12.2-3-3.2-9.8-10.4-15-16-5.2-5.6-12-12.8-15-15.9-5.4-5.7-8.8-9.3-28-30.1-5.2-5.6-12.4-13.3-16-17-3.6-3.7-8.5-9.2-11-12.1-2.5-2.9-9.3-10.2-15.2-16.2-6-6-10.8-11.4-10.8-11.8 0-1.5-4.4-4.9-6.3-4.9-2 0-9.7-3.9-9.7-5 0-1.2-7.1-8-8.5-8.1-.8-.1-2.8-.3-4.5-.4-1.6-.1-3.8-.3-4.8-.4-1 0-2.7-.9-3.8-2-4.7-4.4-5.2-4.4-44.6-4.5-20.8-.1-38.5.2-39.3.7zM1021.1 725c1.6.7 2.9 1.6 2.9 2 0 1.9 7.2 4 13.6 3.9 10.5-.1 14.4 2.1 16 9.1.4 1.9.8 85.2.9 185l.1 181.5-3.3 6.5-3.3 6.6.1 20.4c0 11.3 0 21.5-.1 22.7 0 3.5-7.1 10.3-10.7 10.3-2 0-4.1 1.1-6.4 3.2-3.2 3.2-3.8 3.3-12.4 3.6-8.9.4-9 .3-12.3-2.8-1.8-1.7-3.7-4.3-4.3-5.8-.6-1.6-1-11.4-.9-23.4l.1-20.7-3.2-6.3c-2.8-5.5-3.3-7.4-3.4-15-.2-7.8-.4-8.8-2.8-11.2-3.3-3.3-3.9-5.5-3.4-13.6.4-6.5-.5-11.9-2.1-12.9-.5-.3-1.7-2.2-2.7-4.1-1.7-3.1-1.8-5.8-1.6-24.3l.3-20.8-3.5-6.7-3.4-6.7.2-19.7c.2-19.1-.6-26-3.3-27.7-2.1-1.4-3-5.1-2.9-12.2.1-7-1.5-13.9-3.3-13.9-1.8 0-3.2-6.1-3.1-13.2.1-7-.2-8.5-3.2-14.5l-3.4-6.8.2-20.5c.1-16.4-.1-21.1-1.3-23.5-.8-1.7-1.8-3.2-2.2-3.5-1.9-1.3-2.8-5.2-2.9-12.8-.2-7.8-1.5-13.2-3.1-13.2-2.4 0-2.9-7.2-3.1-48-.3-49.8-1.1-46 9.6-45.3 6.9.5 11.4-.7 14.9-3.9 1.1-1 3.7-2.1 5.8-2.5 6.3-1.3 43.5-.7 46.9.7zm266.2.5c6.5 1.3 6.7 2 6.6 30-.1 20.4-.4 25.6-1.6 28-.9 1.6-1.9 3.2-2.3 3.5-2.2 1.6-2.7 6.3-2.5 26.3l.2 21.8-3 4.6c-3.5 5.2-4.5 9.8-3.7 16.3.7 5.3.5 27.3-.3 31.1-.3 1.4-1.7 4.9-3.3 7.8-2.2 4.4-2.7 6.7-2.9 13.4-.1 8.7-1 12.7-2.6 12.7-.6 0-.7.4-.4 1 .3.5.2 1-.4 1-1.6 0-2.4 3.9-2.6 12.9-.2 7.3-.7 9.2-3.7 15-3 5.7-3.4 7.3-3 11.6.7 6.9.7 30.3 0 34.1-.3 1.7-2 5.7-3.7 9-2.3 4.5-2.9 6.9-2.6 9.9.6 6.5.7 33.8.1 36.4-.3 1.4-1 2.7-1.5 3-.4.3-1.7 2.2-2.7 4.1-1.5 2.8-1.9 5.4-1.7 11.4.1 7.3-1 12.6-2.7 12.6-1.7 0-3.3 6.7-3.5 14.6-.2 5.8-.7 9-1.8 10.2-1.5 1.7-4.8 7.7-4.7 8.7v21.5c0 20.4-.1 21-2.2 23-2 1.9-3.3 2.1-10.5 1.8-7.5-.3-8.4-.5-10-2.8-1-1.4-1.8-2.7-1.9-3-1.2-6.7-3.3-10.8-8.5-16.6-3.3-3.5-6-7.2-6-8.2-.1-.9-.2-3.7-.3-6.2-.2-4.5-1.4-7.6-4.6-11.7-1.3-1.7-1.7-3.9-1.5-10 .3-7.8-1.2-12.9-5-17.3-.8-.9-1.3-4.3-1.3-9 .1-10.8 0-11.7-1.6-13.2-3.3-3.4-4.7-8-4.8-16.4-.1-7.6-.4-8.9-3-12.9-1.9-2.9-3-5.9-3.2-9.2-.4-5.5-.8-7.6-1.7-8.3-1-.8-5-9-4.4-9 .8 0-3.6-8.4-4.9-9.2-.6-.4-.7-.8-.3-.8.4 0 .3-.8-.2-1.8s-1.1-5.1-1.2-9.2c-.2-7.3-1.4-12-3-12-.7 0-2-3-2.5-5.9-.2-.8-.4-4.7-.5-8.5-.1-5.8-.8-8.3-3.5-13.8l-3.4-6.7.1-44v-44l3.1-4.5c1.6-2.5 3.2-6 3.5-7.8.2-1.8 3.1-8.6 6.4-15 3.2-6.5 5.9-12.3 5.9-13 0-.7 1.3-3.2 2.8-5.4 2-2.9 2.9-5.6 3.1-9 .1-3.1 1.3-7 3.3-10.8 1.7-3.3 3.2-7.1 3.4-8.5 1.6-12.1 1.3-11.5 15.6-26 5.1-5.1 9.1-8.2 11.7-9.1 2.1-.7 5.1-2.3 6.7-3.7 1.5-1.3 3.9-2.6 5.3-2.9 1.4-.4 4.6-1.8 7-3.1 3.9-2.2 5.5-2.5 14.9-2.5 7.6 0 11.5-.5 13.9-1.6 1.8-.9 3.3-1.9 3.3-2.3 0-2.7 20.8-4.4 30.3-2.4zm-438.5 1.1c.4.6 2.1 2 3.9 3.2 2.6 1.8 4.5 2.2 11.5 2.2h8.4l4.1 4.2c2.2 2.4 4.5 5.2 5 6.3.9 1.9 1.1 23.4.2 26.5-.4 1.5-.9 2.2-3.8 5.8-1.6 1.9-1.9 3.9-1.9 10 0 11.1-.1 11.9-1.6 13.4-4.2 4.3-4.7 7.2-4.8 29.1 0 22-.4 24.1-4.6 29-1.4 1.5-1.7 5.3-1.8 23.5-.2 26.3-.1 24.8-1.8 26.4-4.1 4.2-4.5 6.8-4.2 27.9.2 19.4-.3 25.6-2.2 26.8-2.5 1.6-4.1 7.3-4.3 15.2-.1 7.7-1 11.6-2.9 12.9-2.3 1.6-3.6 7.1-3.4 14 .2 7.1-1.2 12.4-3.8 14.1-2 1.3-2.5 7.5-2.3 26.9.2 19.5-.2 22.4-2.9 25.7-.6.8-1.5 1.9-2.1 2.6-1.1 1.3-1.8 4.9-1.7 8.2 0 1.1.1 9.9.2 19.6l.2 17.6-3.4 6.4c-3.1 5.9-3.4 7.1-3.2 14.4.2 8.4-.4 10.4-4.2 14.2-2.1 2.1-2.4 3.4-2.4 9.3v6.8l-7.7 8.3c-4.3 4.5-10.3 10.8-13.3 13.9-3 3.2-6.9 7.4-8.7 9.4-3.2 3.6-3.3 3.6-11.6 3.6-10.1 0-13-1.7-14.7-8.3-1.5-5.7-3.1-9.7-4-9.7-1.7 0-3.3-6.1-3.7-14-.4-8.3-.3-8.6 3.2-14 3.1-4.7 3.5-6.1 3.3-11-.2-4.8.2-6.2 3.1-10.5 1.8-2.7 3.4-5.6 3.6-6.6.5-2.4 3.6-8.3 4.8-9.1.6-.3 1-5.1 1.1-10.7.1-5.7.6-10.5 1.1-10.9 3.3-2.3 4.9-7 5.1-14.7.3-11.3.3-11.2 1.8-12.7 4.3-4.3 4.9-7.7 4.8-25.5-.1-17.4-.7-20.3-4.5-25.2-1.8-2.1-1.9-3.6-1.8-25.8v-21.1l-2.6-3.9c-2.4-3.5-3.8-6.9-4.8-11.7-.3-1.1-.9-2.2-1.3-2.5-1.8-1.2-3.9-6.7-4.1-11.1-.3-4.5-2.2-9.2-4.7-11.8-.8-.7-1.4-2.1-1.4-3 0-2.7-3.8-9.1-8.3-14-7.7-8.4-14.1-14.2-15.7-14.2-2.5 0-8.3-4-12-8.3-6.2-7.1-11.2-11.7-12.7-11.7-1.8 0-9.3-4.1-9.3-5.1 0-.8-4.6-2.7-7.5-3.1-1.1-.2-2.5-.8-3.1-1.3-3.7-3.2-5.3-4.2-9.1-5.4-2.4-.8-4.3-1.7-4.3-2.1 0-.9-7.5-5-9.3-5-3.6 0-3.9-2.2-3.9-32.3 0-21.5.3-30.1 1.2-31.8.7-1.3 3.2-4.3 5.6-6.6 3.7-3.6 6.4-8.9 6.4-12.9 0-1.9 12.4-15.3 14.3-15.5 6.1-.6 13.6-.4 15.2.4 2.1 1.1 13.5 12.6 13.5 13.7 0 .6 8.3 5.6 8.8 5.2 1.7-1.4 8 3.8 13.5 11.2 1.2 1.5 3.6 4.1 5.2 5.7 1.7 1.6 3.3 3.2 3.7 3.6 5.3 6.3 6.6 7.2 9.8 6.8 1.9-.3 3.6-.9 4-1.4.3-.6.5-4.5.4-8.8-.2-7.3 0-8 2.7-11.1 1.6-1.8 3-4 3-5 .1-.9.3-11.2.5-22.7.2-11.6.4-21.6.5-22.3.5-3 4.4-4.1 15.5-4.3 10.7-.1 11.2-.2 16.4-3.5l5.4-3.4 17.9.3c10.2.2 18.1.7 18.5 1.3zm-560 3c2.9 1.3 5.8 2.4 6.5 2.4.7.1 2.8 1.4 4.7 3 1.9 1.7 4.3 3 5.3 3 2.3 0 5.7 1.8 7.7 4 1.6 1.8 4.1 2.9 8 3.7 3 .5 2.9.4 4.4 4.6.7 2.1 1.1 9.3 1 19.3-.4 45.3-.2 41.1-2.7 43.6-5.3 5.2-8.8 7.8-10.3 7.8-2.5 0-5.7 2-9.5 6.1-2 2.1-7.4 6.2-12 9-7.3 4.6-9.2 5.3-14.6 5.7-10.1.7-9.4 4.5-9.2-57.7.2-56.8.1-56.5 5.2-57.3 4.2-.7 10.2.4 15.5 2.8zm212.6 1.8c1.5.4 3.6 1.5 4.7 2.5s3.8 2.4 6.1 3.2c4.1 1.3 8.9 5.5 19 16.6l4.8 5.2V864l-.1 105-2.1 2c-1.7 1.6-3.5 2-8.7 2-3.6 0-7.1-.4-7.7-.8-1.1-.7-4.6-6.9-4.3-7.4.4-.7-1.3-4.8-2-4.8-1.5 0-3.4-5.6-3.6-11.3-.3-4.4-1-6.8-3.4-10.4-1.7-2.5-3.1-5.4-3.1-6.3 0-.9-1.3-3.7-3-6.1-2.7-4-3-5.2-3-12.7 0-7.3-.4-9-3.1-14.5-2.8-5.4-3.2-7.3-3.4-14.9-.1-8.2-.3-8.8-3.3-12.2-2.8-3.2-3.2-4.4-3.1-8.9.1-4.5-.7-6.9-6-17.5-5-10-6.3-13.4-6.6-18.4-.4-5-1-6.7-3.2-9-2.3-2.4-2.8-3.9-3-8.9-.3-7.7-.5-8.9-1.3-8.9-.9 0-6-10.5-6-12.4 0-.8-.6-2.1-1.3-2.8-2.6-2.6-3.8-5.8-4.4-12.1-.4-4.5-1.3-7.4-3.5-10.7-2.7-4.1-2.9-5.2-2.7-12.5.2-8.8 1.1-12.8 3.1-14.8 1.7-1.7 6.6-3.6 10.3-3.9 5.9-.6 41.1-.1 43.9.6zm118.3 1.7c2.6 1.4 3.2 3.1 3.7 10.6.2 3.8 1.2 6.5 3.5 9.9l3.1 4.7.1 59.1c.1 32.5.2 60.2.2 61.6 0 1.4-.2 5.3-.5 8.7-.5 6.5.8 12 3.6 14.8.9.9 1.9 2.8 2.2 4.3.8 3.3 4.4 10.5 5.6 11.3.5.3 1.1 3 1.4 6 1 10.2 0 8.5 14.4 23.4 6.4 6.6 11 13.7 11 16.9 0 2.3 13.2 15.2 17 16.7 1.9.7 5.3 2.5 7.5 4 2.3 1.5 6 2.9 8.5 3.2 5.3.5 7.8 1.5 10.3 3.7 1 1 3.5 2.3 5.7 3 2.2.7 4.7 2 5.7 2.9 1.9 1.7 4.7 3.1 9.9 5.1 4.2 1.5 5.1 4 4.9 13-.1 6.6.2 8.2 3 13.8l3.2 6.2.1 17.3.1 17.2-2.9 4.4c-1.7 2.4-3.1 5.2-3.1 6.3-.1 1-.3 2.2-.4 2.8-.1.5-.3 1.4-.4 2 0 .5-2.1 2.9-4.5 5.3-5.2 5.3-7.3 8.3-8 11.7-1.3 7-3.7 8.3-14.2 7.9-7.3-.4-8.1-.6-11.4-3.7-3.4-3.3-3.5-3.3-11.1-2.8-7.9.5-10.7-.3-14.8-4.1-1.1-1-4-2.4-6.5-3.2-4.8-1.4-5.6-2.5-6.2-8.6-.2-2.2-.7-5.1-1.1-6.5-.3-1.4-.6-2.8-.5-3.3.1-.4-.2-.7-.6-.7-.8 0-2.5-3.4-5.2-10.7-.7-1.7-2.2-4.5-3.4-6.2-1.3-1.8-2.3-4.7-2.5-7.3-.1-2.4-.4-5.2-.6-6.3-.2-1.1-.4-2.3-.4-2.6-.1-.4-1.4-2.2-3.1-4-1.6-1.9-3-3.7-3-4 0-.3-1-1-2.2-1.6-2.4-1.1-6.1-.2-7.3 1.7-.4.7-.7 22.2-.6 47.8l.1 46.6 3.4 7c9 18.9 10.6 22.5 10.6 23.9 0 .7.9 2.4 2 3.7 1.1 1.3 2.3 3.5 2.7 4.9.7 3.2 3.3 8.4 4.5 9.2 1.7 1.1 2.8 10.6 1.8 15.9-1.8 9-2 9.2-14.3 9.6-8.8.4-10.7.2-13.7-1.5-7.8-4.4-9.7-5-18.8-5.2-14.4-.3-14.1-.2-23.5-10.8-3.2-3.6-5.2-7.1-6.3-10.8-1.2-4.2-2.8-6.7-7.2-11l-5.7-5.6V950.1c0-172.2.2-211.2 1.3-213.7.9-2.1 2.4-3.4 4.5-4.1 4.8-1.4 45.5-.7 48.4.8zm508.1 1.5c4.1 2.7 6.1 3.4 10.1 3.4 4.4 0 5.3.4 6.8 2.7 2.7 4.1 2.5 14.6-.4 20.5-1.3 2.7-2.1 4.8-1.8 4.8.8 0-2.5 6.1-4.1 7.8-.8.7-1.5 1.8-1.5 2.3-.2 1.1-.3 1.4-1.7 6.5-.7 2.3-2.3 5.8-3.7 7.8-4.6 6.8-7.3 13.1-7.6 17.6-.2 4.5-2 9.2-4.4 12-.8.8-1.4 1.9-1.5 2.5-.2 2.9-2.2 8.5-2.9 8.5-1.4 0-4 7.3-4.5 12.9-.7 7.8-1.6 8.4-12.6 8.2-6.2-.1-9.5-2.2-12.5-8.1-1.7-3.2-1.8-6.6-1.8-40.5.1-38.1.1-39.4 2-41.6 3.1-4 4.2-8.1 4.4-16.5.2-8.2.4-9 2.9-11.6 2.7-2.6 2.9-2.7 16.2-2.7h13.5l5.1 3.5zm-765 9c1.7.3 4.8 2.4 7.1 4.5 2.2 2.1 4.7 4 5.6 4 4.3.4 7.4 1.9 8 4 .4 1 1 1.9 1.5 1.9s1.1.8 1.4 1.8c.3 1 2 2.6 3.6 3.5 6.2 3.7 6-.3 6 88.9 0 44.7.1 90.3.1 101.3.4 86.1-.3 193.5-1.1 194-1.2.8-6.3 10.5-5.5 10.5.6 0-2.2 5.8-3.8 7.9-1.4 1.7-2.4 6.1-2.6 12.2-.1 1.4-1.3 4.3-2.7 6.4-1.4 2.1-2.7 4.7-2.9 5.6-.5 2.3-2.4 6-4.1 7.6-.8.8-4.1 1.3-9 1.3-6.8 0-8.3.4-13.3 3.2l-5.6 3.3-16.3.2c-10.7.2-17.1-.1-18.5-.9-1.2-.6-4.5-3.5-7.3-6.4-3.5-3.6-6.3-5.6-9.3-6.4-4.6-1.2-9.4-5.6-12-11-1.5-3.1-1.7-6.7-1.6-28.4.1-21.7-.1-25.1-1.5-27-3.6-4.5-4.4-7.3-4.5-15.7-.1-8-.4-9.1-3.4-13.5l-3.2-4.9.1-17.9.2-17.9 3.3-7.1c1.8-3.9 4-8.7 4.9-10.6.9-1.9 2.3-4.6 3-6 .8-1.4 2.2-4.4 3.2-6.8.9-2.3 2-4.2 2.4-4.2 1 0 1.2-1.7 1.6-14.4.3-11.9-.3-15-3.9-19.5-.6-.7-1.3-2-1.5-3-.4-2.1-.4-49.2.1-51.1.8-3.6 1.9-6 2.6-6 1.8 0 3-5.4 3.2-13.6l.2-8.8 5.1-5.5c2.8-3 7.7-8.1 10.9-11.4 5.1-5.2 10.8-13.7 9.2-13.7-1.1 0 2.8-6.4 5.8-9.5 1.8-1.7 6.6-6.9 10.7-11.4 4.1-4.6 8.5-9.3 9.7-10.6 2.2-2.3 7.7-12.5 6.8-12.5-.6 0-.1-.7 5.1-6.5 3.5-4 7-9.5 5.9-9.5-.3 0 1.2-3.3 3.3-7.4 4.7-8.9 4.7-11 0-20.3-2-3.7-3.8-8-4.2-9.5-.3-1.5-1.2-3.3-1.9-4-3.2-3.1-3.9-6.3-3.8-15.4.1-5.2.4-10 .7-10.8 1.1-2.9 6.3-4.2 12.2-3zm549.8 93.5c2.3 2.4 2.7 3.8 2.8 8.6.2 5.6 2.1 12.3 3.6 12.3 1.4 0 3 5.3 3 10.3 0 4.1.7 6.1 3 9.5l2.9 4.3.1 28.2c.1 15.5.2 29.5.2 31.2.1 6.1-.3 7.4-3.2 10.5-2.6 2.8-3 4-3.1 9.4-.1 3.3-.1 6.4 0 6.8 0 .4-2.1 2.5-4.7 4.8-5.6 4.9-8.3 4.9-13.8-.3-3.3-3.1-4.1-4.8-4.3-8.9-.1-1-2.1-4-4.6-6.8-8.1-9.1-7.6-6.7-7.6-37.7 0-15.3 0-28.7.1-29.8 0-1.1 1.2-3.3 2.6-4.8 3.7-4 4-6.2 3.8-25.7-.2-11 .2-18.2.8-19.4 1.2-2.2 5.3-5.8 7.7-6.7 2.5-.9 7.8 1.2 10.7 4.2zm409.6 10.1c.8.7 3.6 4.5 6.1 8.4 4.1 6.2 4.7 7.9 4.7 12.4 0 5.4 1.1 8.5 4.2 11.1 1.5 1.4 1.9 3.5 2.2 12.8.3 10.7.4 11.1 3.3 13.8l2.9 2.8-.2 19c0 10.4-.2 19.5-.2 20.2-.1.7-1.4 2.3-2.9 3.7-2.4 2.2-2.7 3.4-2.9 8.8-.2 10-.6 10.7-8.4 12.5-.8.2-3.6 0-6.2-.3-4.1-.5-5.5-1.3-9.5-5.6-2.7-2.8-6.1-6.2-7.6-7.7-1.5-1.4-4.4-4.5-6.4-6.9l-3.5-4.3-.1-13.1c0-12 .1-13.2 2-14.7 3.7-3.1 4.6-6.1 4.5-15.4-.2-8.6 0-9.1 2.8-12.4 3.6-4 3.3-2.9 3.5-17.3.4-24.8.3-23.7 3-26.5 2.8-2.7 6.2-3.2 8.7-1.3zm-883.9 49c4.3 4.4 6.7 8.1 7.7 11.9.6 2.1 1.7 4.4 2.4 5.2 1.5 1.4 4.6 7.2 4.6 8.4 0 1.7 1.2 4.3 1.9 4.3 1.3 0 3.3 5.3 3.8 10 .5 5.9 2.1 11.8 3.4 12.5 2.2 1.4 9.5 18.1 9.8 22.4.4 6.7.8 7.9 3.4 10.5 2.3 2.3 2.5 3.2 2.4 11.8 0 9.3 1.2 13.9 4.9 17.6 1.5 1.4 1.6 2.3 1.8 12.2.1 6.3 2 13 3.7 13 1.1 0 2.3 3.8 2.5 8.2.1 2.1.2 4.6.3 5.7 0 1 1.2 3.4 2.4 5.3 2.1 2.9 3.3 6 4.2 10.3.2.6 1.4 2.8 2.9 4.9 1.4 2.1 2.6 4.6 2.7 5.5.1.9.2 3.2.3 5.1.2 3.6 1.9 7.4 4.3 9.8.7.7 1.3 2.1 1.4 3 .1.9.2 3 .4 4.7.2 1.6.4 5.9.6 9.3.1 3.5.8 6.9 1.4 7.6 3.3 3.3 4.8 8.2 4.9 16.6.1 7 .5 9 2.1 11.1 1.9 2.5 2 4 2 30.7-.1 33.7.7 31.7-11.8 31.8-11.7 0-17.5-1.1-19.9-3.8-1.8-2.1-3-2.3-14.2-2.8-10.9-.5-12.5-.8-14.7-2.8-1.3-1.3-4.4-2.9-6.8-3.5-3.1-.8-5.7-2.6-9-6.1-2.5-2.7-5.6-5.9-6.7-7.1-5.3-5.4-5-.4-4.9-109.5l.1-101.5-3.3-6.8-3.4-6.8v-16.7V918c-.1-6.5 1.3-20.4 2.2-22.2 1.4-2.7 7.4-2.4 10.2.4zm675.9 87.7c.4 0 1 1.1 1.4 2.3.8 2.3.9 3.4 1.5 10 .2 2.1.7 3.8 1.2 3.8.4 0 .5.4.2 1-.3.5-.2 1 .3 1 1.5 0 4.1 7.1 4.6 12.1.3 4.6 1.8 8.3 4.3 10.7.8.8 1.3 3.6 1.3 7.1 0 4.7.5 6.6 3 10.4 1.7 2.5 3.3 5.4 3.5 6.5.5 2.6 3.4 8.2 5.1 10 1.4 1.3 1.5 2 1.8 8.9.1 4 2.3 10.3 3.6 10.3 1.7 0 2.7 5.1 2.5 12.9-.3 7.3 0 8.9 1.8 11.5 1.2 1.7 2.4 3.3 2.7 3.6 1 1 1.4 3.6 2 12 .4 6.5 1.2 9.7 3.2 13.6 2.7 5.1 2.7 5.3 2.8 27 .2 28.4.1 29.7-.9 31.2-.5.8-4 1.7-8.5 2.2-4.6.6-8.3 1.5-9.2 2.5-3.8 3.7-6.6 4.3-20.9 4.1-13.9-.1-14.1-.1-16.8-2.8-1.5-1.5-3.4-3.1-4.2-3.6-1.7-.9-4.4-7.3-4.5-10.5 0-.9-.5-1.7-1.1-1.7-.5 0-.7-.5-.4-1 .3-.6.2-1-.3-1-.8 0-3.6-5.4-3.7-7-.1-1.4-2.8-7-3.5-7-2.2 0-2.9-6.4-3-29.1-.1-24-.2-107.4-.1-111.4.1-1.2 1.6-4.4 3.4-7.2 3.2-4.9 3.3-5.5 3.1-14.2-.2-7.8 0-9.3 1.8-11.3 1.1-1.3 2.5-3 3.2-3.9 2-2.8 4.4-3.5 11.3-3.3 3.8.1 7.1.2 7.5.3zm-943 80c1.1.1 2 1.2 2.4 2.8.8 3.4 3.4 8.6 4.6 9.4.5.3 1.5 2.8 2.2 5.6.7 2.7 2.4 6.2 3.7 7.7 2.9 3.3 3.1 4.5 3.2 18.7l.2 11.5-3.5 4.5c-4.2 5.4-19.3 20.3-21 20.7-2.7.6-6.8-1-7.7-3.1-1.2-2.7-1.2-75.2 0-76.3.9-.9 10.1-2.2 12.7-1.8.8.1 2.3.3 3.2.3zm759.9 8.1c1.4 1.4 3.9 3.7 5.5 5.1 4.9 4.4 10.6 11.9 8.9 11.9-1.1 0 3.8 8.4 6.7 11.4 6.6 6.9 6.6 7.3 6.4 37.6-.2 29.6-.1 29.4-5.8 35.4-3.2 3.3-6.7 9.5-7.4 12.9-.5 2.8-5.3 9.6-7.8 11-1.5.9-11 1.2-33.3 1.2h-31.1l-2.1-2.4c-1.2-1.4-2.1-3.9-2.2-6-.2-7.4-.7-9.1-3.5-13.2l-2.9-4.2.1-38.1c0-20.9.3-39.3.7-40.8.4-1.5 1.8-3.8 3.1-5.1 1.4-1.4 2.7-3.9 2.9-5.7.9-5.6 2.8-6.7 11.8-6.9 8.7-.2 10.5-.8 15.9-4.7 3.4-2.5 3.8-2.6 17.5-2.2 13.5.3 14.2.4 16.6 2.8zm405.3-2.4c4 .6 5.5 1.6 11.6 7.5 3.8 3.8 7.3 8.1 7.6 9.7.4 1.5 1.5 4.3 2.5 6.2 1.6 3.3 2.6 4.6 8.8 11.3 2.4 2.6 2.6 3.7 2.7 11.5.2 8.8.5 11.3 1.4 12.2 1.2 1.2 4.4 6.6 4.7 8 .5 2.2.3 27.3-.2 29.8-.2 1.2-.7 2.8-1.2 3.6-1.9 3.4-25.8 27.6-28.2 28.6-1.9.7-12.3 1-32.2.8-35.5-.4-33.3.5-33.6-12.7-.1-4.7-.3-9.3-.5-10.1-.4-1.5-3.8-7.1-4.9-8-1.5-1.2-2-74.3-.6-80.5 1-4.1 3.8-7.9 7.2-9.7 1.1-.6 6.6-1.4 12.3-1.8 5.7-.3 10.7-1.1 11-1.6.4-.5 2.1-2 3.7-3.2 2.6-1.8 4.3-2.1 13.1-2.2 5.6 0 12.2.3 14.8.6z"/><path d="M1473.1 1598.6c0 1.1.3 1.4.6.6.3-.7.2-1.6-.1-1.9-.3-.4-.6.2-.5 1.3zM1475.1 1598.6c0 1.1.3 1.4.6.6.3-.7.2-1.6-.1-1.9-.3-.4-.6.2-.5 1.3zM1477.1 1598.6c0 1.1.3 1.4.6.6.3-.7.2-1.6-.1-1.9-.3-.4-.6.2-.5 1.3zM1479.1 1598.6c0 1.1.3 1.4.6.6.3-.7.2-1.6-.1-1.9-.3-.4-.6.2-.5 1.3z"/></svg>