<svg version="1" xmlns="http://www.w3.org/2000/svg" width="576" height="576" viewBox="0 0 432.000000 432.000000"><path d="M228 1.1c-6.3.4-15.9 1-21.4 1.2l-9.8.5-6.6 5.9c-3.6 3.2-9.6 8.3-13.2 11.3-3.7 3-12.9 10.9-20.5 17.5S139.2 52.4 134.9 56c-4.2 3.6-10.3 8.7-13.5 11.5-3.3 2.7-8.2 7-10.9 9.5-2.8 2.5-10.4 9-16.9 14.5-6.6 5.5-15.6 13.1-20.1 17-4.5 3.8-22.6 19.4-40.3 34.5C15.5 158.1 1 170.8 1 171.3c0 .4.4.5 1 .2.5-.3.7 0 .4.8-.3.8.7 3.3 2.2 5.5 2.3 3.5 3.3 4.2 6 4.2 2.1 0 3.7-.6 4.3-1.8.9-1.6 1.1-1.6 2.4.3 1.3 1.8 2.6 2 14.5 2 12.6 0 12.9.1 12.2 2-2 5.4.4 13.1 8.2 26.6 2.8 4.8 2 7.6-4.2 13.5-2.8 2.7-6.5 7-8.2 9.6-3.8 6-7 16.2-6.4 20.2 1.8 11.1 2.8 25.4 2.2 33.6-.8 11.9-1.4 14-3.6 14-.9 0-2.9.9-4.4 2.1-2 1.6-2.6 2.9-2.7 6.2 0 2.3-.5 6.4-1 9.2-.5 2.7-1.4 15.3-1.9 28-.5 12.6-1.3 28.3-1.6 34.8-.5 9.8-.4 12 .9 13.5.8.9 1.8 2.9 2.2 4.4 1.4 5.5 8.8 10.9 18.5 13.4 5.6 1.4 14.8 1.5 84.6 1.2 43.1-.3 78.6-.2 78.9.1.7.7 178.6.2 179.7-.5.5-.3 3.6-.9 6.9-1.4 3.3-.5 7.2-1.6 8.6-2.5 5.6-3.7 9.8-20.2 7.2-28.8-.6-1.7-1.4-14.2-1.9-27.7-.8-24.2-2.4-42.5-4-46.6-1-2.6-8.5-5.4-14.5-5.4h-4.1l-2.2-7.2c-1.2-4-3.4-14.5-4.7-23.3-2.2-14.2-7.4-47.2-9.1-58-.3-2.2-1.3-8.3-2.2-13.5-1-5.2-1.7-11.2-1.7-13.2v-3.7l21.5-.6c25.1-.7 30.1-1.3 33.5-4.5 1.8-1.7 4-2.5 8-2.8 3.4-.3 5.5-.9 5.5-1.7 0-1-2.9-3.6-9.8-9-1.6-1.2-3.4-2.8-37.2-33.2-14-12.7-32-29-40-36.3-8-7.3-30-27.3-49-44.5s-39.2-35.6-45-40.9c-5.8-5.3-10.7-9.5-11-9.4-.3 0-5.7.4-12 .9zM78.4 179.9c.3.4 1.8 1.1 3.3 1.4 2.3.5 3.4 2 6.6 8.8 2.1 4.5 3.7 8.9 3.5 9.8-.3 1.4-6.2 5.9-13.5 10.3-1.5 1-3.9 2.7-5.4 3.8-2.1 1.7-3 1.9-5.3 1-3.6-1.3-3.1-4.3.8-5 2.4-.4 3.1-1.3 4.1-4.8.7-2.3 1.1-6.1.9-8.5-.6-7.7-.9-16.9-.5-17.3.8-.8 5-.4 5.5.5zm23.9 2.3h3.7v55.9c0 48.5-.2 56.4-1.5 59-.9 1.6-1.3 3.3-1.1 3.8.3.5-1.6 1.2-4.2 1.6-4.7.7-18.3.8-19 0-.6-.6-2.1-7.8-3.3-15.7-.6-4-1.2-8.2-1.3-9.3-.2-1.1-.7-3.7-1.1-5.7-.6-3-.1-5 2.4-10.5l3.2-6.8-2-6.5c-1.2-3.6-2.1-7.3-2.1-8.2 0-5 10-20.9 15.8-25.2 4.7-3.4 9.1-9.6 9.2-12.7 0-1.4-1.8-6.5-4-11.3-2.2-4.7-4-8.9-4-9.2 0-.4 1.2-.3 2.8.1 1.5.4 4.4.7 6.5.7zm41.9 35.7c-.1 19.6-.2 36.5-.3 37.6-.1 2.3 0 2.4-4.3-12-1.5-5-4.9-16-7.6-24.5-2.7-8.5-6.1-19.6-7.6-24.5-1.5-5-3.1-9.5-3.5-10.1-1.6-2 .3-2.4 12-2.2l11.6.2-.3 35.5zm27.6-34.5c.3.3 0 2.3-.6 4.3-3.9 13-3.9 30.5-.1 42.7 2.6 8.3 8.1 14.3 15.6 17.1 2.6 1 6.3 2.6 8.1 3.7 10.5 6.4 6.7 29.8-4.9 29.8-6.1 0-14.9-10.6-14.9-18.1 0-4.2-.8-6.9-2.1-6.9-1.2 0-2.5 5.9-4.4 19.8l-1.6 12.4 6.8 6.4c3.7 3.5 7.1 6.3 7.6 6.4.4 0 .7.4.7.9 0 1-15.6 1.2-22.2.4-3.3-.5-3.8-.9-3.8-3.2 0-1.5-.4-3.1-1-3.7-.7-.7-1.6-101.7-1-112.8 0-.8 16.8-.1 17.8.8zm64.9-.2c.7.9.5 4.8-.7 11.8-1.6 9.5-3.2 20.8-4.5 30-.3 1.9-1.6 10.7-3 19.5s-3.5 22.3-4.6 30c-1.1 7.7-2.8 15.8-3.6 18-.8 2.2-1.7 5.2-2 6.7-.3 1.6-1.2 2.8-1.9 2.8-.8 0-2.3.6-3.4 1.2-1.6 1-2.4 1-4 0-1.1-.6-3.8-1.2-6.1-1.2h-4.2l2.7-2.5c5.8-5.4 9.6-18.3 10.1-35 .4-13.8-.6-21.9-3.9-29.1-3.1-6.8-6.5-9.7-16.4-14.5-10.5-5.1-12.5-7.8-11.9-16.4.3-3.3 1-7.2 1.7-8.7 1.4-2.9 5.4-5 8.5-4.4 1.1.3 2.5.5 3.2.5 1.9.2 7.3 5.1 9 8.5.9 1.7 1.9 4.7 2.2 6.6 1 5.9 3.4 4.4 4.8-3 2.2-12.4 2.7-15.5 2.6-18.8l-.2-3.2h12.3c8.7 0 12.6.4 13.3 1.2zm44.3 54.6c0 34.3-.4 56.1-1 57.2-.6 1-1 3-1 4.4 0 1.9-.5 2.6-1.9 2.6-1.1 0-2.5.2-3.3.5-.9.4-1.3-.4-1.4-2.2-.1-1.6-.9-4.8-1.8-7.3-1.4-4.1-5.5-28.7-13.6-81.5-1.6-10.5-3.2-20.7-3.5-22.8-1.1-6.8-1.1-6.8 14-6.5l13.6.3-.1 55.3zm28.8-55.1c-2 4.2-3.6 7.8-8.6 20.3-3.3 8-6.5 16.2-7.3 18.2-.7 2.1-1.5 3.8-1.9 3.8-.3 0-.4-9.4-.2-20.9l.3-21 2.7-.4c4.9-.7 15.4-.7 15 0zm38.6.1c.3.6.2 1.3-.4 1.7-.5.3-1 1.8-1 3.2 0 1.5-1.1 9.4-2.4 17.7-2 12.2-6.6 41.8-9 58.1-3.3 22.7-5.8 33.5-7.6 33.5-1.3 0-4.8-9.9-8.6-24.5-4.2-16.3-6.2-24-10.2-38.6l-3-10.6 6.4-15.9c8.2-20.4 10.1-24.2 12.2-24.6 4.8-.9 23-.9 23.6 0zm-100.8 35.7c3.5 23 4 26.6 3.5 27.4-.7 1-11.6.9-12.6-.1-.6-.6 1.8-20.2 4.8-38.8l1.2-7.4.7 4.4c.5 2.5 1.5 9 2.4 14.5zm109.3-3.3c1.3 7.9 2.8 17.6 3.6 21.7.7 4.1 1.1 8 .8 8.8-.3.8-2.3 1.3-5.7 1.3-7.7 0-8-.4-6.7-9.1 4.1-28.2 5-35.2 4.5-36-.3-.5-.1-.9.4-.9s1.9 6.4 3.1 14.2zm-237 6.3c3.7 12.7 6.2 20.9 9.6 31.5 9.1 28.7 11.9 38.8 11.9 44l.1 5.5H130c-8.6-.1-11.4-.4-11.2-1.3.1-.7-.5-2.9-1.3-4.8-1.3-3.1-1.5-10.3-1.4-44.8 0-22.6.4-40.2.9-39.1.4 1.1 1.7 5.1 2.9 9zM302.5 256c1.5 5.8 4.3 15.9 6.1 22.6 2.5 9 3.3 13.7 3.1 18.7-.1 4.4-.6 6.7-1.4 6.7-.6 0-1.5-.5-1.8-1-.3-.6-3.5-1-7-1s-6.7.4-7 1c-.3.5-1 1-1.6 1-.5 0-.4-.9.3-2 1-1.5 1-2.6 0-5.3-.8-2.2-1.2-9.7-1.2-21.4 0-18.7.2-19.8 5.3-30.1 1.4-2.9 1.7-2.3 5.2 10.8zM50.7 271.2c1.2 10 .2 14.9-4 20.2l-2.4 3 .3-6.5c.1-3.5.6-10.5 1-15.4.4-5 .7-10.6.7-12.5l-.1-3.5 1.8 4.2c1.1 2.3 2.2 7.1 2.7 10.5zm204.6.2c.3.8 1.1 6 1.8 11.5 1 8 1 10.8.1 13.5-.7 1.8-1 4-.6 4.9.4 1.3 0 1.5-2.3 1.2-1.5-.2-6.7-.4-11.5-.4-8.2-.1-8.8-.2-8.8-2.1 0-1.2-.6-3.3-1.3-4.8-.7-1.5-1.2-3.8-1.1-5.2.2-3.8 2.5-18.4 3.1-19.3.2-.4 4.8-.7 10.3-.7 7.5 0 9.9.3 10.3 1.4zm109.8-1.2c2.4 11.6 3 22.6 1.4 29.3l-.7 3-7.1-.1c-15.2-.3-14.1 0-15.5-4.4-.6-2.2-1.2-5.9-1.2-8.2 0-3.8 1.6-15.6 2.5-18.6.3-.8 3.3-1.2 10.5-1.2 5.5 0 10 .1 10.1.2z"/></svg>