<svg version="1" xmlns="http://www.w3.org/2000/svg" width="1200" height="1200" viewBox="0 0 900.000000 900.000000"><path d="M503.9 5.4c-.2.2-7.4.7-15.9 1-8.5.3-25.8 1.2-38.5 2.1-12.6.8-24.8 1.4-27.1 1.3-4-.3-4.1-.2-55.5 46.2-28.2 25.6-54.3 49.2-57.9 52.5-3.6 3.4-13.5 12.4-22 20s-18.2 16.4-21.5 19.4c-3.3 3.1-10.5 9.6-16 14.6-5.5 4.9-11.6 10.6-13.5 12.5-1.9 1.9-5 4.7-6.9 6.2-1.9 1.6-7.2 6.3-11.9 10.6-4.6 4.2-8.9 8.1-9.6 8.7-11.2 9.9-71.1 63.7-101.1 90.9-12.1 11-37.9 34.3-57.3 51.8C29.9 360.8 14 375.4 14 375.8c0 .4 1.8.6 4 .6 2.2-.1 4 .2 4 .7 0 .5-1.1.7-2.4.5-1.9-.3-2.3-.1-1.9 1.1.5 1.2.3 1.4-.8.8-1.1-.7-1.2-.6-.2.7.7.8 1.4 2.7 1.5 4.1.1 1.4.6 2.3 1.1 2 1-.6 3.2 2 5.7 7.2 2 3.9 5.6 6.5 9.2 6.5 3.2 0 10-3.7 9.8-5.5 0-.3.3-.5.6-.4.4 0 1-.5 1.4-1.1.5-.8 1.4.3 2.6 2.9 2.1 4.5 3.5 5 11.4 3.6.8-.1 2.1.3 2.9.9 1.1.8 1.3.8.8 0-.4-.7.2-1.2 1.8-1.2 1.5 0 2.2.5 1.8 1.2-.3.6 0 .6.8-.1 1.7-1.7 3.2-1.7 2.3-.1-.6 1-.4 1 .7.2 2-1.5 6.1-1.6 5.2-.1-.5.9-.3.9.8.1 1.5-1.2 4.9-1.5 4.9-.5 0 .4 1.9.6 4.2.4 2.3-.1 4.9.3 5.7 1 1.2.9 1.3.9.7 0-.5-1 .1-1.1 2.6-.7 1.8.3 3.9.8 4.6 1 .7.2 1.1 0 .8-.5-.8-1.2 2-3.4 3.3-2.7.9.6.6 5.7-.6 8.6-.7 1.8-1.3 5.3-1.6 10-.2 3.6 2.8 14.2 5.7 19.8.9 1.8 1.3 3.2.9 3.2-.5 0-.2.4.5.9.7.4 1.4 1.4 1.6 2.2.1.8.9 2.5 1.8 3.9s1.8 3.2 2 4c.2.8.5 1.7.8 2 1.1 1 4.4 6.5 4.5 7.3 0 .4.5 1.1 1.1 1.5 1.7 1.2 4.2 8.5 3.9 11.7-.2 3-4.8 10.9-5.8 9.9-.2-.3-.7.7-1.1 2.1-.4 1.4-1 2.5-1.5 2.5-1.2 0-9.2 7.9-13.1 13-1.9 2.5-3.9 4.9-4.3 5.5-.9 1.1-5 8-9.2 15.9-1.5 2.7-2.9 6.1-3.1 7.5-.3 1.4-.9 3.7-1.4 5.1-.5 1.4-1.2 3.6-1.4 5-.3 1.4-.9 3.8-1.4 5.5-.9 3.2-.8 12.3.3 16.5.3 1.4.7 4.4.9 6.6.2 2.3.6 4.6.9 5.1.3.5.6 2.9.6 5.3-.1 2.5.3 7 .6 10 .8 5.9.8 37.7.1 52.8-.4 8.4-2.9 18.4-4.5 18-.3-.1-2.8.1-5.4.6-3.8.6-5 1.2-5.7 3.2-.5 1.3-1.6 2.4-2.4 2.4-1.8 0-2.2 1.3-2.5 7.5-.1 4.3-.7 9.6-2.6 23-.2 1.6-.7 7.3-1 12.5-.4 5.2-.8 10-1 10.7-.2.6-.7 18-1 38.5-.3 20.5-1 40.4-1.5 44.3-.7 5.6-.8 23.2-.1 51.5.1 1.4 1.4 3.9 2.9 5.6 1.6 1.7 3.4 4.5 4 6.3.7 1.7 1.7 4.5 2.4 6.3 1.3 3.4 6.1 8.8 7.8 8.8.6 0 .8.4.5 1-.3.5.1 1 .9 1 .9 0 1.6.4 1.6.9s.8 1.2 1.8 1.5c.9.3 2.9 1.7 4.3 3 1.5 1.3 4.6 3.1 7 3.9 2.4.9 6.4 2.5 8.9 3.6s6.1 2.4 8 2.8c4.1.9 274.4.7 308.3-.2 16-.5 22.7-.3 22.7.4 0 1.5 106.6 1.5 107.5.1.4-.7 1.2-.7 2.5 0 2.9 1.5 247.5 1.4 250.3-.2 1.2-.6 5.4-1.5 9.2-1.8 6.8-.7 14.1-2.2 19.7-4.2 3.7-1.4 9.8-7.8 11.3-11.9 3-8 4.9-12.5 6.1-13.9.6-.8 1.4-3.1 1.8-5 .7-4.3.9-24.6.2-27.7-.2-1.2-.7-5.4-1.1-9.5-.3-4-.8-10-1.1-13.3-.4-3.3-.7-24.2-.9-46.5-.2-35.5-1-59.3-2.1-61.1-.1-.3-.6-4.6-1-9.5s-.8-9.6-1-10.4c-.1-.8-.3-3.8-.3-6.6-.1-3.5-.7-5.6-2-7.1-1.1-1.2-1.8-2.3-1.5-2.6.6-.5-6.6-4-8.3-4-.7 0-1.3-.4-1.3-.9s-.4-.7-.9-.4c-.5.4-1.1.1-1.3-.6-.3-.8-4.4-1.3-13.4-1.6l-12.9-.4-.1-4.7c-.1-5.5-2.2-12.4-3.5-11.6-.5.4-.6-.1-.3-.9.3-.9.1-1.6-.4-1.6-.6 0-.9-.9-.7-2 .2-1.1 0-2-.4-2s-.8-.6-.9-1.3c-.1-.6-.3-2.6-.6-4.2-.3-1.7-.7-4.8-1.1-6.9-.3-2.2-.7-5.1-1-6.5-.2-1.4-.7-5.1-1-8.1-.3-3-1-7.1-1.5-9-.4-1.9-.8-4.2-.8-5 0-2-1.8-15.2-2.7-20-.3-1.4-.7-4.5-1.1-7-.3-2.5-.8-5.4-1.1-6.5-.7-2.2-1-4.5-1.8-11.5-.3-2.5-.7-5.6-1-7-.6-2.9-1.6-9.5-2-13-.2-1.4-.6-4.3-.9-6.5-.3-2.2-.8-5.8-1-8-.3-2.2-.8-5.6-1.2-7.5-1-5.5-1.2-7.2-1.8-12-.3-2.5-.9-5.6-1.2-7-.3-1.4-.7-4.3-.9-6.5-.2-2.2-.6-5.8-1-8s-.8-5.2-1-6.6c-.1-1.5-.6-4.2-1-6-.4-1.9-.9-4.5-1-5.9-.6-5.6-1.7-12.7-2.5-16-.4-1.9-.8-4.2-.8-5 .1-.8-.3-3.3-.7-5.5-.4-2.2-.9-5.1-1.1-6.5-.4-2.3-1.3-11.2-1.7-16.8-.1-1.2-.6-2.2-1.1-2.2-.5 0-.1-1 1-2.2 1.5-1.9 1.6-2 .2-.9-1 .7-1.8.9-1.8.4s1.1-1.5 2.4-2.1c1.9-.8 2.9-.7 4.6.5 1.3.9 2 1.1 1.6.5-.8-1.4 3.4-1.2 5.3.2 1.1.8 1.3.8.8-.1-.9-1.5 3.2-1.4 5.2.1 1.1.8 1.3.8.8-.1-.9-1.5 3.2-1.4 5.2.1 1.1.8 1.3.8.7-.2-.9-1.6.6-1.6 2.3 0 1.1 1 1.3 1 .7 0-.4-.6-.3-1.2.1-1.2.5 0 1.5.6 2.2 1.2 1.1 1 1.3 1 .7 0-.4-.6-.3-1.2.1-1.2.5 0 1.5.6 2.2 1.2 1 .9 1.2.9.7.1-.8-1.5 3.3-1.4 5.3.1 1.1.8 1.3.8.8-.1-.9-1.5 3.2-1.4 5.2.1 1.1.8 1.3.8.8-.1-.9-1.5 3.2-1.4 5.2.1 1.1.8 1.3.8.7-.2-.4-.6-.3-1.2.1-1.2.5 0 1.5.6 2.2 1.2 1.1 1 1.3 1 .7 0-.9-1.6.6-1.6 2.3 0 1 .9 1.2.9.7.1-.4-.7.1-1.2 1.1-1.2 3.4 0 14.8-1.2 15.2-1.7.2-.2 1.1.2 1.9.9 1 .7 1.3.8.9.1-.4-.7.2-1.1 1.7-1.1 1.4 0 7.8-.4 14.3-.9 6.5-.5 12.3-.8 13-.7.6 0 .9-.6.6-1.5-.4-1-.2-1.3.5-.8.6.3 1.3.2 1.7-.4.4-.6 1.2-.7 1.8-.4.7.4.9.3.4-.1-.4-.5.5-1.7 2-2.7 1.6-1 2.4-1.8 1.9-1.8-2.4 0 3.2-2.9 5.7-3 1.6 0 2.6-.4 2.3-.8-.6-1.1 11.6-.9 13.3.2 1 .6 1.2.5.7-.2-1-1.6.7-1.5 2.3 0 1.1 1 1.3 1 .7 0-.4-.6-.2-1.2.3-1.2.6 0 1.1-1.6 1.1-3.5 0-2.4-.5-3.5-1.5-3.5-.8 0-1.5-.7-1.5-1.5s-.8-1.5-1.8-1.5c-1.9 0-2.7-.7-8.2-6.8-1.7-1.7-3.7-3.2-4.4-3.2-.8 0-1.6-1-1.8-2.1-.2-1.4-1.6-2.7-4.3-3.7-2.2-.9-4.1-1.9-4.3-2.3-.2-.4-1.4-2-2.8-3.6-1.3-1.5-2.4-3.1-2.4-3.5 0-.3-.6-.8-1.4-1-.8-.2-11.4-10-23.6-21.8-12.2-11.8-22.8-21.9-23.6-22.3-.8-.4-1.4-1.4-1.4-2.2 0-.7-.6-1.5-1.4-1.7-1.2-.3-86.3-81.3-129.1-122.8-8.2-8-32.3-31.2-53.5-51.5-21.2-20.3-49.3-47.3-62.5-60C513.9 10.9 507.5 5 506 5c-.9 0-1.9.2-2.1.4zm-329.8 389c.1.6.1 1.3.1 1.6 0 .3 1.4.5 3.1.4 5.2-.2 9.7 2.2 11 5.9.6 1.8 1 3.5.9 3.9-.1.5.3.8 1 .8.6 0 .8.3.5.6-.4.4.2 2.4 1.3 4.5 1.1 2.2 2.9 5.7 4.1 7.9 1.1 2.2 2.2 4.8 2.4 5.7.2 1 1.1 3.6 1.9 5.8 2.1 5.6 2 6.6-1.4 10.2-1.7 1.8-3 3.7-3 4.3 0 .6-.4.8-1 .5-.5-.3-1-.1-1 .6s-.3 1-.6.6c-.6-.6-7.2 3.8-8.6 5.8-.5.7-.8.7-.8 0 0-.6-.3-.6-.8.1-.8 1.1-8.3 5.9-9.3 5.9-.4 0-3.7 2.8-7.5 6.3-6.4 5.9-7.1 6.3-11.4 6.1-4.7-.2-8.7-2.9-7.4-5.1.4-.7.3-.8-.4-.4-1.6.9-1.2-4.2.4-5.5.6-.5 2.6-.8 4.5-.6 4.9.5 7.6-1.7 8.4-6.6.4-2.3 1.2-4.8 1.8-5.5.5-.7 1.2-4.1 1.3-7.5.2-3.4.7-6.3 1.2-6.5 1.3-.4.5-5.3-1.6-10.2-1.3-2.8-1.9-5.8-1.6-8 .7-4.8.6-14.7-.1-19.1l-.6-3.7h6.5c4.2 0 6.6.4 6.7 1.2zm33.4 4c-.3.6 0 .4.6-.5 1-1.3 1.8-1.5 4.1-.7 1.5.6 2.8 1.4 2.8 1.9s.7.9 1.6.9c.8 0 1.3.4 1 .8-.2.4 1.1.6 3 .4 1.9-.2 3.7-.8 4-1.3.3-.5 1-.9 1.5-.9.6 0 .7.6.3 1.2-.5.8-.1.7 1-.2 1.6-1.3 2-1.2 3.2.5 1.5 2 1.9 4.9.6 4.1-.5-.3-.9.1-.9.9s.5 1.1 1 .8c.5-.3.7 0 .5.8-.3.8-1.1 1.3-1.7 1.1-.7-.1-1 .2-.6.8.3.6 1.1.8 1.6.5.5-.4.9-.1.9.4 0 .6-.3 1.1-.7 1.1-.5 0-.8 52.3-.7 116.3.1 88.8-.2 116.6-1.1 117.7-2.1 2.6-4.2 9.4-3.8 12.1.3 2.7.3 2.7-8.4 3.5-4.9.4-9.8.7-11 .7-1.7 0-2.3.6-2.3 2 0 2.1 0 2.1-1.6.1-.8-1-1.2-1.2-.8-.4.7 1.3.6 1.3-1 .1-1.3-1.1-4.7-1.5-12.1-1.5-5.7-.1-10.7-.4-11.1-.8-.4-.4-1.5-5.2-2.5-10.5-.9-5.4-2-10.9-2.4-12.3-.4-1.4-.9-4.8-1.2-7.5-1-10.3-1.2-12.1-1.8-14.5-.3-1.4-.8-4.9-1-7.8-.6-6.4-1.1-9.4-2.4-13.5-1.4-4.4-.3-15.2 1.6-16.6.5-.3.8-1.1.8-1.6.1-1.8 3.8-8.5 4.7-8.5.5 0 .7-.4.3-.9-.3-.5.1-1.5.8-2.3.7-.7 1.4-1.8 1.6-2.3.1-.6.4-1.9.7-3 .5-2.2-.4-7.4-3.2-17.8-.3-1.2-.7-3-.7-3.9-.1-.9-.4-1.5-.8-1.2-.4.2-1-1.3-1.4-3.4-1.4-6.9-1.4-12.6 0-15.6.8-1.7 1.9-5.2 2.6-7.8.7-2.8 1.6-4.5 2.2-4.1.6.4.7.1.2-.7-.4-.7-.2-1.6.6-2.1.8-.4 1.4-1.3 1.4-1.8s1-2.1 2.2-3.4c1.2-1.4 1.9-2.8 1.6-3.1-.4-.3-.1-.6.5-.6.7 0 1.2-.7 1.2-1.5 0-.7.6-1.8 1.4-2.2.8-.4 2.8-3.3 4.6-6.3 3.2-5.5 8.7-12 10.2-12 .4 0 2.7-1.8 4.9-4 2.3-2.2 4.5-4 5-4s.8-.3.8-.8c-.5-2.7 4.1-8.9 5.5-7.4.4.4.6.2.5-.3-.2-.6.5-2.6 1.6-4.5 1-1.9 2.1-4.2 2.3-5 .9-3.5.2-10-1.2-12.9-.9-1.7-1.6-3.3-1.6-3.6.1-2.2-.1-2.5-1.2-1.9-.7.5-.9.2-.6-.8.4-.8-.5-3.4-1.8-5.8-1.3-2.3-2.4-5.1-2.4-6.1s-.4-1.9-.9-1.9c-.6 0-.8-.9-.6-2 .2-1.1 0-1.8-.5-1.5-1.1.7-2.3-3.2-1.4-4.6.4-.8.3-.9-.4-.5-1.1.6-1.6-.6-1.3-2.7 0-.4-.3-.7-.9-.7-1.1 0-1.4-3.3-.4-4.3 1-1 3.4.4 2.9 1.7zm68.2.9c4.1 0 6 .4 5.6 1.1-.5.7-.2.7.8 0 .8-.6 2.3-.9 3.4-.7 4.1.9 19 .4 19.3-.7.3-.7.9-.7 2 .2 1.3 1.1 1.4 1.1.8 0-.7-1.1-.4-1.2 1.1-.3 1.1.6 2.3.8 2.6.5.9-.9.2 1.9-.8 3.6-.6.9-1 30.5-1 73.5 0 39.6-.5 72.6-.9 73.4-.6.9-.5 1.2.1.8.6-.4 1 2.1.9 6.8 0 4.9-.4 6.9-.9 5.9-.5-.9-1-2.1-1.1-2.7-.1-.7-.8-2.3-1.5-3.6-.7-1.2-1.1-3.2-.8-4.2.3-1 0-1.9-.6-1.9s-.7-.3-.4-.7c.4-.3.2-1.2-.3-1.9-.6-.6-1-1.6-.9-2 .2-.5-.4-2.9-1.1-5.4-1.7-5.8-1.6-5.3-2.2-7-.4-.8-1.1-3.5-1.8-6-1.2-5.1-1.5-5.9-2.3-8-.5-1.3-1.4-4.7-2.2-8.5-.2-.6-1.1-3.7-2.1-7s-1.9-6.5-2-7.1c-.1-.6-1.4-5.1-3-10-1.5-4.9-2.9-9.1-2.9-9.4-.1-.3-.7-2.3-1.3-4.5-.6-2.2-1.2-4.5-1.3-5 0-.6-.5-1.8-1.1-2.8-.5-1-1.2-3.1-1.4-4.5-.3-1.5-1.2-4.7-2-7.2-2.1-6-2.6-8-2.7-11.2-.1-1.4-.5-2.4-.8-2.2-.4.2-1-1.1-1.4-2.9-.4-1.7-.9-3.7-1.1-4.2-.1-.6-.7-2.4-1.2-4.2-.6-1.7-.8-3.4-.4-3.7.3-.3.1-.6-.5-.6-.5 0-1-.6-1.1-1.3 0-.6-.8-3.7-1.7-6.7-.9-3-1.7-6.1-1.7-6.8-.1-.6-.5-1.2-.9-1.2s-.6-.9-.4-2c.2-1.1 0-1.8-.5-1.5-.5.3-1.2-.4-1.5-1.6-1-2.9 2.8-5.9 6.4-5.2 1.4.3 5.4.5 8.8.6zm183.3.1c0-.7 3.8-.9 11.3-.7 13.2.4 11.6.4 19.6 0 7.6-.4 11.1 1.6 11.1 6.4 0 2.2-.4 2.8-1.2 2.3-.9-.6-.9-.3 0 .9.8.9 1 2.2.6 2.9-.9 1.4-.9 1.2-1.8 8.3-.3 2.7-.8 6.1-1.1 7.5-.3 1.4-.8 4.7-1.1 7.5-.3 2.7-.7 6.1-1 7.5-1.2 8.1-1.6 11.9-1.7 14.7-.1 1.8-.4 3.3-.7 3.3-.3 0-.6 1-.6 2.2-.1 2.7-1.1 9.2-1.8 12.8-.3 1.4-.7 4.7-1 7.5-.3 2.7-.8 7.2-1.2 10-.3 2.7-.7 6-.7 7.2-.1 1.3-.4 2.3-.7 2.3-.3 0-.5 1.2-.4 2.7.1 1.6-.3 3.6-.8 4.5-.8 1.7-1.9 9.9-1.8 14.6 0 1.3-.3 2.1-.8 1.9-.4-.3-.7 1.6-.8 4.1 0 2.6-.4 6.7-.9 9.2-1.2 7.4-1.6 10.4-1.6 12.8.1 1.3-.2 2.1-.7 1.9-.4-.3-.7 1.9-.6 4.9 0 3-.2 5.4-.5 5.4-.4 0-.7 1.5-.8 3.3 0 1.7-.4 5-.8 7.2-.3 2.2-.8 5.6-1.1 7.5-.8 5.7-1.1 8.3-1.9 13-1.1 6.7-1.5 10.1-1.6 13.7-.1 1.8-.4 3.1-.7 2.9-.4-.2-.8 1.7-.8 4.2-.1 2.6-.5 6-.8 7.7-1.5 6.7-1.8 8.1-1.8 9.2-.1.7-.4 1.3-.8 1.3-.3 0-.7 1.1-.8 2.5-.3 4.7-.5 5.5-1.5 5.5-.5 0-.7.7-.3 1.5.3.8 0 1.4-.6 1.2-.6-.1-1.6 2.2-2.3 5.1-1.5 6.5-1.5 6.3-.4 8.4.9 1.6.4 1.8-4 1.8-4.7 0-6.5 1-6.6 3.5 0 1.3-8.4 1.5-9.2.2-.4-.6-.1-.7.8-.3.8.4.3-.1-1.1-1.3-2.2-1.8-3.7-2-12.7-1.8-5.6.1-9.4-.1-8.5-.5 3-1.2 8.8-7.3 11.7-12.4 1.6-2.7 3.4-5.2 4-5.6.5-.4.6-.8.1-.8s-.3-.7.4-1.5.9-1.5.5-1.5-.2-.6.4-1.3c.6-.8.8-1.7.4-2-.3-.4-.2-.7.4-.7.5 0 1-.6 1.1-1.3.1-2 1-5.6 1.7-6.8.4-.5.9-2.5 1.2-4.2.3-1.8.9-3.4 1.4-3.5.5-.2.7-.8.3-1.3-.3-.5-.2-1.4.2-2.1.4-.6.8-2.3 1-3.7.2-1.4.6-4.4.9-6.6.3-2.2.6-5.7.7-7.7 0-2.1.3-3.6.7-3.4.7.5.8-2.5 1.1-21.4.1-7.4-.1-16-.5-19-.3-3-.8-7.3-1-9.5-.3-3.8-.7-6-2.1-12.3-.3-1.5-.7-3.4-.8-4.2 0-.8-.4-1.8-.9-2.1-.4-.3-.9-1.9-1-3.6-.1-1.7-.5-2.9-.9-2.6-.5.2-.8-.3-.8-1.2 0-2.2-6.5-14.6-9.2-17.5-1.3-1.4-2.2-2.8-2.1-3.2.2-.4-.5-.4-1.4-.1-1.1.4-1.4.3-.9-.5.4-.7.3-1.2-.1-1.2-.5 0-2.1-1.1-3.6-2.5s-2.7-2.3-2.7-2c0 .4-.7-.1-1.6-1-.9-.9-2.9-1.9-4.5-2.2-1.6-.3-2.9-1-2.9-1.6 0-.6-.3-.8-.6-.4-.3.3-2.7-.6-5.4-1.9-2.6-1.3-5.2-2.4-5.8-2.4-.5 0-1.5-.7-2.2-1.5-.7-.8-1.6-1.3-2-1-.5.3-1 .1-1.2-.4-.1-.5-1.8-1.7-3.7-2.8-1.8-1-3.3-2.2-3.1-2.7.1-.5-.2-1.2-.7-1.5-1.6-1.1-4.2-5.9-4.9-8.8-1.6-6.9-.3-29.1 1.8-30.5.7-.4.9-.8.5-.8-.5 0-.1-.7.7-1.6.9-.8 1.4-2 1.1-2.5-.4-.5-.1-.9.6-.9s.9-.3.6-.7c-.4-.3.9-1.7 2.8-3 3.8-2.6 13.2-4.2 11.9-2-.6.9-.4.9.8-.1 1.8-1.4 3.2-1.1 10.5 2.6 2.9 1.4 5 2.9 4.7 3.4-.3.4.2.8 1.1.8.8 0 1.9.8 2.2 1.7.4 1 1 2 1.4 2.3.7.5 3.6 5.2 6.9 11.3 1.1 2 2.2 5.7 2.4 8.1.2 2.4.7 4.9 1 5.5.4.6.5 1.5.1 2-.3.5.1 1.6.9 2.4.8.8 1.2 1.8.8 2.3-.4.5.1.2 1.1-.5.9-.7 1.7-1 1.7-.5 0 2.3 2-1.7 2.6-5 .3-2.1.7-4.8 1-5.9.2-1.2.6-3.7.9-5.7.3-2 .8-4.7 1.1-6 .3-1.4.7-4.3.9-6.5.5-4.4 1.1-8 1.4-8 .3 0 1.3-7.7 1.2-9.8 0-.9.3-1.5.7-1.3.4.2.7-1.5.7-3.7 0-4-2-7.1-3.7-6.1-.4.3-.5-.3-.1-1.2.4-1.1.3-1.5-.5-1-.6.3-1.4.1-1.8-.5-.4-.8-.3-.9.4-.5s1.2.1 1.3-.6c0-1 .2-1 .6.1.5 1.1.7 1.1 1.5 0 .7-1 .8-.8.3.8-.6 2.3.9 4 2.1 2.2.4-.8.3-.9-.4-.5-1.4.8-1.5.4-.6-1.8.3-.9 1-1.6 1.6-1.6.5 0 .6.6.2 1.2-.6 1-.5 1 .7.1.8-.6 2.9-1 4.7-.9 1.7.1 3.2-.3 3.2-.8 0-.6.5-.4 1 .4s1 1 1 .4zm80-.3c0-.9.4-1 1.3-.4.6.5 4.7.8 8.9.7 5.6-.1 7.6.1 7.1 1-.5.8-.3.8.8 0 1.9-1.6 17.1-1.6 16.2 0-.5.8-.3.8.8 0 .8-.7 2.6-1.2 4.2-1.3 1.5-.1 3.3-.2 4-.2.6 0 2.8.2 4.7.6 1.9.3 4.8.7 6.3.7 2.9 0 3.1.8.2 1.2-.9.1-2.2 1.5-3 2.9-.8 1.5-1 2.5-.5 2.2.6-.4 1-.1 1 .4 0 .6-.6 1.1-1.2 1.1-.9 0-.8.4.2 1 .8.5 1.1 1 .5 1-.7 0-1 39.2-.9 115.8l.1 115.7-2.3 4.8c-1.4 3.1-2.1 6.5-2.1 9.5l.2 4.7-4.5-.1c-2.5-.1-5.2.4-6 1-1.3 1.1-2.1 1.2-4.7.7-.3 0 .1-.9 1.1-1.9 1.1-1.3 1.5-3.1 1.2-5.9-.4-4.5-2.6-11.3-3.7-11.3-.7 0-2.2-5.6-2.2-8.3 0-.9-.3-1.7-.6-1.7-.4 0-.7-1-.7-2.3-.1-2-.5-4.9-2-13.2-.3-1.7-.7-4.6-1-6.5-.3-1.9-.6-4.6-.8-6-.3-1.4-.7-4.5-1-7-.4-2.5-.9-5.9-1.2-7.5-1.4-8.1-2.6-18.4-2.8-22.7 0-2-.4-3.4-.7-3.2-.4.2-.7-1.6-.7-3.9-.1-2.4-.5-5.4-1-6.8-.5-1.3-1-4.6-1-7.2-.1-2.6-.4-5.3-.8-5.9-.4-.6-.8-2.4-1.1-4.2-.2-1.7-.6-5.1-.9-7.6-.9-7.2-1-7.5-1.6-8.5-.3-.6-.6-2.6-.7-4.5 0-1.9-.3-4.6-.6-6-.7-2.7-1-4.9-1.9-12.5-.3-2.8-.8-6.1-1.1-7.5-.3-1.4-.7-4.3-.9-6.5-.3-2.2-.7-5.6-1.1-7.5-1.3-7.3-1.5-8.6-2-13-.3-2.5-.8-5.6-1.1-7-.3-1.4-.7-4.5-1-7-.5-4.7-1.1-8.5-1.4-8.5-.1 0-.4-1.6-.6-3.5-.8-8.1-1-9.6-1.6-10.5-.3-.6-.5-2.9-.4-5.3.1-2.3-.1-4.2-.5-4.2s-.7-1.9-.8-4.3c-.1-5.2-.5-7.4-1.4-8.3-.7-.8 2.2-5.4 3.5-5.4.5 0 .6.6.3 1.2-.3.7 0 .5.7-.4.9-1.3 1.4-1.4 2-.5.6.9.8.8.8-.2zm104.3-.1c2.6.1 3.5.5 3 1.3-.4.7.1.5 1.2-.3 1.7-1.4 1.7-1.3 1.1 1l-.7 2.5 1.4-2.4c1.3-2.1 1.5-2.2 2.1-.5.4 1 .4 1.5 0 1.2-.8-.8-6.3 6.5-6.9 9-1.1 4.5-3.2 9.1-4 8.5-.4-.5-.5-.3-.2.4.4.6.2 2.4-.4 4-.6 1.5-1 2.9-1 3.1.1.1-.6 1.6-1.5 3.3-.8 1.7-1.7 3.8-1.9 4.7-.9 3.8-3.2 9.2-3.7 8.7-.3-.3-.9 1.4-1.2 3.9-.4 2.5-1.3 5.1-2 5.8-.7.7-1.3 1.7-1.4 2.3-.1.5-.9 2.8-1.9 5-2.4 5.7-6.3 16.6-7 19.2-.3 1.3-1 2.3-1.5 2.3s-.7.4-.4.9c.8 1.3-.4 4.2-1.5 3.6-.4-.3-.6.4-.4 1.6.4 2.1-2 6.8-2.6 5.2-.2-.4-.3-6.9-.3-14.3.5-50.4.4-72.2-.1-73.1-.4-.5 0-2 .8-3.3 1.3-1.9 2.4-2.3 7.6-2.4 3.4 0 6.8-.5 7.7-1 .8-.5 3.9-.7 6.7-.5 2.9.1 6.9.3 9 .3zm71.7.3c8.9-.1 11.8.2 11.3 1-.5.9-.3.9.8.1 2.2-1.6 6.2-1.1 6.5.9.1.9-.2 1.5-.7 1.1-.5-.3-.9.1-.9.8 0 .9-.3.9-1-.2-.8-1.3-1.4-.8-1.2 1.1.1.3-.6.6-1.3.6-1 0-1.2-.4-.5-1.2.7-.8.5-1.2-.3-1.2-.7 0-1.4 1-1.5 2.1-.1 1.9-.4 4.4-1.6 14.6-.2 1.9-.7 5.5-1.1 8-.4 2.5-.6 5.5-.6 6.8 0 1.3-.2 2.1-.7 1.9-.4-.3-.8 1.6-.9 4.1 0 2.6-.4 6.7-.8 9.2-.4 2.5-.8 6-.8 7.7-.1 1.8-.4 3.3-.8 3.3s-.5 1-.1 2.2c.3 1.1.1 1.9-.4 1.6-.8-.5-1.4 3.5-1.4 10 0 1.3-.3 2.1-.8 1.9-.4-.3-.8 1.1-.8 3.1-.1 2.1-.5 6.2-.8 9.2-.4 3-.8 7-.9 8.7-.1 1.8-.4 3.3-.7 3.3-.4 0-.5 1.4-.2 3 .2 1.7 0 3.6-.6 4.3-.6.7-1.3 3.9-1.6 7.2-.2 3.3-.7 7.1-1 8.5-.3 1.4-.8 4.7-1.2 7.5-.6 5.4-1.1 9.3-2 15.2-.3 2.1-.5 5.3-.4 7.1 0 1.9-.3 3.1-.7 2.9-.8-.5-1 1-1.3 9-.1 1.8-.5 3.1-.8 2.9-.4-.2-.8 1.7-.9 4.2-.2 5.3-.9 11.5-1.7 15.2-1.2 5.2-1.9 10.6-1.7 13.8.1 1.9-.2 3.1-.7 2.8-.4-.2-.7 1.5-.7 4 .1 2.4-.1 4.4-.5 4.4-.3 0-.6 1-.6 2.2-.1 1.3-.4 4-.7 6-1.6 8.8-2 11.4-2 12.5 0 .7-.4 1.3-.8 1.3s-.6.9-.4 2c.2 1.1 0 2-.4 2s-.8.6-.8 1.2c0 .7-1.2 3.7-2.5 6.7l-2.5 5.4-2.2-6.1c-1.4-3.7-2.8-5.9-3.4-5.5-.6.4-.8 0-.4-1s.1-1.7-.5-1.7-.8-.3-.5-.6c.3-.4.2-1.5-.4-2.6-.6-1.1-1.3-2.9-1.5-4.1-.9-4.1-1.2-5.2-1.5-5.2-.1 0-.3-.9-.5-2-.6-3.7-.9-5-1.8-6.3-.4-.7-.6-1.6-.3-1.8.3-.3.1-2-.5-3.7-2.5-8.2-4.5-16.6-4-17.1.3-.4.1-.6-.4-.6-.6 0-1.1-1.6-1.2-3.6-.2-2-.7-4.5-1.3-5.5-.5-1.1-.7-1.9-.4-1.9.3 0 .1-.8-.4-1.8s-1.2-3.8-1.6-6.2c-.4-2.4-1.1-5.2-1.6-6.2s-.7-1.8-.4-1.8c.3 0 .1-.8-.4-1.8-.5-.9-1.1-3.1-1.4-4.7-.3-1.7-.9-4.1-1.2-5.5-.3-1.4-.8-3.6-1.1-5-.2-1.4-.9-3.6-1.4-5-1-2.7-3.8-13-4.6-17-.3-1.4-1-4.3-1.6-6.5-.7-2.2-1.2-4.8-1.1-5.8 0-.9-.4-1.7-1-1.7s-.8-.2-.5-.6c.3-.3-.3-3.7-1.3-7.6-1-4-1.5-7.6-1.2-8.1.4-.6.1-.7-.7-.2-1 .6-1.2.3-.8-1.3.4-1.2.2-2-.2-1.7-1.6 1 .1-12.2 1.7-13.4.8-.6 1.5-2.7 1.6-4.9 0-.6.4-1.2.9-1.2s.6-.5.3-1c-.3-.6-.1-1 .4-1 .6 0 1-.3.9-.8-.1-.4.4-2.3 1.1-4.2.8-1.9 1.5-4 1.6-4.5.2-.6.9-2.4 1.6-4 .6-1.7 1.3-3.5 1.5-4 1.8-5.8 3.8-10.5 4.5-10.5.5 0 .6-.6.3-1.4-.3-.8 0-1.7.5-2.1.6-.3.9-1.1.6-1.6-.4-.5-.1-.9.6-.9s1-.3.6-.6c-.3-.4 0-1.9.8-3.4s1.1-3 .8-3.4c-.4-.3 0-.6.8-.6s1.5-1 1.6-2.3c0-1.2.6-3.6 1.3-5.2.6-1.7 1.2-3.2 1.2-3.5.1-1.1 3.8-7.9 4.6-8.4.5-.3.7-1.8.6-3.5-.1-1.8.5-3.6 1.6-4.6 2.3-2.1 8.8-2.9 10.8-1.3 1 .8 1.3.8.9.2-.5-.8.5-1.2 3.1-1.1 2 0 4.8-.3 6.1-.7 1.8-.6 2.2-.5 1.5.5-.7 1.2-.5 1.2.9.1.9-.8 2.1-1.1 2.7-.7.5.3 1 0 1.1-.7 0-.7.2-.9.5-.3.2.6 5.2.9 12.4.8zm-369.7 1.1c-.5.8-.3.8.8 0 .8-.6 2.3-.9 3.4-.7 1.1.2 2.7.5 3.5.5.8 0 2.1.6 2.9 1.2 1.1.8 1.3.8.8 0-.4-.7.3-1.4 1.8-1.7 1.4-.2 2.8-.1 3.1.4.2.4 1.1.6 1.9.3 1.5-.6 3.2 2.1 3 5.1-.1 2.9-1.5 6.5-2.4 6.5-.4 0-.8.6-.8 1.2 0 .7-.4 3.3-.8 5.8s-.9 5.8-1.1 7.5c-.2 1.6-.6 4.6-.9 6.5-.2 1.9-.7 5.5-1.1 8-1.3 8.9-.7 44.3.7 43.4.4-.2.7 1.3.7 3.4.1 4.8.6 8.5 1.6 10 .4.7.5 1.6.1 2.1-.3.5 0 1.3.6 1.6.5.4.8 1.4.5 2.2-.3.8-.1 1.1.4.8.6-.3 1.1-.3 1.1.2 1.2 7.2 1.4 8 2.7 9.5.6.8.9 1.8.5 2.1-.3.4-.1.7.6.7s.9.4.6 1c-.3.5-.2 1 .3 1s1.7 1.7 2.7 3.7c1.9 3.9 13.7 14.3 16.1 14.3.8 0 1.4.3 1.4.7 0 1 4.9 3.3 6.8 3.3.7 0 1 .5.6 1.2s-.3.8.5.4c1.2-.8 12 4 16 7.1 3.9 3 8.1 7.3 8.1 8.3 0 2.1.2 2.6 1.7 4.2.9 1 1.3 1.8.8 1.8-.4 0-.3.6.3 1.2.5.7 1.1 4.3 1.1 8 .1 3.8.2 7.4.3 8 0 1.2-.7 6.7-1.6 11.5-1.3 6.7-9.3 17.6-14.6 19.9-4.2 1.9-12.2 1.1-16.1-1.6-8.1-5.6-17.7-15.9-16.2-17.4.4-.3.2-.6-.4-.6-1 0-3.2-4.3-4.1-8-.2-.8-.6-5.8-.8-11-.6-12-.6-12-1.6-11.4-.4.3-.9 0-.9-.5-.1-.6-.2-1.6-.3-2.3 0-.6-.9-1.2-1.9-1.4-.9-.1-1.5.2-1.1.7.3.5-.1.9-.8.9-1.1 0-1.1.2 0 .9s1.1 1.1 0 2.2c-.7.8-1.4 1.9-1.5 2.4-.9 5.4-1.6 10.8-1.8 14.5-.2 2.5-.6 5.8-1 7.5-.7 3.5-1.5 11-1.5 14.3 0 1.3-.3 2.1-.8 1.9-.4-.3-.8 1.6-.8 4.1-.1 2.6-.4 6.7-.8 9.2-1.3 8.9-1.3 14.2 0 15.5.7.7 1.1 1.4.9 1.7-.2.2.8.5 2.3.6 2.7.2 6.2 3.7 5.9 5.7-.1.5.4.9 1.1.7.6-.1 1.2.2 1.2.7 0 1.2 9.9 11.1 11.2 11.1.5 0 .6.4.3 1-.3.5-.2 1 .3 1s2.5 1.3 4.5 2.9l3.6 2.8-13.7.3c-18.3.4-24.2.3-27.2-.3-1.4-.2-5.2-.5-8.5-.6l-6-.1-.1-5.5c-.1-3-.8-6.5-1.6-7.7-.9-1.3-1.9-3.9-2.4-5.8-.4-1.9-.9-55-1-118-.2-63-.5-115.7-.6-117.2-.2-1.5-.8-3.1-1.2-3.5-.5-.4-.6-.3-.2.4.3.6.2 1.4-.3 1.7-1.3.8-.8-1.9.6-3.6 1.5-1.8 19.6-2.2 18.6-.4zm170.5 40.1c-.3 1.3-.2 2.2.2 2 .4-.2.7 1.2.7 3.3 0 2 .2 5 .6 6.7.3 1.6.9 4.3 1.2 6 .4 1.6.8 4.3 1 6 .7 6.7 1.7 13.1 2.2 14.9.5 1.7 1.2 8.3 1.6 13.8.1 1 .4 1.8.8 1.8.3 0 .5 1.8.5 3.9-.1 2.2.2 3.7.6 3.5.4-.2.6.4.6 1.3-.1 1.7.9 11.5 1.7 17.3.2 1.4.7 4.3 1 6.5.3 2.2.7 5.1 1 6.3.5 3.1-1.5 6.5-3.1 5.1-.7-.5-1.4-.6-1.7-.2-.8 1.3-20.5.7-22.1-.6-.8-.7-1.3-2.2-1-3.4.2-1.2.6-4.5 1-7.2.3-2.8.8-6.8 1.1-9 .3-2.2.6-5 .6-6.3.1-1.2.3-2.2.7-2.2.3 0 .6-1.9.7-4.3.2-7 .8-11.7 1.3-11.7.3 0 .5-1.5.6-3.3 0-1.7.4-5.7.8-8.7 1.6-11.4 1.8-13.6 1.9-16.8.1-1.7.4-3.2.7-3.2.6 0 .8-1 1.1-7.8.2-2.3.5-4.2.9-4.2.3 0 .5-2.3.4-5 0-2.8.4-5 .8-5 .5 0 .6-.5.3-1-.3-.6-.1-1 .6-1s.9 1 .7 2.5zm226.7 6.5c.8 6.2 1.3 9 2 13.7.3 1.8.7 4.5.9 6 .2 1.6.7 4.8 1.1 7.3.4 2.5.9 5.6 1 7 .2 1.4.7 4.7 1 7.5.4 2.7.8 5.8.8 6.7.1.9.4 1.5.7 1.3.3-.2.7 2 .8 4.8.3 5.5.9 10.2 1.2 10.2.2 0 .4.9.5 2 .1 1.1.6 3.6.9 5.5.4 1.9.9 4.8 1.1 6.5.2 1.6.6 4.3.9 6 .6 3.2-1 8.5-2.6 8.5-.5 0-.6-.5-.2-1.2.5-.7.3-.8-.6-.3-1.7 1.1-21 1.3-20.4.3.3-.4-.2-.5-1-.2-.9.3-1.6.1-1.6-.6 0-.6-.5-.8-1-.5-1.1.7-.8-5.6.4-10.5.4-1.4.9-4.3 1.1-6.5.2-2.2.7-6.3 1.1-9 .3-2.8.7-6 .7-7.3.1-1.2.3-2.2.7-2.2.3 0 .6-2.1.7-4.8.5-9.9.7-11.2 1.2-11.2.4 0 .6-1.8.5-4 0-2.2.2-4 .5-4s.7-1.5.8-3.3c.2-4.8 1.2-12.9 1.8-15.7.3-1.4.8-4.7 1.1-7.5.3-2.7.7-5.1.9-5.4.2-.2 0-1.2-.6-2.2-.6-1.3-.6-2.5.3-3.9 1.2-1.8 1.3-1.8 1.9-.2.4.9 1 4.2 1.4 7.2zm-490.8 14.4c-.4 1.1-.1 1.3 1.1.9 1.5-.6 1.5-.5.3 1.1-1.2 1.4-1.2 1.7 0 1.4.9-.2 1.4.7 1.5 2.7.1 3 1.1 7.7 2.1 10.5.6 1.4 1 2.8 1.6 5.5.1.5.6 1.6 1 2.2.5.7.5 1.8.1 2.5-.4.6-.3.8.3.5 1.2-.8 2 1.6 1.9 5.5-.1 1.4.1 2.5.5 2.2.4-.2.9.9 1.2 2.4.9 4.6 1.2 5.6 2.1 7 .4.7.5 1.6.2 1.9-.3.3-.1 1.1.4 1.8.5.6 1.1 2 1.3 3.1.1 1 .6 2.5 1 3.1.5.7.6 1.7.2 2.2-.3.5 0 1.3.6 1.6.5.4.8 1.4.5 2.2-.4.9-.2 1.1.5.7.7-.4 1-.1.7.7-.3.8.1 2.9.8 4.8.8 1.9 1.2 3.6.9 3.9-.3.3 0 1 .5 1.7.5.6 1.1 2 1.3 3.1.1 1 .6 2.5 1 3.1.5.7.6 1.7.2 2.2-.3.5 0 1.3.6 1.6.5.4.8 1.3.5 2-.3.8-.1 1.5.4 1.7.5.2 1 1.4 1.2 2.8.2 1.4.7 3.1 1.2 3.8.4.7.5 1.6.2 1.9-.3.3-.1 1.1.4 1.8.5.6 1.1 2 1.3 3.1.1 1 .6 2.5 1.1 3.2.4.7.6 1.6.3 1.8-.3.3.1 1.7.8 3.1.8 1.5 1.2 3 .9 3.5-.3.4 0 .8.7.8s1 .3.6.6c-.3.3.1 2.6.8 5.2.8 2.5 1.2 4.9.9 5.4-.3.4-.1.8.4.8.6 0 3.3 7.9 3.7 11 0 .3.4 1.1.9 1.8.4.7.5 1.6.2 1.9-.3.3-.2 1.1.3 1.7.5.6 1.1 2.5 1.3 4.1.2 1.7.6 3.3 1.1 3.6.4.3.9 1.4 1.1 2.5.2 1.1 1.1 4.4 2 7.2.8 2.9 1.3 5.2 1 5.2-.2 0 .2 1.3 1.1 3 .9 1.6 1.3 3 .9 3s0 .8.7 1.7c1.2 1.5 1.2 1.6-.1.8s-1.3-.7-.1.8c.8 1 1.1 2 .8 2.4-.4.3-.1 1.3.6 2.1 1 1.3.9 1.4-.3.8-1.2-.7-1.2-.5.1.8 1.3 1.4 1.4 2.6.7 5.9-1.8 8.3-2.5 12.6-1.9 12.3.3-.2 1.4.6 2.3 1.9l1.7 2.2-4.4-.8c-2.5-.5-13.7-.6-25-.4l-20.5.4.2-3.7c.2-4.5-1.9-12.2-3.3-12.2-.6 0-.7-.5-.4-1 .3-.6.2-1-.2-1-.5 0-.9-38.9-.9-86.8.1-47.7-.2-88.4-.7-90.5-.7-3.6-.3-5.7 1-5.7.3 0 .3.7 0 1.4zm374.9 70.5c-.4.5-.2 1.1.3 1.3.6.1 1.2 1.6 1.5 3.3.2 1.6.5 3 .6 3 .2 0 .4.9.6 2 .5 3.8 1.3 6.4 2.4 8.5.6 1.2.9 2.8.6 3.6-.3.8-.1 1.4.4 1.4.6 0 .9.3.8.7-.1.5.2 2.8.7 5.3.5 2.5.8 4.8.7 5.2-.1.5.2.8.6.8.5 0 .9.6.9 1.2.1.7.5 2.6 1.1 4.3.5 1.6.8 3.8.6 4.7-.1 1 .3 1.8.9 1.8.5 0 .8.3.5.6-.4.3-.2 2 .3 3.7.6 1.8 1.2 4.3 1.5 5.7.2 1.4.7 3.2 1 4 .3.8.8 2.6 1 4 .3 1.4.8 3.2 1.1 4 .4.8.8 2.2.9 3 .7 3.7 1.5 7.1 2.4 9.5.5 1.4.7 2.5.4 2.5-.4 0-.2.6.3 1.2.6.7 1.1 2 1.1 2.8.1 2.3.7 4.4 1.6 5.8.4.7.5 1.6.2 1.9-.3.3-.1 1.2.5 2 .6.7.8 1.3.5 1.3-.4 0-.2 1 .5 2.1.9 1.7.8 2-.3 1.3-1-.6-1.1-.5-.2.7 1.5 2 1.7 7.8.3 11.9-2.7 8.7-1.6 16 2.5 15.4 1.9-.3 1.3.8-.7 1.2-.7.2-2.2.5-3.3.8-1.5.3-2.9-.4-4.3-2-2.3-2.7-2.3-2.7-17.1-2.4-10.4.2-14.2 1.1-13.7 3.1.1.6-.7 1.3-1.8 1.5-1.5.2-2.1-.2-2.2-1.6-.1-1.1.4-2 1.2-2 .8 0 1.8-.8 2.4-1.8 1.1-2.1.5-9.6-1.1-12.5-2-3.6-2-3.9-2.3-44.7-.2-37.1-.1-39.7 1.6-43.3 1.1-2 1.7-3.7 1.3-3.7-.4 0 0-.7.7-1.6.7-.9 1.4-2.3 1.5-3.1.1-.8.6-2.2 1-3.1.4-.9.8-1.9.8-2.2.5-2.8 4.2-9.8 4.9-9.3.6.3.7.1.4-.5-.9-1.3.2-4.2 1.5-4.2.5 0 .7.4.4.9zm-516.9 29.8c-.4.3-.2 1.2.5 2 .6.7.8 1.6.5 2-.4.3-.2 1.1.3 1.8.5.6 1.1 2 1.3 3.1.1 1 .6 2.5 1 3.1.5.7.5 1.7.2 2.3-.3.5-.2 1 .3 1 .6 0 1.2 1.7 1.6 3.7.3 2.1.8 5.1 1.1 6.8.4 1.6.7 4.9.8 7.2.1 2.2.4 4 .7 3.8.3-.2.6 3.7.7 8.6 0 4.9-.2 8.7-.6 8.5-.3-.2-.7.8-.8 2.2-.2 4.2-1.1 7.5-2.4 8.2-.6.4-1 1-1 1.4.3 2 0 2.6-.9 2.1-.6-.3-.7.1-.4.9.3.9.1 1.6-.6 1.6-.6 0-.9.4-.6.9.3.5-.1 1.1-.9 1.5-.8.3-1.5 1.2-1.5 2 0 .7-.7 1.6-1.5 2-.8.3-1.5 1.2-1.5 2s-.4 1.7-.9 2c-.4.3-.7-7.9-.5-18.2.4-23 .7-28.2 1.4-28.2.5 0 .7-2.4 1.1-14 .1-3.6.4-7 .8-7.5.3-.6.4-3.4.3-6.3-.2-5.1.2-7.2 1.5-7.2.4 0 .3.3 0 .7zm426.9 29.8c-.3.8-.1 1.5.4 1.5s1 1 1 2.2c0 5.6.8 9.8 2.1 11.4 1.2 1.6 1.2 1.7-.1.9-1.2-.7-1.3-.6-.4.6.6.8 1 3 1 5.1-.1 2 .2 3.4.5 3.2.4-.2.7.9.8 2.4.7 19 .6 23.3-.7 27.8-1.7 6-2.3 12.4-1.1 12.4.5 0 .9.5.9 1.1 0 .7-2.6.8-8.2.3-4.6-.4-15.2-.8-23.7-.8l-15.4-.1-.3-4.1c-.2-3.9-3.6-12.9-4.5-12-.2.2-.5-3.6-.5-8.5-.1-4.8.1-8.7.5-8.5.3.2.7-.8.7-2.2.1-1.5.4-4.7.9-7.2.4-2.5.8-5.4 1-6.5.1-1.1.3-2 .4-2 .2 0 .4-1.6.6-3.5.5-5 1.5-11.2 2.1-13.3.5-1.5 2.4-1.7 21.6-1.7 18.3 0 20.9.2 20.4 1.5zm226-.3c.7 1.2 1.3 5.3 1.7 12.5.1 1.7.5 2.9.9 2.7.4-.3.6.4.6 1.3-.1 1 .3 4.7.7 8.3.5 3.6.9 7.5.9 8.7.1 1.3.4 2.3.7 2.3 1.2 0 .2 17.9-1.1 19.5-.8 1-1.4 4.2-1.4 7.8l-.1 6.2-21.5-.2c-11.8-.2-22.2-.3-23.1-.4-1.3 0-1.8-1.5-2.2-6-.3-3.4-1.2-6.8-2.1-7.8-.9-1-1.3-2.1-.9-2.4.3-.4.2-.7-.3-.7-1 0-1-10 0-18 1.5-12.9 2.3-18.2 3.2-21.1.2-.9.7-3.6.9-5.9.9-8.6-.9-8 22-8 14.9 0 20.6.3 21.1 1.2zM687 657.5c0 .7.8 1.9 1.8 2.4 1.3.8 1.4 1.1.2 1.1-.8.1-2.3.3-3.2.5-2 .4-2.4-1-.7-2 .6-.4.8-1.3.5-2.1-.3-.8-.1-1.4.4-1.4.6 0 1 .7 1 1.5zm-17.5 5.4c.3.5.1 1.2-.5 1.6-.5.3-1-.1-1-.9 0-1.8.6-2.1 1.5-.7z"/><path d="M212.3 399.5c0 .8.4 1.2.9.9.5-.3.6-1 .3-1.5-.9-1.3-1.2-1.1-1.2.6zM309.3 401.5c0 .8.4 1.2.9.9.5-.3.6-1 .3-1.5-.9-1.3-1.2-1.1-1.2.6zM728.6 401.1c.4.8 3 .6 3.8-.2.3-.3-.5-.5-1.9-.5-1.3 0-2.2.3-1.9.7z"/></svg>