<svg version="1" xmlns="http://www.w3.org/2000/svg" width="1200" height="1200" viewBox="0 0 900.000000 900.000000"><path d="M415.6 1.6c-1 2.5-.8 2.7 2.8 2.1 4.5-.7 5.4.5 4.8 6.1-.5 4.6-4.3 11.6-7 12.6-1.8.8-6.4-1.6-5.8-3 .8-2.1-1.9-3.7-3.3-2-.8 1-.9 1.6-.1 2.1 2.2 1.3.9 3.1-2.2 3.1-4.2 0-8.8 4.1-8.8 7.8 0 7.7-6.3 23.1-11.3 27.7-6.9 6.4-8.8 8.5-10.3 11.9-2 4.3-8.2 12-9.6 12-.7 0-.9-1.8-.6-4.8.4-3.8 1.2-5.4 4.1-8.4 2.1-2 3.7-4.3 3.7-5.2 0-1.4-6.4-8.6-7.7-8.6-1.7 0-9.2 7.3-9.7 9.5-.4 1.4-1.1 2.5-1.6 2.5-.6 0-2.7 1.7-4.8 3.7-2.2 2.1-5.8 5.5-8 7.6-2.8 2.5-4.2 4.7-4.2 6.4 0 1.3-.4 3.2-.9 4.2-.6 1-.6 3.3-.1 5.4.6 3 .4 4.2-1.2 6.2-2.3 2.9-4.7 3.1-8.9.9-3.6-1.8-6.3-1.2-5.5 1.3.4 1.3-.7 2.9-3.4 5.2-2.2 1.9-4 4.2-4 5.2s-.4 2.1-1 2.4c-.5.3-1 1.4-1 2.3-.1 3.4-3.7 9.2-7 11.4-1.9 1.3-3.6 3.3-3.8 4.3-.8 5.3-1.4 6.3-4.3 7.5-1.9.8-3.5 2.4-4.1 4.2-.6 1.5-1.4 2.8-1.9 2.8s-.9.6-.9 1.4c0 1.5-4.1 4.6-6.1 4.6-1.6 0-5 4.1-7.9 9.7-1.4 2.6-2.8 4.9-3.2 5.1-.4.2-1.8 2.1-3 4.3-1.2 2.1-2.5 3.9-3 3.9-.4 0-.8.5-.8 1 0 1.5-7 8-9.6 9-1.6.6-2.5 2.1-3 4.4-.7 3.8-1.8 5.2-4.9 5.7-1 .3-2.6 1.8-3.5 3.4-.8 1.7-1.6 3.2-1.7 3.4-.1.2-1.6-.2-3.2-.9-2.6-1-4-.9-9.2.6-6.8 2.1-9.4 4.7-8.4 8.7.7 2.7 2.9 3.7 8.2 3.7 2.3 0 3.3-.5 3.8-2 .3-1.1 1.2-2 1.8-2 1.7 0 3.8 3.6 3.1 5.4-.3.8.3 2.9 1.3 4.6 1.4 2.4 2.3 3 3.8 2.5 1.1-.4 3.2-.9 4.8-1.2 2.3-.4 2.7-.2 2.7 1.7 0 1.5.9 2.5 3 3.3 1.7.6 3 1.6 3 2.2 0 2.6 2.2 3.3 5.6 1.9 1.8-.8 5.4-1.4 7.9-1.4 2.7 0 4.5-.5 4.5-1.2 0-1.7 6.2-11.1 8.7-13.1 1.3-1 2.3-2.5 2.3-3.2 0-.8.7-1.8 1.5-2.2.8-.5 1.6-1.7 1.8-2.8.2-1.1.7-2.8 1.2-3.8.4-.9.4-3 0-4.5-1.3-5.4-1.7-9.2-.9-9.2.5 0 1.8.7 2.8 1.5 2.8 2.1 5.9 1.8 8.3-.8 2.8-3.1 4.6-8.3 4-10.9-.7-2.4 3-10.8 4.6-10.8.6 0 .7 1.7.3 4-.5 3.3-.3 4.2 1.4 5.2 2 1.3 2.9 6.8 1 6.8-1.4 0-3.9 5.3-4.2 9-.3 3.5-1.6 4.9-2.8 2.9-1-1.5-7.5-1.8-9-.3-.6.6-1.3 2.7-1.7 4.8-.7 4.6 1.5 7.5 5.2 6.8 3.4-.6 3.3 2.3 0 7.3-2.7 3.8-2.6 6.3.1 8.5 1.1 1 1.8 1 3.2-.4 1-.9 2.4-1.6 3-1.6.7 0 1.2-.4 1.2-1 0-.5 1.2-2.6 2.6-4.7 1.4-2.1 3.7-6.3 5.2-9.3 2.4-5.1 2.6-5.3 3.3-3 .4 1.4.7 3.6.8 5.1.1 3.7 2.4 8 4 7.7 1.7-.3 7.1-7.6 10.1-13.6 1.4-2.7 2.8-4.2 4.1-4.2 2.4 0 2.5 2.5.1 4.2-2.6 1.9-5.2 8.6-5.5 13.8-.2 4.2 0 4.5 2.6 4.8 1.9.2 2.7-.1 2.7-1.2 0-.9.4-1.6 1-1.6 1.1 0 6-9.2 6-11.2 0-1.2 3.4-5.7 7.5-9.9 1.1-1.1 1.5-3.7 1.5-9.1 0-4.8.6-8.6 1.5-10.4.8-1.6 1.5-3.6 1.5-4.5 0-2.9 2.7-4.4 5.6-3 1.4.6 3.7 1.1 5.2 1.1s2.2.4 1.6.8c-1.5.9-5.4 8.3-5.4 10 0 .8-.8 2.6-1.9 4-1 1.5-2.2 4.2-2.6 6-.8 3.9-5.3 13.6-9.6 20.7-1.6 2.7-3.2 5.7-3.5 6.5-.3.8-1.1 2.6-1.9 4-2.5 4.9-2.7 8.5-.6 10.4 2.5 2.3 5.4.9 7.1-3.6 2.6-6.9 4-9.5 6-11.3 3.3-2.9 4-.9 2.7 7.8-.8 5.9-.8 8.3.1 9.7 1.5 2.4-1.2 10.6-4.8 14.7-1.4 1.5-4.1 4.8-6 7.3-1.9 2.5-4 4.9-4.7 5.3-.7.4-1.3 1.9-1.3 3.2 0 1.3-1 3.6-2.2 5.2-2.2 2.7-3.9 5.4-6.3 10-1.1 2.1-1.2 2.1-2.4-1.2-1.1-3.2-1.3-3.3-4.1-2.3-2 .6-3.2 1.9-3.7 3.6-.3 1.5-1.7 3.8-3 5.2-1.2 1.3-2.3 3-2.3 3.6 0 .6-.6 1.7-1.3 2.3-.8.6-1.9 2.9-2.6 5-1.1 4-8.1 11.1-10.7 11.1-4.2 0-6.1-9.2-2.6-12.3 1-1 2.2-1.7 2.7-1.7 1.2 0 5.3-4.7 7.2-8.3.9-1.8 2.8-4.8 4.3-6.7 1.5-1.9 3.5-5.6 4.4-8.2.9-2.5 2.4-5.2 3.2-5.9 2.1-1.7 4.7-7.6 3.9-8.8-.8-1.4-4.2-1.4-5.8-.1-10.6 8.7-11.7 9.2-15.2 6.6-2.7-2-4.7-11.2-3.3-15.2 1.2-3.5.6-6.4-1.5-6.4-.7 0-2.9 1.3-4.7 3-1.8 1.6-3.7 3-4.2 3-1.2 0-1 4.8.2 5.5 2.3 1.4.7 4.9-4.7 10-3.1 3-5.8 5.5-6 5.5-.3 0-1.6-.9-3-2-3.4-2.6-4.5-2.5-8.3.6-2.3 2-3 3.4-2.8 5.3.2 2.2 1 2.8 4.6 3.5 4.6 1.1 5 2 2.6 5.4-2.8 4 1.9 7.1 5.6 3.7 1.6-1.4 1.8-1.3 3 1.5 1.5 3.7 4.4 3.9 7.5.6 2.7-2.9 5.8-4.6 8.4-4.6 3.2 0 2.5 2.4-1.6 5.8-2.1 1.7-6 5.2-8.7 7.7-2.7 2.5-5.5 4.5-6.3 4.5-.7 0-1.3.4-1.3.8 0 1.1-6.7 4.8-7.4 4.2-.2-.3-.6-1.4-.8-2.5-.1-1.1-1.1-2.9-2-3.9-1.6-1.8-1.9-1.8-4.2-.2-1.4.9-3 2.5-3.6 3.6-.6 1.1-1.5 1.8-2.1 1.5-1.6-1.1-1-4.1 1.6-6.9 1.4-1.5 2.5-3.1 2.5-3.7 0-.5.6-.9 1.3-.9 1.3-.1 4.7-6.1 4.7-8.4 0-1.8-5.1-7.6-6.6-7.6-.7 0-1.4.7-1.8 1.5-.3.8-1.2 1.5-2.1 1.5-.8 0-1.5-.7-1.5-1.5 0-2.2-3.8-1.8-4.5.5-.3 1.1-.4 2.9 0 3.9.5 1.8-3.1 7.1-4.9 7.1-1 0-.7-4.8.4-5.5.5-.3.7-1.1.5-1.8-.3-.7.9-2.8 2.5-4.7 2.6-3.1 3.1-3.4 4.9-2.3 2.2 1.4 5.1 1.7 5.1.7 0-.3-.7-1.8-1.6-3.4-1.6-2.6-1.6-2.9.3-5.6 1.5-2.1 1.8-3.5 1.2-5.2-1.8-4.8-8-1.7-11.7 5.9-2.6 5.5-6.2 8.7-8.3 7.3-1.5-.9-4.8 2.5-6.5 6.6-4.1 9.7-4.8 10.7-6.1 7.4-.5-1.4 1.7-6.7 4.2-10.2 1.5-2.1 13.5-15.1 17.2-18.7 3.3-3.1 4.3-6.8 2.3-8-1.1-.7-8.7 5.3-8.3 6.5.3 1.2-13.2 7.9-18.1 9-5.5 1.2-7.5 3.2-7.4 7.3.1 1.5-.6 3.5-1.5 4.5-1 1-1.7 2.6-1.7 3.5 0 .9-.8 1.7-1.7 1.7-1 0-2.8 1.7-4.1 3.8-2.2 3.5-4.2 5.2-8.4 6.8-1 .3-1.8 1-1.8 1.5s-.6.9-1.2.9c-.7 0-3.3 1.8-5.8 4-5.6 5.1-8.7 5.2-13.6.6l-3.6-3.4.3-7.8.4-7.7-3.1-.9c-1.7-.4-3.7-1.5-4.4-2.3-2-2.4-2.9-1.8-3.2 2.2-.2 3-.7 3.8-2.3 3.8-1.6 0-2-.6-1.7-3.3.1-1.7-.1-3.2-.4-3.2-1.4 0-7.5 7.1-7.1 8.3.2.6 1.7 1.1 3.2 1 6.2-.5 7.6 4.7 2 7.4-3.2 1.5-3.6 1.5-5.3 0-2.2-2-4.8-2.2-5.5-.4-.3.8.3 3.1 1.2 5.3l1.7 3.9-5.5 5.2c-3.1 2.9-6.1 5.3-6.8 5.3-.7 0-2.7-.9-4.4-1.9-2.1-1.3-3.7-1.7-4.8-1.1-.9.5-2.8 1.1-4.3 1.4-3.2.7-13.8 10.5-13.8 12.8 0 2.3-2 2.8-5.1 1.2-2.6-1.3-2.9-1.1-7.5 3.9-7.9 8.6-11.4 12.6-11.4 13.3 0 1.2-3.5 3.3-5.6 3.4-1.1 0-2.9-.7-4-1.5-2.4-1.8-5.4-1.9-7.9-.1-1.1.7-5.1 1.6-9 2-9.3.9-11.6 1.9-20.4 8.5-4 3.1-7.9 6-8.7 6.6-.9.6-2.3.6-4.1-.2-10.7-4.3-9.9-4.4-10.9.5-.5 2.7-.3 3.3 1.9 4.3 1.4.6 3 2.4 3.5 3.8s2.8 4.5 4.9 6.8c5.1 5.5 8.3 5.7 12.9.8s7.8-4.7 10.2.9l1.3 2.9 11.7-.6c6.4-.4 17.1-.2 23.6.3 10.2.9 12.2.8 13.6-.5 3.2-2.9 4.1-1.9 3.4 4.2-.4 3.2-1.1 6.6-1.5 7.5-2.5 4.7.3 16.3 7.3 30.8 2.8 5.8 6.1 11.8 7.2 13.5 1.2 1.6 3.4 5.4 5 8.4 3.4 6.3 3.2 12.7-.3 16.5-1.1 1.2-2.1 2.7-2.1 3.2s-2.7 3.4-6 6.4c-3.4 3-7.7 7.7-9.8 10.5-2 2.7-4.5 5.8-5.4 6.7-1 1-1.8 2.4-1.8 3.1 0 .8-1.4 3.3-3.1 5.7-3.7 5-6.9 12-8 17-.4 1.9-1.5 6.2-2.4 9.5-1.9 6.8-1.8 9.3 1.5 38 1.9 17.3 2.1 23.1 1.6 43.2-.3 13.7-.2 24.3.4 25.7.7 1.8.5 3.3-.5 5.3-.8 1.5-1.5 3.8-1.5 5 0 1.3-.3 2.4-.7 2.4-.5.1-2.1.3-3.8.5-5.8.6-7.6 1.5-8.5 3.9-.5 1.4-1.6 2.5-2.4 2.5-1.3 0-1.5 3.5-1.6 24.2-.2 27.1-.1 33 .6 33.7.2.2 1.5-.1 2.9-.7 4-1.9 8.1-1.4 11.1 1.2 2.7 2.2 2.7 2.5 1.6 6.4-1.9 6.4-7.3 9-12.2 6-1.3-.9-2.3-.9-3-.2-.5.5-1.3 11.3-1.6 25.5l-.7 24.5 8.9 1.8c9.9 2.1 11.2 2.7 9.1 4.7-4.9 4.6-5.6 4.9-11.3 4.3-6.8-.8-7.5-.1-7.2 7.8.1 3.4-.4 6.3-1.1 7.2-.8 1-1 2.3-.5 3.3.4 1 .8 8.4.9 16.6.1 9.3.6 15.2 1.3 15.9.6.6 5.5 1.5 10.9 2 5.4.6 9.9 1.1 10.1 1.3.1.1.5 2.4.7 5.1l.5 4.9h-5c-2.7 0-5-.3-5-.8 0-.4-.7-.7-1.5-.7-3.6 0 .8 6.6 7.2 10.7 3.2 2 5.5 3.8 9.1 7.1 1.4 1.2 3.6 2.2 4.9 2.2 2.7 0 5.8 1.4 8.8 4 4.9 4.1 12.7 5.2 41.1 5.7l27 .5 3-3c3-3 7.3-4.4 13.4-4.3 3.8 0 8.2 1.9 7.4 3.2-1.9 3.2 19 5.4 23.1 2.5 2.5-1.7 17.5-3.3 17.5-1.8 0 .5 1 1 2.3 1.1 1.2 0 3.8.3 5.8.7 4.1.7 7.9-.8 7.9-3.1 0-.8.5-1.5 1.1-1.5.6 0 .8.7.5 1.6-1.6 4.2 6.8 5.9 14.1 2.9 1.9-.8 4.6-1.5 5.9-1.5 1.5 0 2.4-.6 2.4-1.5 0-1.6 1.7-1.9 4.6-.8 1.6.6 1.6.7-.2 1.3-3.6 1.4 13.3 2.2 36.2 1.9 17-.3 22.8-.7 23.2-1.7.5-1.6 3.2-1.5 6.8.2 4.3 2.1 30.7 3.3 33.9 1.6 1.4-.7 2.5-1.8 2.5-2.4 0-.8 6.3-1.1 19.9-1.1 14 0 20.2-.4 21.3-1.2 1.9-1.6 14.6-1.1 17.5.7 1.2.8 2.8 2.5 3.5 3.8l1.3 2.4 17.5-.5c9.6-.3 24.7-.7 33.5-.9l16-.3-.3-2.7c-.4-4.3 1.6-4.3 6.3.1 3.7 3.4 5.2 4.1 8.5 4.1 2.4 0 4-.5 4-1.2s1.1-2.4 2.5-3.8c2.4-2.5 2.8-2.6 7.5-1.6 4.1.8 5.6.7 8.5-.7 2-.9 4.2-1.7 5-1.7 1.8 0 2 1.7.4 2.2-.8.3-.9 1.5-.4 3.6.9 4.1 3.7 4.2 6.7.2 2.6-3.6 3.4-3.7 6.5-.8 2.5 2.3 3.8 2.8 9 3.3 3 .3 5-1.4 4.5-3.8-.1-.4.3-.7.9-.7.5 0 .7-.5.3-1.1-.3-.6-1.5-.9-2.5-.6-1.1.3-1.9 0-1.9-.8 0-1.4 7.1-.5 9.2 1.2.7.6 2.7 1.4 4.4 1.7 3.5.8 6.4-1.2 6.4-4.4 0-2.7 1.9-3.5 3.8-1.7 1.4 1.4 1.4 1.8-.2 4.1-.9 1.4-2.4 2.6-3.3 2.6-1.4 0-1.4.2.2 2 1.2 1.3 3 2 5.4 2 3.8-.1 8.6-2.8 6.4-3.7-1.5-.6-1.7-3.3-.3-3.3.6 0 1 .4 1 1 0 .5 1.4 1 3.1 1 1.7 0 2.8.4 2.4 1-.3.5.1 1 .9 1 .9 0 1.6.7 1.6 1.6 0 .9.6 1.4 1.3 1.1.6-.2 1.1-1 .9-1.6-.1-.6.6-1.2 1.5-1.2 1-.1.5-.5-1.2-.9-2.9-.7-2.3-.8 15.5-1.4 1.1-.1 1.9.2 1.8.7-.2.4 1.2 1.6 3 2.7 2.9 1.8 5 2 22.2 2 12 0 19-.4 19-1 0-1.3 3.7-1.3 4.5 0 .8 1.3 17.6 1.3 20.9 0 1.6-.6 2.6-1.7 2.6-3 0-2.8 3.3-2.6 4.5.2.8 1.9 1.8 2.3 6 2.4 2.8.1 5.8.4 6.8.9.9.4 3.1.2 4.7-.5 1.6-.6 3.4-.9 4-.5.7.4 2.9-.1 5.1-1 3.9-1.8 3.9-1.8 6.5.6l2.5 2.4 3.8-2.1c3.5-1.9 4.1-2 6.7-.6 1.9 1 5.6 1.4 12.3 1.3 8.3-.1 10-.4 12.6-2.4 2.5-1.8 4.1-2.2 9.7-1.9 3.7.1 10.3-.5 14.5-1.3 7.1-1.4 8.2-2 11.6-5.8 2.1-2.3 4.3-5.2 5-6.4.7-1.2 2.9-5.2 5-8.9l3.8-6.7-.4-10.6c-.4-9.5-1.5-21.2-3.5-37-.5-4.2-1.3-5.8-3.4-7.4-3.3-2.4-6.5-1.8-11.2 2.3-4.5 4-7.5 4-8.3-.1-.4-2.2-1.2-3.1-3.3-3.5-2-.4-3-1.6-4.2-4.7-1.9-5.3-1.5-6.2 3.4-9.3 3.4-2.2 4.5-2.4 6.5-1.5 1.3.6 2.8 2.2 3.5 3.5 1.4 3.3 3.7 4 5.9 2 1.9-1.7 4.9-1.3 4.9.6 0 .5.8 1 1.9 1 2.5 0 2.9-5.6 3-38.4.1-24.1 0-26.1-1.8-28-1-1.2-2.1-3.7-2.4-5.6-.3-1.9-.7-4.4-.9-5.4-.2-1 .3-2.1 1-2.3.7-.3 1 .1.6 1.1-.4 1.2 0 1.6 1.5 1.6 1.8 0 2.1-.6 2.1-4.3 0-2.4-.5-4.8-1-5.3-1.4-1.4-1.5-11.1-.2-12.6.5-.7 1.3-5.8 1.6-11.3.8-11.7.5-12.2-8.9-17.1-6.8-3.6-14.8-4.9-23-3.9-5.2.7-5.4.9-4.9 3.1.7 2.8.8 2.8-4.7.9-2.9-1.1-4.6-1.2-5.3-.5-1.5 1.5-5.3 1.2-6-.5-.3-.8-2.4-1.8-4.6-2.1-9.3-1.5-4.2-3.9 6-2.9 6.6.7 7 .6 9.6-2 2.3-2.3 2.5-3.2 2-6.6-.4-2.2-1.5-5.9-2.6-8.2-1-2.3-2.4-7.6-3-11.7-.6-4.1-2.4-17.2-4.1-29-1.7-11.8-3.7-25.6-4.5-30.5-3-20.2-5.5-36.7-7.4-49.5-2.1-14.2-6.8-45.7-10.1-67.5-7.1-46.7-7.8-52.3-6.5-54.3.5-.9 8.4-1.1 30.4-1 18.5.1 33.9-.3 40.7-1 6.1-.7 15.1-1.5 20-1.8 14.3-.8 14.9-1 20.4-6.4 2.8-2.8 5.2-5.1 5.4-5.1.1-.1 5.6-.4 12.1-.8 8.2-.4 12.1-1 12.4-1.9.2-.8-.7-1.2-2.6-1.2-2 0-5.1-1.6-9.3-4.7-3.5-2.5-6.6-5-6.9-5.4-.3-.4-2.7-1.7-5.3-2.8l-4.7-2-1.6 3c-1.1 2.3-2 2.9-3.2 2.3-.9-.3-3.5-1.3-5.6-2.1-2.2-.8-5.2-2.3-6.7-3.4-2.8-2-7.8-2.5-9.4-1-1.9 1.6-11.9 2-14 .5-2.2-1.6-12.1-1.9-16.1-.4-3.1 1.2-6.4.5-6.4-1.4 0-.8-1.7-1.6-4-2-4.3-.7-5.6-3.2-2-3.8 2.9-.4 3-2.1.3-3.3-1.3-.5-2.3-1.8-2.3-2.9 0-1.5-.3-1.6-1.5-.6-1.9 1.6-6.5.5-6.5-1.6 0-1.3.9-1.5 4.3-1.3 3.7.3 4.3.1 3.9-1.3-.3-1.2-2.2-1.8-8.3-2.3-7.5-.7-7.9-.8-7.9-3.1s-.2-2.4-8-2.4c-6.6 0-8 .3-8 1.6 0 1.2-.9 1.5-4.4 1.3-3.7-.2-4.9.2-8 2.9l-3.7 3.2h4.1c3.3 0 4-.3 4-2 0-1.1.5-2 1-2 1.7 0 1.1 3.8-.7 4.5-1.7.6-1.7.7.1 2.1 2.4 1.7.3 1.9-2.4.2-1.6-1-2.4-1-4.1.1-1.9 1.1-2.1 1.1-1.6-.3.6-1.4 0-1.5-3.6-1-2.3.4-4.5 1.2-4.9 1.7-.3.6-6.2 1.2-13 1.5-10.5.4-12.6.2-14-1.2-.9-.9-2.4-1.6-3.2-1.6-.9 0-1.6-.6-1.6-1.3 0-1.7-6.1-5.7-8.7-5.7-2.5 0-10.8-3.6-10.9-4.7-.5-5.5-1.8-7.9-5.1-9.6-3.4-1.7-3.7-1.7-7.5.2-3.9 1.9-3.9 1.9-7.9-.3-3.4-1.8-4.1-1.9-4.9-.6-1.3 1.9-.2 7.2 1.6 8.3.8.4 1.4 1.5 1.4 2.2 0 .8.5 1.5 1 1.5.6 0 1 .6 1 1.4 0 1.1.9 1.3 3.4.9 1.9-.3 4.6-.3 6 .1 4.6 1.2 2.7 2.6-3.4 2.6-4.7 0-6 .3-6 1.5 0 1.1-1.2 1.5-4.8 1.5-2.6 0-5.3.5-5.9 1.1-1 1-2 .7-7.3-2.3-.8-.4-2.5-1.2-3.7-1.8-1.2-.5-3.4-2.7-4.9-5-1.5-2.2-3.3-4-4-4-.8 0-1.4-.5-1.4-1 0-2.7-10.4.4-11.8 3.5-1.4 3-.6 3.7 3.3 2.9 2.2-.4 3.5-.1 4.4 1 .8.9 2 1.6 2.7 1.6.8 0 1.4.4 1.4 1 0 .5-1.3 1-3 1-1.6 0-3 .4-3 .9s-1.4 1.4-3 2.1c-2.4 1-3.7 1-5.6.1-3.6-1.6-13.4-.3-16.1 2.2l-2.3 2-4.1-2.9c-3.8-2.6-4.2-2.7-5.1-1-.9 1.7-1.1 1.6-3.4-.5-1.6-1.5-2.2-3-2-5 .2-2-.2-3-1.4-3.4-1.6-.5-3.4-3.8-3.1-5.8.1-.7-1.5-1.1-3.1-.8-.5 0-.8-.4-.8-.9 0-.6-.7-1-1.5-1s-1.5.6-1.5 1.3c0 .8-1.1 1.9-2.5 2.5-1.9.9-2.5 1.9-2.5 4.2 0 1.6.5 3 1 3 .6 0 1-.5 1-1 0-.6.4-1 1-1 1.6 0 2.4 7.1.9 8.1-1.1.7-1.1.9.3.9 1 0 2.3 1 2.9 2.2.9 1.7.9 2.4-.3 3.2-.8.6-1.8 2-2.1 3.1-.8 2.4-7.6 4.9-9.3 3.4-1.4-1.2-1.3-2.3.5-6.6 1.1-2.8 1.1-3.5-.6-5.7-1-1.4-2.3-2.4-3-2.1-.7.2-1-.2-.6-1.1.4-1.1-.4-1.4-3.7-1.4-3.3 0-4.1.3-3.6 1.5.3.9 0 1.5-1 1.5-1.7 0-4.4 5.7-4.4 9.5 0 2.9-.2 2.9-4.7 1.3-3.2-1.2-3.4-1.1-7.8 3.5-4.8 5.1-5.6 5.5-7.5 3.2-1.6-1.9-3.3-1.9-7 0-2.5 1.3-2.9 1.3-3.4 0-.3-.8 0-1.5.6-1.5 1.8 0 .3-9.8-1.9-12.8-2.5-3.4-4.7-3.8-7.2-1.5-1.1 1-4.6 2.7-7.8 3.8-3.2 1-6.5 2.4-7.3 3-1.9 1.5-6.3 1.4-8.2-.3-1.3-1-1.4-2.1-.6-6 .6-2.6 1.1-5.5 1.1-6.5.1-.9.7-1.7 1.4-1.7 1.6 0 1.7-1.7.1-2.2-.8-.3-.9-1.1-.3-2.4.5-1 .9-2.6.9-3.4.1-1.1 1.5-1.6 4.9-1.8l4.7-.3-.1-5.7c-.1-3.1-.3-4.9-.6-4-.3 1.3-1.5 1.8-4.4 1.8-3.9 0-3.9 0-3.9-4.1 0-2.4-.4-3.8-1-3.4-1.2.7-1.4 7.5-.2 7.5.5 0 .9 1.8 1 4 .2 3.8.1 4-2.9 4-1.6 0-5-.5-7.5-1.1-3.9-1-4.8-.9-6.1.4-1.4 1.4-1.5 2.2-.5 5.5.7 2.2 1.2 4.9 1.2 6.1 0 1.1.6 2.1 1.3 2.1 2.3 0 3.9 6.2 2.6 9.9-2.2 6.2-13.9 8.7-13.9 3 0-2.8-4-4.9-9.2-4.9H456v-3.9c0-3.1-.6-4.4-3-6.4-1.6-1.4-3.4-2.7-4-2.9-.8-.2-.5-2.3.9-6.5 1.2-3.5 2.1-6.9 2.1-7.6 0-2 4-5.5 4-3.6.1.8 1-.6 2.2-3 1.8-4 1.9-5 .9-9.5-.6-2.8-1.3-7.6-1.5-10.6-.3-3-.7-6.5-1.1-7.6-.9-3-4.9-4.6-7.9-3.3-2 .9-2.4 1.9-2.5 6 0 2.7.4 4.9.9 4.9.6 0 1 .4 1 1 0 1.6-2.7 1.1-3.4-.6-.3-.9-.6-2.8-.7-4.2 0-1.5-.9-4.1-2-5.7-2.9-4.5-4.9-9.2-4.9-11.5 0-1.3-.7-2-2-2-2.8 0-6 3-6 5.6 0 3.6-1.1 5.4-3.1 5.4-1 0-1.9.5-1.9 1 0 1.8-4.4 10.5-5.7 11.3-2 1.2-1.6 7.2.8 11.3 1.8 3.3 1.9 4.4 1 9.8-.6 3.4-1 8.6-1 11.7.1 7.5-2.5 13.2-5.5 12.3-3-1-3.4-2-2.5-7 1.5-8-1.9-10.4-4.7-3.4-.9 2.2-2.2 4-3 4-1.9 0-1.9-8 .1-10.6 1.5-1.9 1.5-1.9 3 0 1.3 1.7 1.5 1.8 1.5.3 0-.9.6-1.7 1.4-1.7 2.2 0 2.8-5.8 1-9.6-.9-1.9-2-3.4-2.5-3.4s-.9-.5-.9-1c0-.6.3-.9.8-.9 2.4.4 3.5-.7 5.7-5.7 2.9-6.5 3.7-17.2 1.6-19.8-1.5-1.8-4.7-2.1-5.6-.6-1.1 1.8-2.2 1.1-2.8-1.9-.6-3-2.7-4.4-5.1-3.5-1.8.7-2.4 3.9-1.5 7.4.3 1.4.3 5-.1 8s-.5 8.3-.2 11.6c.3 4-.1 7.8-1.1 11-.9 2.7-1.7 6-1.9 7.4-.2 1.7-1 2.6-2.5 2.8-1.3.2-2.3-.1-2.3-.7s-1.3-1.1-2.8-1.1c-5.7 0-8.4-5.4-3.3-6.7 3.1-.8 6.1-7.8 6.1-14.2 0-3.3.6-6.5 1.4-7.7 1.4-1.9 2.3-5.5 3-11.9.2-1.7.8-4.8 1.4-7 .6-2.2 1.3-5.6 1.5-7.5.3-1.9 1.1-5 1.7-6.8 1.4-3.9.3-5.8-2.7-4.8-1.4.4-2.7 2.9-4.4 7.9-1.3 3.9-2.6 7.4-2.9 7.7-.5.5-.6.9-2.1 7-.4 1.9-1.7 4.2-2.9 5.2-1.1.9-2 2.2-2.1 3 0 .7-.5.4-1.1-.8-.7-1.6-.5-3.1 1.1-6.4 1.2-2.4 2.1-4.8 2.1-5.2 0-.5.8-1.8 1.8-2.9 1.9-1.9 2.6-6.8 1.6-10.2-.4-1.3-1.4-1.7-3.2-1.5-2.7.3-2.7.3-2.5-5.7.2-5.3 1.6-11.3 4.3-18.2.5-1.2 1.8-2.7 2.9-3.3 1.8-.9 2.3-.6 4 2.2 3.2 5.4 5.1 6.8 9.3 6.8 2.7 0 3.8-.4 3.8-1.5 0-.8.4-1.5.8-1.5.5 0 2-2.1 3.3-4.8 1.3-2.6 2.7-4.9 3.2-5 .4-.2.7-1.1.7-1.9 0-.9 1.3-2.8 2.9-4.2 3.5-3.2 5.1-6.2 5.1-9.5 0-1.4.4-2.6.9-2.6s1.1-1.8 1.5-4c.3-2.2 1-4 1.5-4 1.7 0 2.3 4 1.5 9.3-1 6.8-.6 11.7 1.2 14.4 1.6 2.5 1.9 12.9.5 13.8-.6.3-1 3.3-1 6.6.1 7-1 8.7-5.4 8.5-2.7-.1-3.2-.6-3.5-2.9-.3-2.1-.9-2.7-2.8-2.7-1.3 0-2.4-.5-2.4-1.1 0-.6-.6-.9-1.2-.7-1.4.5-3 6.7-2 8.2.3.5.6 2.3.6 4 .1 4.5 3.3 7.6 7.8 7.6 2 0 4-.5 4.3-1 1.1-1.8 4.1-1.1 6.3 1.5 2.6 3 4.3 3.1 6.5.7 1.9-2.1 2.2-7.3.6-8.9-.7-.7-.9-2.8-.5-5.5.6-4.4 2.2-21.1 3.1-32.7.5-7.3 1.6-9.1 4.1-7 1.3 1.1 1.8 1.1 2.1.1.3-.6 1.2-1.2 2.1-1.2 1 0 2.6-.7 3.6-1.5 1.8-1.4 2.1-1.3 3.2 1.5 1.6 3.8 5 4 6.6.5.9-2 1.8-2.5 5-2.5h3.8v7.6c0 6.5.2 7.5 1.6 7 .9-.3 1.9-.6 2.4-.6.4 0 1.6-2.6 2.6-5.8 1.5-5.2 5.7-11.3 6.8-10.1.3.3.8 3.1 1.1 6.4.3 3.2.9 6.3 1.4 6.8 1.6 1.6 3.3-.4 2.9-3.4-.4-2.4 0-2.9 2.4-3.4 2.5-.6 2.8-1.1 2.8-4.6 0-3.4-.4-4.1-2.7-5-2.6-1-2.7-1.2-1-2.3 1-.6 2.8-1.9 4-2.9 3.1-2.7 5-1.7 6.3 3.3l1.2 4.5.1-4.3.1-4.2h4c2.9 0 4-.4 4-1.5 0-1.3 2.4-1.5 16-1.5s16 .2 16 1.5c0 1.2 1.4 1.5 6.9 1.5 3.8 0 8.3.3 10 .6 3.7.8 4.1-.8 1.2-4.6-1.5-1.8-1.7-2.9-.9-4.3.7-1.3.6-2.3-.1-3-2.1-2.1-1.1-4.7 2.4-6.4 3.4-1.6 3.6-1.6 5 .3.8 1 1.5 2.5 1.5 3.2 0 .8.9 2.5 2 3.9s2 3.6 2 4.9c0 2.6 2.2 11.6 3 12.4 3.4 3.3 9 11.5 10.4 15.2 1.2 3.3 2.2 4.5 3.2 4.1.9-.3 1.4.1 1.4 1.3 0 2.8 1.3.7 1.5-2.6.2-1.7-.1-3.3-.6-3.6-.5-.3-.9-1.6-.9-3 0-1.3-.4-2.4-.9-2.4-1.1 0-7.3-10.1-6.6-10.8.3-.3 1.1 0 1.7.6.7.7 2.1 1.2 3.2 1.2 2 0 2 0 0-1.5-1.9-1.4-1.8-1.4.4-1.5 1.8 0 2.2.5 2.2 3.1 0 3 .1 3.1 3.2 2.5 1.8-.3 3.6-1.2 4.1-1.9.6-.8.7-.6.3.5-.3 1-.1 1.8.5 1.8s2 1.1 3.1 2.5c2.1 2.7 4.8 3.3 4.8 1.1 0-.8.7-1.7 1.6-2 2.1-.8 1.8-.9 4.3 1.3 1.4 1.2 1.8 2 1 2.3-.7.2-.9 1-.5 1.6.5.9 1.1.9 2.2-.2 1-1 1.5-4 1.6-9.4.2-6.8-.1-8.3-2.1-11.1-1.3-1.8-2-3.5-1.6-3.9.4-.4 1-.2 1.2.5.2.7 1 1 1.7.7 1.8-.7 6.6 3.4 6.6 5.6 0 2.5 5 4.3 9.8 3.5 4.7-.8 5.5 0 4.1 4.6-1.3 4.3.7 11.2 3.5 11.7 1 .2 1.6 0 1.2-.6-.3-.6.6-2 2-3.1 1.5-1.2 2.2-2.1 1.7-2.1-.5 0-1-2.4-1.1-5.3-.1-2.8-.5-6.4-.8-7.9-.4-2 0-3 1.5-4 1.2-.7 2.1-2 2.1-2.9 0-1.4-.7-1.6-4-1.2-3.3.5-4 .3-4-1.1 0-.9.6-1.6 1.4-1.6 1.7 0 2.6-3.1 2.6-9.6 0-4.1-.4-5.4-2.5-7.2-1.4-1.2-3.1-2.1-3.8-1.9-.7.1-1.1-.7-1-2 .2-1.3-.7-3-2.2-4.1-1.4-1.1-2.5-3-2.5-4.1 0-1.5-.5-2.1-1.7-1.9-2.1.3-3.1-3.8-1.4-5.5.7-.7.7-1.6 0-2.9-1.6-3 .7-5.1 4.7-4.3 4.6.8 4.9-.7 1.1-5.3-4-5.1-6.1-5.7-7.6-2.5-.9 1.9-1.6 2.3-2.9 1.7-.9-.4-3.2-.8-4.9-.9-2.1-.1-4.3-1.2-6-3-4.6-4.6-13.5-10.9-19.5-13.9-3.2-1.6-5.8-3.3-5.8-4 0-.6-.9-2.2-2-3.6s-2-3.2-2-4.1c0-.9-.7-1.9-1.5-2.3-.8-.3-1.5-1.2-1.5-2 0-.7-1.1-1.7-2.5-2-1.4-.4-2.5-1.3-2.5-2.1s-.4-1.5-.9-1.5-1.4-1.5-2-3.2c-.7-1.8-2.9-5.1-5.1-7.3-8-8.1-14-15.2-14-16.6 0-.8-1.3-2.3-3-3.2-3.7-2.2-3.9-4-.3-3.1 2.6.7 3.9 1.6 11.2 8.1 2 1.8 4.4 3.3 5.4 3.3.9 0 1.7.4 1.7 1 0 .5.7 1 1.5 1s1.5.4 1.5.9c0 .4 1.9 2.1 4.3 3.6 2.3 1.5 4.9 3.4 5.7 4.2 3.6 3.3 9.4 7.3 10.6 7.3.7 0 1.4.6 1.7 1.2.2.7.8 1 1.2.6.5-.5-.2-1.6-1.3-2.7-1.2-1-2.2-2.1-2.2-2.5 0-.6-4.3-4.9-9.1-9.2-1.3-1.1-6-6.1-10.4-11-12.1-13.6-37.8-39.8-48.2-49.4-3.3-3-7-7.4-8.3-9.8L513.6 0h-48.7c-43.5 0-48.8.2-49.3 1.6zM281.8 179.4c.2.9.1 2.5-.3 3.4-.5 1.4-.9 1.2-2.1-1.1-1.5-2.9-1.1-5.1.9-4.4.7.2 1.4 1.1 1.5 2.1zm48.1 7.2c-1.1 2-2.7 4.3-3.5 5.1-.7.8-1.4 2-1.4 2.7 0 1.4-4.5 5.6-6 5.6-2.2 0 4-10.3 8.9-14.8 3.5-3.2 4.3-2.7 2 1.4zm-63.1 1.7c.7.8.6 1.9-.3 3.7-2.9 5.1-1.4 10.4 2.6 9.8 1.9-.2 2.5-1 2.7-3.5.2-2 1.1-3.7 2.2-4.3 1.7-.9 1.9-.6 1.8 3.2-.1 2.4-.8 5.2-1.5 6.3-.7 1-1.6 4-1.9 6.6-.6 4.3-1 4.9-4.5 6.5-2.2.9-3.9 2.1-3.9 2.5 0 1.4-4.1 2.1-5.5.9-.8-.7-2.9-1-4.5-.8-2.5.4-3 .2-2.4-1.1.3-.9.9-4.2 1.3-7.3.5-3.8 1.4-6.4 2.7-7.5 3.1-2.9 5.4-7 5.4-9.9 0-2.6 2.4-6.4 4-6.4.4 0 1.2.6 1.8 1.3zM488 198c0 .5-.4 1-1 1-.5 0-1-.5-1-1 0-.6.5-1 1-1 .6 0 1 .4 1 1zm96 1.5c0 .8-.4 1.5-1 1.5-.5 0-1-.7-1-1.5s.5-1.5 1-1.5c.6 0 1 .7 1 1.5zm-213.2 2.1c1.6.5 2.2 1.3 2 2.8-.2 1.3-.9 2-1.8 1.7-2.1-.5-3.3-.4-5.2.4-1.4.5-1.8.2-1.8-1.2 0-3.6 2.3-4.8 6.8-3.7zm-140.5 11.2c-2 2.1-2.8 2-2-.3.4-.8 1.3-1.5 2.2-1.5 1.3 0 1.2.3-.2 1.8zM378 241.1c0 1-.4 1.9-.8 1.9s-1.4 2-2.1 4.4c-.7 2.5-2.1 5.2-3.2 6.2-1 .9-1.9 2.2-1.9 2.9 0 .6-1.3 2.4-2.9 3.9-2.1 2-3.5 2.6-4.9 2.2-2-.7-2-.8-.5-5.4.9-2.6 3.6-6.9 6.2-9.8 2.5-2.7 5.4-6 6.4-7.3 2-2.4 3.7-2 3.7 1zm-8.6 33.8c-1.7 2.8-2 3-3.1 1.5-1-1.3-.9-2.3.3-4.7 1.4-2.6 1.7-2.8 3.1-1.4 1.4 1.3 1.3 1.8-.3 4.6zm-19.6-4.3c2 .6 2.2 1.3 2.2 6.5 0 3.3-.4 5.9-.8 5.9-.5 0-2.2 2-4 4.5-2.9 4.1-6.2 6-6.2 3.5 0-1.1 3.2-8.3 4.1-9 1.6-1.4 1.7-4.5.4-7.7-.8-1.9-1.5-3.7-1.5-3.9 0-.6 3.2-.5 5.8.2zm-75.8 1.6c0 .7-.4 1.9-.9 2.6-.7 1.1-1 1-1.5-.3-1-2.6-.7-3.5.9-3.5.8 0 1.5.6 1.5 1.2zm-50 27.7c0 1.2-1.1 2.3-3 3-1.6.5-3 1.5-3 2 0 1.4-6.5 8.1-7.9 8.1-3 0-1.7-2.9 4-8.5 6.6-6.4 9.9-8 9.9-4.6zm216.1.2c3.6 1.8 4 2.3 3.4 4.7-.4 1.5-.9 4.5-1.1 6.7-.3 2.2-.7 4.7-1 5.5-.3.8-.8 3.3-1.1 5.5-.6 4.7-.6 4.7-2.5 4-1.7-.7-2.8-7.3-2.8-17.2 0-3.4-.4-6.5-1-6.8-1.6-1-1.2-4.5.5-4.5.9 0 3.4.9 5.6 2.1zM246 303.7c-.1 2.2-1.6 2.9-3.7 1.8-1.3-.7-2-1.5-1.6-1.8.9-.9 5.3-.9 5.3 0zm-11.5 7.3c-1 1.1-2.2 1.7-2.7 1.4-.4-.3.2-1.4 1.4-2.4 2.9-2.3 3.7-1.7 1.3 1zm-60.5.4c0 1.7-5.6 6.6-7.6 6.6-2.5 0-1.5-2.9 1.6-4.5 1.7-.9 3-2 3-2.5 0-.6.7-1 1.5-1s1.5.6 1.5 1.4zm252 15c0 .8-.4 1.8-1 2.1-.5.3-1-.3-1-1.4 0-1.2.5-2.1 1-2.1.6 0 1 .6 1 1.4zm23.3 8.6c-.4 2.2-.9 6.2-1.2 9.7-.2 2.6-4 1.2-6.1-2.2-2.7-4.4-2.3-6.9 1.2-7.3 1.8-.2 3.1-1.2 4-3.3 1.1-2.4 1.4-2.6 1.9-1.1.4.9.5 2.8.2 4.2zm326.7-4c0 .5-.2 1-.4 1-.3 0-.8-.5-1.1-1-.3-.6-.1-1 .4-1 .6 0 1.1.4 1.1 1zm-602.2 49.4c1.5.7 4.4 1.6 6.6 1.9 5.4.9 8.3 3 9 6.9.3 1.8 2.3 6.9 4.5 11.3 5.4 11.1 8.5 20.7 7.7 23.6-.9 3.4-5.2 7.8-11.6 11.9-3 1.9-5.7 3.7-6 4-.3.4-3.4 2.4-7 4.6-3.5 2.1-8.6 6-11.2 8.6-4.7 4.6-5.1 4.8-10.8 4.8-5.6 0-6-.2-7.5-3-1.9-3.8-1.9-7.6.1-8.4.9-.3 3.2-.6 5.2-.6 4.3 0 7.2-2.4 7.2-6 0-1.5.8-4.2 1.7-6.1.9-1.8 1.6-5.5 1.6-8.1 0-2.7.3-5.1.8-5.4 1.5-.9 1-4.9-1.1-9.5-1.7-3.8-1.8-5.8-1.3-15.6.5-8.6.3-11.6-.7-12.8-1.2-1.4-1.1-1.8.1-2.6 2.1-1.3 9.6-1.1 12.7.5zm41.4 4.3c1.4 1.2 3.3 1.5 8.2 1.1 3.5-.3 6.8-.3 7.2.1.5.3.7 55.6.4 123.6-.4 95.8-.8 123.5-1.7 125.2-1.7 2.9-1.6 6.9.2 9.7 2.2 3.4.3 4.5-7.5 4.3-9.1-.2-18 3.2-12.2 4.6.9.2.7.3-.6.2-1.4-.1-3 .7-4.1 2.1-2.6 3.4-4.4 3-6.7-1.3l-2-3.8h-10c-5.4-.1-10.5-.2-11.1-.3-.9-.1-1.3-2.5-1.3-8 0-4.2-.5-9.7-1.1-12.2-.9-4-2.1-13.3-4.9-37.5-.4-3.9-1.3-8.5-2-10.3-2.3-6.3-.9-14 4.8-25.4 3.3-6.6 5.2-11.8 5.2-13.9 0-1.9-1.6-9.3-3.6-16.5-3.8-13.4-4.4-20.3-2-23.9.7-1.1 1.7-3.6 2.1-5.5 1.1-4.9 8-17.1 12.3-21.5 1.1-1.1 2.8-3.8 4-6 2.5-5 8-11.5 9.7-11.5 1.2 0 6.2-5.2 13.8-14.3 4.6-5.6 7.6-12.1 7.7-16.4 0-3.6-3.2-12.8-8.3-23.7-8.5-18.1-9.1-19.7-8-20.4 1.9-1.2 9.6-.1 11.5 1.5zm94 1.3c1 0 1 161.8 0 162.4-.5.3-1.9-2.7-3.1-6.7-1.2-3.9-3.1-9.9-4.1-13.2-1-3.3-4.6-15.5-8-27-3.3-11.6-7-24.2-8.1-28-1.1-3.9-3.3-11.1-4.8-16-1.6-5-3.8-12.6-5-17-4.6-16.3-13.9-47.1-15.2-50.4-.7-1.6-.6-2.8.2-3.7 1-1.3 4-1.3 48.1-.4zm52.9.6c3.4.5 3.7.8 4.3 4.6.4 2.7.2 4.8-.7 6.2-1.8 2.8-2.4 5.2-4.4 17.6-2.1 13.9-2.4 17.1-2.4 33 0 14.6 2.4 31.7 6 43.5 3.8 12.1 7.8 18.2 18.1 27.8 2 1.8 11.1 6.5 22 11.5 10.5 4.7 15.2 8.7 18.4 15.7 2.2 4.6 2.6 6.8 2.7 16.2.1 12.3-1.2 18.7-5.4 25.8-5.2 8.9-9.3 11.5-17.9 11.5-6 0-10-2.1-17.6-9.4-9.7-9.4-13.4-17.9-13.3-30.7.2-9.2-.9-13.6-3.5-14.6-2.3-.9-2.9.7-4.3 11.5-.7 5.3-2.3 17.7-3.7 27.5-3.4 25.5-3.9 31-2.5 33.5.6 1.2 2 2.2 3.1 2.2s5.8 3.8 10.7 8.8c12.2 12.1 15 14.1 23 16.4 9.9 2.9 23.3.2 30.1-6.1 4.3-3.9 10.5-13.6 12.3-19.1.6-1.9 1.4-4.4 1.8-5.5 1.5-3.6 4.9-15.9 5.6-19.8 5.6-33.4 4.1-65.9-4.4-90.1-5.2-14.8-15.2-26.4-26.6-31-20.6-8.2-29.3-14.7-31.9-23.7-2.8-9.3-1.5-27.3 2.5-35.4 3.4-6.8 8.5-9.5 16.9-9.1 8 .4 12.3 2.2 17.6 7.3 6.9 6.6 12.2 16.6 13.5 25.5 1.2 8.3 3 11.2 5.3 8.7.7-.8 2-5.9 2.9-11.4.9-5.5 2.8-17 4.3-25.5 1.4-8.5 2.7-17.5 2.8-20l.1-4.5 25.2-.3c29.8-.3 28.9-.6 27.8 9.2-.4 3.4-1.3 10.4-2.1 15.6-1.9 12.6-7.2 50.4-8.5 60.5-.5 4.4-1.8 13.4-2.9 20-2.6 16.2-6.5 43.1-9.6 65.5-5.2 38.6-8.5 60.6-9.4 63.4-.6 1.6-1 3.8-1 4.8 0 1.1-1.1 4.4-2.5 7.4s-2.5 6.5-2.5 7.8c0 3.4 4.7 7.8 7.4 7 2.9-1 3.3-1 10.2 0 6.1.8 6.2.8 5.5 3.4-.4 1.5-1.8 3.2-3.1 3.9-2.1 1-3.1.8-7.6-1.8-2.8-1.6-5.4-2.9-5.7-2.9-.3 0-.7 1.2-.9 2.7-.4 3.8-2.4 3.9-4.3.4-1.3-2.6-2.2-3.1-5-3.1-3.2 0-3.5.3-3.5 2.9 0 3.2-1.4 4.1-5.3 3.4-1.5-.3-3.4 0-4.2.7-2.3 1.9-7.1-.5-8.4-4.1l-1-2.8h-11.8c-12.3 0-19.3 1.3-19.3 3.6 0 1.7-1 1.7-3.5-.1-2.2-1.5-6.3-2.5-12.2-3.1-4.7-.5-7.3.2-6.7 1.8.2.7-.9 2.6-2.6 4.2l-3 2.9-2.2-2.1c-1.8-1.8-1.9-2.4-.8-3.7.7-.9 1.9-1.6 2.6-1.6.8 0 1.4-.5 1.4-1 0-.6-3-1-7-1-3.8 0-7 .3-7 .6s1 1.4 2.3 2.4c3.3 2.7 1.4 3.5-3.8 1.5-4.2-1.5-4.8-1.6-7-.1-2.8 1.8-7.5.7-7.5-1.8 0-.7-.6-1.6-1.3-1.9-1-.4-28.9-.2-39.3.3-1.3 0-1.5 2.1-1.4 11.3 0 3.2-.5 6.7-1 7.8-1.6 2.8-7 2.6-9.9-.5-2.1-2.3-2.2-2.7-.9-5.3 2.9-5.7 4.4-7.8 7.2-10.4l2.9-2.7-2.4-.8c-2.5-.9-22.4-.8-37 .1-12.1.8-16.3-1.1-12.2-5.7 2-2.2 2-6.6-.1-10.6-1.3-2.6-1.6-14.6-1.8-95.1-.2-57.5.1-92 .6-91.8.6.2 2.2 4.4 3.7 9.3 7.4 24.6 8.9 30.1 8.9 32 0 1.1.4 2.4.8 2.9.5.6 1.7 3.9 2.6 7.5 1 3.6 2.4 8.3 3.2 10.5.7 2.2 5.1 17.3 9.8 33.5 13.2 46 13.6 47.4 14.6 49.2.6 1 1 2.7 1 3.8 0 1.1.4 2.8.9 3.8.8 1.5 4.3 13.2 7.2 24.7.6 2.2.8 7.2.5 11.1-.8 8.5.6 10.4 8.1 11 2.6.2 7.3.6 10.3 1 5.3.6 5.6.5 7.3-2.4 2.1-3.8 2.1-5.4-.3-12.2-1.9-5.3-1.9-9.5-2-125.7 0-95.2.3-120.2 1.3-120.7 1.3-.6 27.1.2 32.8 1zm227.1-1.1c1.1.4 1.3 21.7 1.1 122.5-.2 106.7-.4 122.4-1.8 125.6-2.1 5.1-1.9 8.4.7 11.1 1.9 2 2 2.5.8 3.3-.8.5-3.2 1-5.2 1-4.1 0-6.1 1.8-2.9 2.7 1.2.3 2.1 1.1 2.1 1.8s.4 1.5.9 1.7c.4.1 1.1 2.2 1.4 4.6.7 5.7-.9 7.3-6 6.1-2.1-.5-5.7-.9-8-.9-2.4 0-4.3-.5-4.3-1 0-.6-.7-1-1.5-1s-1.5-.3-1.5-.8c0-1.3 1.9-3.7 3-3.8.5-.1 1.5-.2 2-.3.6 0 1-1.1 1-2.2 0-1.6-.5-2-1.9-1.6-1.2.3-1.8-.1-1.7-1.2.1-1.2-.9-1.7-3.7-1.9-3.2-.3-3.9 0-4.4 1.7-.3 1.2-1.1 2.1-1.9 2.1-1 0-1.1-.6-.5-2.3.5-1.4.5-3 0-4-1.1-1.8.2-2.1 6.4-1.7 3.7.2 7.7-3.4 7.7-7.1 0-1.4-1.1-5.6-2.5-9.2-2.4-6.5-3.4-12.5-12.6-75.7-4.3-29.4-5.8-39.4-8.4-56-.9-5.8-2.3-15-3-20.5-.8-5.5-2.4-16.3-3.5-24-1.2-7.7-2.5-16.7-2.9-20-.5-3.3-1.6-10.7-2.5-16.5-2.8-17.8-4.1-28.4-3.8-30.2.2-.9 1.1-1.9 2-2.1 2.4-.7 53.8-.8 55.4-.2zm57.2.1c2.4.9 2 2.9-3 15.9-2.5 6.6-5.4 14.5-6.5 17.5-1.1 3-3.1 8.4-4.5 12-1.5 3.6-3.3 8.3-4.2 10.5-.8 2.2-2.6 6.4-3.9 9.3-1.3 2.9-2.3 5.6-2.3 6 0 .8-5.4 14.7-7.7 20.1-1 2.2-1.8 3-2.5 2.3-1.2-1.2-.7-90.6.5-91.9 1.6-1.5 30.7-3 34.1-1.7zm79.5.3c1 .7 1.2 2.3.7 6.7-1.2 9.9-4.6 34.1-7.1 50.4-1.3 8.5-3.3 22.5-4.5 31-1.1 8.5-2.2 16.6-2.5 18-.3 1.4-2.3 15.3-4.5 31-11.6 84-14.6 102.2-18 109.2-2.8 5.8-2.6 8.8 1 12.2 3.5 3.2 3.4 5-.1 5.2-4.3.2-4.7.4-5.2 2.5-.9 3.3-5 2.2-5.8-1.6-.4-2.3 0-3.6 2-5.8 3.3-3.6 3.2-7.6-.3-15.2-2.8-6.1-39.6-150.1-39.6-155 0-1.4 2-7.6 4.4-13.8 2.5-6.2 5.2-13.4 6.1-16.2 1-2.7 2.8-7.2 4-10 1.2-2.7 2.6-6.1 3-7.5.4-1.4 1.6-4.3 2.6-6.5.9-2.2 2.9-7.2 4.2-11 4.7-13.1 9.5-22.4 11.9-23 5.3-1.2 45.9-1.7 47.7-.6zm-209.8 38.3c0 .2.4 3.7.9 7.8s1.6 11.8 2.5 17c1.6 9.6 4.2 26.6 7 46 .8 5.8 2 13.7 2.6 17.5.6 3.9.9 8.1.8 9.5l-.4 2.5-13.8.3c-10.6.2-13.9 0-14.2-1.1-.3-.7.1-6.4 1-12.7 2.8-20.8 8.5-65.3 9.5-74.5 1.2-10.2 1.7-12.5 3.1-12.5.5 0 .9.1 1 .2zm226.8 8.3c.6 3.8 2.3 15.1 3.7 25 1.4 9.9 3.4 23.6 4.5 30.5 4.9 31.6 5.3 35 4.3 36-1.3 1.3-26.3 1.5-27.7.1-1-1-.4-6.2 6.3-55.6 1.1-7.7 2.7-20.3 3.6-28 .9-7.7 1.8-14.6 2-15.4.8-2.6 2.1.3 3.3 7.4zm-114.2 90c.8 2.8 1.8 6.6 2.2 8.5.5 1.9 1.4 5.3 2 7.5 1.1 4.3 5.7 22.8 7.1 28.5.4 1.9 2.3 8.9 4 15.5 1.8 6.6 3.6 13.6 4 15.5.5 1.9 2 7.5 3.3 12.5 3.6 13.1 4.1 18.4 2.4 24.1-.9 3-1.1 5.7-.6 7.1 1.1 3.1 5.2 5.4 9.1 5.2 7.2-.5 10.8 0 10.8 1.7 0 .9.8 2.9 1.7 4.5.9 1.5 1.4 3.1 1 3.5-1.1 1.1-8.8.9-9.5-.3-.5-.8-3.2-1-8.2-.7-10.3.5-12.4-.1-14.1-3.9-1.4-3.1-1.6-3.2-8.4-3.5-3.8-.2-9 0-11.5.3l-4.5.7 2.3 1.8c3.4 2.8 2.8 5.3-1.5 6.7-2.3.7-3.9.8-4.1.2-.2-.5-1.6-.9-3.1-.9-3.5 0-5.1-1.7-5.1-5.2 0-1.8-.5-2.8-1.4-2.8-2.1 0-3.1-2.1-1.5-3.1.8-.5 2.5-.9 3.8-.9 3.1 0 6.1-2.7 6.1-5.5 0-1.3-.7-3.9-1.5-5.8-1.2-3-1.5-10.4-1.5-44.1 0-22.3.4-41.5.9-42.8.5-1.3 1.9-5 3.2-8.3 1.2-3.3 3.5-8.8 5.1-12.3 1.5-3.4 2.8-6.9 2.8-7.8 0-.9.7-1.4 1.7-1.2 1.1.2 2.2 2.1 3 5.3zm-517.9 27.7c2.4 4.7 6.3 22.6 7.4 34 1.8 17.7-.2 26.1-9.3 40.3-5.4 8.3-5.5 8.1-5.1-11.3.1-9.7.9-23.3 1.7-30.2.8-6.9 1.7-17.6 2.1-23.8.4-6.1 1-11.2 1.4-11.2.4 0 1.2 1 1.8 2.2zm427.1 30c2.4 12.2 5.3 34.9 5.4 42.8.1 6-.4 9.8-1.6 12.8-1.7 4.3-1.7 4.5.3 7.7 1.6 2.6 1.8 3.5.8 4.2-.7.4-8.3 1-16.8 1.3l-15.5.5-.3 3.7c-.2 2.2.1 3.8.7 3.8s1.1.7 1.1 1.5-.6 1.5-1.2 1.5c-1.9 0-3.9-1.5-3.6-2.6.1-.5-.4-2.6-1.2-4.7-1.6-4.3-3.9-4.8-7-1.5l-2 2.2-1.6-2.2c-.8-1.2-2.3-2.2-3.3-2.2-3.5 0-4.1-2.1-1.8-6.1l2.2-3.8-2.3-4.6c-1.7-3.5-2.2-6.3-2.2-12.1 0-8.3 5.6-44.2 7.2-46.2.8-.9 6.3-1.2 21.4-1.2h20.3l1 5.2zm224-4.3c1.4.9 3.7 14.6 6.6 39.4 1.4 11.5 1.4 13.3 0 17.3-1.8 5.5-1.9 9.8-.2 11.6 2.7 2.7 5 7.6 4.4 9.3-.8 1.9-4.3 1.6-3.9-.4.1-.8-.9-.5-2.7.8-3.5 2.5-4.7 2.6-6.7.6-2.1-2-.9-3.5 2.7-3.5 1.8 0 2.8-.4 2.4-1-.8-1.3-13.8-1.3-15.1 0-.8.8-2.5.7-5.7-.2-3.8-1-5.1-.9-7.2.2-1.9 1-2.8 1.1-3.7.2-.7-.7-4.4-1.2-9.4-1.2-8.7 0-10.6-.9-8.1-3.8 2.7-3.1 2.9-5.9.6-11.2-1.9-4.5-2.1-6.3-1.6-14.8.6-11.4 5.4-41.2 6.9-43 1.2-1.4 38.4-1.7 40.7-.3zm-645 72.4c.9-1.5 7.1-1.2 7.1.3 0 .7-.5 1.6-1.1 2-.6.3-.8 1.5-.5 2.7.6 2.6-1 5.7-3 5.7-1.1 0-1.4.6-1 1.6.4 1 0 1.8-1.3 2.1-1.1.3-2.2 1.1-2.5 1.9-.7 1.9-4 1.8-5.8-.4-3.7-4.2-3.3-10.9.9-14.8 2.1-1.9 2.9-2.1 4.5-1.3 1.3.7 2.3.7 2.7.2zm435.8 2.7c.5 2.2.7 4 .2 4-.4 0-.9 3.5-1.1 7.7l-.3 7.8-3.2.3c-10 1-10.6-7.7-1.2-17 2.3-2.3 3.6-4.4 3.3-5.3-.4-.8-.2-1.5.3-1.5s1.4 1.8 2 4zm-412.2-.4c1.1 1.1 1.4 2.4.9 3.8-.4 1.2-.8 4.7-.9 7.8-.3 6.8-1.6 8.8-5.8 8.8-5.8 0-8.3-4.6-5.2-9.4.9-1.3 1.8-3.6 2.1-5 1-5.5 2.3-7.6 4.8-7.6 1.4 0 3.2.7 4.1 1.6zm560.6 9.5c-.4 9.6-1.2 11.1-5.9 10.7-2.7-.2-4-1-5.1-2.9-1.4-2.5-1.3-3.1 1.5-8.3 2.7-5.2 6-7.9 8.9-7.2.6.2.8 3.3.6 7.7zm-528.2-2.4c.6 1.6 1.2 3.9 1.3 5.3.3 2.5.3 2.5-8.2 2.5-5.8 0-9.1-.4-10.2-1.4-4-3.2-1.3-5.9 6.2-6.5 3-.2 5.6-.9 5.8-1.5.7-2.1 4-1.1 5.1 1.6zm165.9.6c2.6 7.3 1.2 9-6.3 7.4-2.1-.4-5-.6-6.2-.2-3 .7-6.3-1.4-6.3-4.1 0-2.5 1.7-3.4 6.9-3.4 2 0 4.6-.7 5.7-1.5 3-2.3 4.9-1.8 6.2 1.8zm184-2.6c-2 .3-2.8 1-2.8 2.4 0 1-.7 1.9-1.5 1.9-1.8 0-1.8-.5-.5-3.1.8-1.3 2-1.9 4.3-1.8 3 .2 3 .2.5.6zm212.1 4.1c1.5 4.1 1.5 4.5-.2 5.7-1.4 1-2.7 1.1-5.4.3-2-.5-5.4-.7-7.4-.4-4.2.7-6.9-1.1-6.9-4.4 0-1.4 1.1-2.2 4-3 2.2-.6 4.5-.8 5-.5.5.3 2.2-.1 3.7-.9 4.1-2.2 5.4-1.6 7.2 3.2zM269 658.6c0 .8-.7 1.4-1.5 1.4-1.7 0-1.8-.2-.9-2.4.7-1.8 2.4-1.2 2.4 1zm130.8 5.2l.3 5.2 7.2.1c4 .1 10.2 0 13.8-.1 5.1-.1 6.8.2 7.9 1.5 1.2 1.5 1.2 1.9-.5 3.1-1.5 1.1-3.9 1.3-8.7 1-5.2-.3-7.2-.1-8.3 1-.8.9-1.5 2-1.5 2.5s-2.3.9-5.1.9c-4.6 0-5.1-.2-4.6-2 .3-1.3-.3-2.4-1.9-3.5-2.1-1.4-2.4-2.3-2.4-7.9 0-3.4.3-6.6.7-7 1.6-1.6 2.8.4 3.1 5.2zm76.2 0c.6 5.5-1.2 5 19.3 5.2 7.5.1 13.7.6 13.7 1.1 0 .5-.5.9-1.1.9-.7 0-1.7.7-2.3 1.5-.8 1-3.7 1.6-10.1 1.9-7.9.5-9 .7-9.3 2.4-.3 1.7-1.1 2-5.3 1.9-4-.1-4.8-.4-4.4-1.7.3-.9-.8-2.7-2.5-4.3-2.5-2.4-2.8-3.1-1.9-5.4.5-1.4.7-3.4.3-4.5-.6-1.9 1.4-5.4 2.5-4.3.3.3.8 2.7 1.1 5.3zm-242.3-.2c-.6 3.8 1.2 5.9 4.3 5.1 1.1-.3 2-.2 2 .1 0 .4 3.9.4 8.7.1 6.5-.4 9.6-.2 12.1.9 6.3 2.8 3.5 4.6-7.3 4.8-7.4.1-8 .3-8.3 2.2-.3 1.9-1 2.2-4.7 2.2h-4.4l3.7 5c2 2.7 4.3 5 5 5 .6 0 1.2 1.1 1.2 2.5 0 1.6-.6 2.5-1.5 2.5-.8 0-1.5.4-1.5 1 0 .5-1.3 1.6-2.9 2.5-5.4 2.7-15.4.1-15.7-4.3-.3-3.3-.5-3.8-2.6-4.7-3.5-1.6-4.6-4.2-2.5-6.2 1.3-1.4 3.4-1.8 8.4-1.8 5.9 0 6.6-.2 7.4-2.3.7-1.9.3-2.8-2.1-5.2-2.5-2.5-2.8-3.3-2-5.4.5-1.4.5-2.8.1-3.1-.5-.3-.4-1.6.2-2.9 1.6-3.3 3-2.1 2.4 2zm411.7-3c.3.9.6 2.8.6 4.4 0 3.8 1.7 4.2 15.7 3.9 10.1-.3 11.7-.1 12.7 1.4 1.3 2.1-.5 5.4-2.6 4.8-2.7-.8-12.4-.7-14 .1-1 .5-1.8 1.5-1.8 2.2 0 .8-1.5 1.3-4.5 1.3-3.4 0-4.5-.4-4.1-1.4.3-.7-.7-2.6-2.3-4.1-2.7-2.6-3.1-4.8-2.3-12.7.3-2 1.8-1.9 2.6.1zm148.9-.2c.3.8.3 2.3 0 3.4-.3 1.4.4 2.6 2.5 4 1.6 1.2 3.1 1.9 3.4 1.7.7-.7 20.2-.7 22.1 0 .9.4 1.7 1.5 1.7 2.5 0 1.5-1.2 1.9-7.5 2.5-4.1.3-7.9.4-8.5 0-.5-.3-1.4.5-1.9 1.8-.9 2.2-1.6 2.5-5.9 2.5-4.5.1-4.9-.1-4.5-1.9.4-1.3-.2-2.5-1.6-3.5-1.8-1.3-2.1-2.5-2.1-8 0-6 1.1-8.3 2.3-5zM392 666c0 .5-.4 1-1 1-.5 0-1-.5-1-1 0-.6.5-1 1-1 .6 0 1 .4 1 1zm75 .6c0 1.7-2.2 1.4-2.8-.4-.2-.7.3-1.2 1.2-1.2.9 0 1.6.7 1.6 1.6zm318.5-.7c.3.5.1 1.2-.5 1.6-.5.3-1-.1-1-.9 0-1.8.6-2.1 1.5-.7zm-699.7 2.4c.2 1-.3 1.7-1.2 1.7-1.8 0-2.9-1.6-2.1-3.1.9-1.4 2.9-.6 3.3 1.4zm100.6 1.3c1.1 2.8.6 5-1.3 6.8-3.8 3.5-6.9-1.5-3.9-6.4 1.5-2.4 4.3-2.6 5.2-.4zm164-1c2.5.9 2.1 7.1-.5 8.4-3.9 2.2-6.4-2.6-3.7-7 1.4-2.2 1.8-2.3 4.2-1.4zm247 0c3.5 1.3.5 9.4-3.5 9.4-1.5 0-1.9-.7-1.9-3.2 0-1.7.7-4 1.7-5 1.8-2.1 1.6-2 3.7-1.2zm150.4 2.9c.3 3.8-.8 5.4-3.8 5.7-2.2.3-2.5-.2-2.8-3-.2-2.4.2-3.8 1.5-4.8 2.7-2.1 4.8-1.3 5.1 2.1zm-674.3-.4c1 3-1 4.7-2.5 2-1.1-2.1-.6-4.1 1-4.1.5 0 1.2.9 1.5 2.1zm450.2 1.1c0 3-1.1 4.7-2.9 4.8-.5 0-.8-1.5-.8-3.4 0-2.4.5-3.6 1.8-3.9.9-.3 1.7-.5 1.8-.6 0 0 .1 1.4.1 3.1zm-424 5.5c.4 1-.2 2.3-1.7 3.5-2.2 1.8-2.3 2.2-1.2 6.4 1.5 5.4 1.5 10.1.2 10.9-.5.3-1 0-1-.8s-1.3-2-3-2.5c-2.8-1-3-1.4-2.8-6.3.1-4.6-.3-5.5-2.6-7.1-2.1-1.6-2.4-2.3-1.6-3.9 1.5-2.6 12.7-2.8 13.7-.2zm38 4.8c.3 2.9.1 4.5-.6 4.5-.6 0-1.1.7-1.1 1.7 0 1.1 1.1.5 3.5-2 3.9-4 6.4-4.5 10.9-2.2 1.5.8 4.2 1.5 5.8 1.5 4.1 0 9.8 2.9 11 5.6.8 1.8.6 2.8-1 5.2-3.1 4.2-7.2 5.6-13.5 4.7-2.9-.5-7.4-.8-10.2-.7-2.7.1-6 0-7.1-.3-3-.7-4-5-1.9-8.2 2-3 .6-5.3-3.1-5.3-2.1 0-2.4-.5-2.4-4v-4h4c2.4 0 4-.5 4-1.2 0-2.9 1.3.7 1.7 4.7zm165.5.1c-.4 5.7-2.1 7.9-4.5 5.5-.6-.6-1.9-1.1-2.9-1.1-2.2 0-3.6-2.5-3-5.6.3-1.8 1.3-2.5 4.1-2.9 4.2-.7 6.6-1.2 6.6-1.4 0 0-.2 2.4-.3 5.5zm122.8-3.5c0 .5-.4.9-1 .9-.5 0-1-.7-1-1.6 0-.8.5-1.2 1-.9.6.3 1 1 1 1.6zm78-.6c0 1-1 1.5-2.7 1.5l-2.8-.1 2.5-1.4c3.1-1.8 3-1.8 3 0zm44.8-.3c1.8 1.8 1.6 8.8-.3 8.8-.8 0-1.5.7-1.5 1.5 0 2.5 2.5 1.7 4.3-1.4 1-1.7 2.6-3.3 3.7-3.6 2.6-.8 8 .3 8 1.7 0 .6.9.8 2 .5 2.1-.5 8.1 1 11.8 3.1 3.5 2 3 6.9-1 10.5-3.1 2.6-3.7 2.7-9.3 2.2-3.3-.3-8.9-.7-12.5-.9-10.2-.4-10-.3-10-3.4 0-1.5.6-3.7 1.4-4.8 1.7-2.4 1-3.9-2.4-4.9-3.1-.9-4-2.2-4-5.7 0-2 .7-2.9 2.8-3.6 3.7-1.4 5.6-1.4 7 0zm150 2.9c.2 2.4-.3 4.3-1.5 5.8-1.7 2.1-2 2.1-4.7.7-3.4-1.8-4.6-3.3-4.6-6.4 0-1.9.5-2.2 3.4-2.2 1.9 0 3.8-.5 4.1-1.1 1.3-1.9 2.9-.3 3.3 3.2zM262 678.7c0 .5-.4 1.5-1 2.3-1.1 1.8-2.5.7-1.7-1.5.6-1.5 2.7-2.1 2.7-.8zm141.7 2.6c.7.5 2 2.3 2.9 4.2.9 2 2.1 3.2 2.9 2.9 1.4-.6 3 2.9 2.1 4.4-.3.5-2.3 2.1-4.5 3.6-3.6 2.5-4.5 2.7-9.5 2.1-3.8-.5-5.6-1.2-5.6-2.1 0-.8-.4-1.4-1-1.4-.5 0-1-1.1-1-2.5 0-1.5-.7-2.8-1.7-3.2-4.1-1.6-5.5-5-3-7.5 1.5-1.4 16.3-1.8 18.4-.5zm77 1.3c1.1 1 2.3 2.7 2.6 3.7.4 1.1 1.6 2.1 2.7 2.4 1.9.5 2.9 4.3 1.2 4.3-.4 0-2.3 1.4-4.2 3.1-2.8 2.6-3.9 3-6.9 2.5-2-.3-4.4-.6-5.3-.6-2.4 0-4.8-2.8-4.8-5.6 0-1.4-.7-2.7-1.7-3.1-3.1-1.1-5.2-3.4-4.6-5.1 1.1-3.1 3.2-3.8 11.1-3.7 6.3.1 8.3.5 9.9 2.1zm170.9.9c1.3 1.7 2.4 3.3 2.4 3.7 0 .5.6.8 1.4.8 1.9 0 3.7 2.5 3.1 4.1-.4.8-2.3 2.5-4.3 3.8-2.8 1.9-5 2.4-9 2.3-6.3-.1-9.2-2.1-9.2-6.4 0-1.9-.5-2.8-1.6-2.8-2 0-4.3-2.8-4.4-5.1 0-2.5 3.4-3.4 11.7-3.4 7.1.1 7.7.3 9.9 3zm148.8-.4c1.4 1.3 2.6 3 2.6 3.7 0 .7 1.1 1.8 2.5 2.4 2.8 1.3 3.4 4.8.9 4.8-.9 0-2.8 1.2-4.1 2.6-2.2 2.4-2.9 2.6-7.5 2-6.8-.9-8.4-1.9-9.1-5.6-.4-1.7-1.5-3.3-2.4-3.7-3.9-1.5-5.6-6.4-2.9-8 .8-.4 5.1-.8 9.5-.7 7 .1 8.3.4 10.5 2.5zm-485.1 1.1c2.3 1.1 5.9 2.3 8 2.5 9.5.8 12.5 6.2 6.7 11.8-2.7 2.6-3.7 2.9-9.3 2.8-3.4 0-7.7-.4-9.5-.8-1.9-.4-3.7-.3-4.5.3-.7.6-2.7.8-4.7.3-3.1-.6-3.5-1.1-3.8-4-.3-3.3 1.9-7.1 4.2-7.1.6 0 1.7-1.4 2.5-3.1 1.1-2.5 3.3-4.3 5.9-4.8.1-.1 2.2.9 4.5 2.1zm352 1.6c2 1.7 2.3 6.2.5 8-.7.7-2.2 1.2-3.5 1.2-1.7 0-2.3-.7-2.8-3.3-.8-4 1-9.1 2.7-8.1.7.4 2.1 1.4 3.1 2.2zm44.1-1.3c.8.8 3 1.5 4.8 1.5 4.4.1 11.4 3.3 12 5.7.8 3-.9 6.1-4.4 8.3-3.4 2.1-7.2 2.2-17.1.4-2.3-.4-4.3-.2-5.1.5-2.4 2-8.6-1.6-8.6-4.9 0-.9 2.4-4.2 5.3-7.3 4.2-4.5 5.8-5.6 8.4-5.7 1.7 0 3.8.7 4.7 1.5zM202.9 687c5.2 0 6.9 5.1 3.1 9.2-1.9 2.1-2.1 2.1-3.7.4-1-1-3.2-2.6-4.9-3.6-1.7-1-3.4-2.7-3.6-3.8-.5-1.7 0-2.2 2.3-2.7 1.6-.4 3-1.2 3-1.8.1-.7.3-.4.6.5.3 1.2 1.4 1.8 3.2 1.8zm52.9-.5c1.3 2.8 1.7 8.3.5 7.2-.3-.4-1.4 0-2.4.9s-2.2 1.3-2.7 1c-1.2-.7-2.2-6.9-1.5-9.5.8-3 4.7-2.7 6.1.4zm26.6-.4c-.8 1.4-2.4 1-2.4-.6 0-.9.6-1.2 1.5-.9.8.4 1.2 1 .9 1.5zm138.4-.4c.6 1 1.3 3.2 1.6 4.8.6 2.7.3 3.2-2.5 4.2-1.8.7-3.6 1-4 .7-1-.6-1.2-7.5-.3-9.8.8-2.1 4.1-2 5.2.1zm76.3.5c2 2.2 2.4 4.6 1.1 6.3-1.1 1.5-5.3 3.7-6 3.1-.3-.3-.7-3.1-1-6.1-.4-5.2-.3-5.5 1.8-5.5 1.2 0 3.1 1 4.1 2.2zm318.9-.7c0 .8.4 1.5.9 1.5 1.1 0 2.1 3.8 1.5 5.4-.7 1.9-6 3.6-7.3 2.3-1.2-1.2-1.5-6.6-.5-9.1.8-2.1 5.4-2.1 5.4-.1zm-201 1.3c3.7.5 5.9 2.6 6 5.6 0 3.9-5.9 6-8.9 3.1-.9-.8-2.8-2.6-4.3-4-1.6-1.4-2.8-3-2.8-3.5 0-1.4 3.4-3 5-2.3.8.3 3.1.8 5 1.1zm149.9.2c5.3 1.4 6.7 5.3 3 8.1-3 2.3-4 2.3-6.5 0-1.1-1-3-2.2-4.2-2.5-1.2-.4-2.2-1.1-2.2-1.6s-.2-1.5-.5-2.2c-.6-1.6 3.2-3.9 5.2-3.3.6.2 3 .9 5.2 1.5zm-392.3 1.1c2.3 1.9 1.7 6.4-1.1 7.9-2.3 1.2-2.8 1.1-5.3-.9-1.5-1.2-3.5-2.4-4.4-2.7-2-.7-3.3-3.8-2.2-5.5.9-1.4 10.9-.5 13 1.2zm76.4.7c3.2 2.7 2.5 5.6-1.5 7.1-3.2 1.1-3.7 1-6-1.3-1.4-1.4-3-2.6-3.5-2.6-1.2 0-2.3-3.7-1.4-5.1.9-1.6 10-.2 12.4 1.9zm-159 6.3c0 1-.4 1.9-1 1.9-.5 0-1-1.2-1-2.6 0-1.4.4-2.3 1-1.9.6.3 1 1.5 1 2.6zm247.1 1c-.6 1.6-1 1.8-1 .7-.1-.9-.7-1.9-1.3-2.1-1-.4-.9-.8.2-1.6 2.1-1.5 3.2.1 2.1 3zm148.5-.5c-.5 1.3-1 1.4-1.8.6-.6-.6-.8-1.8-.4-2.8.5-1.3 1-1.4 1.8-.6.6.6.8 1.8.4 2.8zM125 695c0 1.1-.4 2-1 2-.5 0-1-.9-1-2s.5-2 1-2c.6 0 1 .9 1 2zm62.8.6c.2 1.3-.4 2.4-1.4 2.8-2.3.9-3.7-.7-2.9-3.4.8-2.7 3.9-2.3 4.3.6zm164.9-1c1.4 1.4 1.4 1.7-.1 3.2-1.4 1.5-1.8 1.5-3.1.1-1.6-1.6-1.1-4.9.7-4.9.5 0 1.7.7 2.5 1.6zm247.3.9c0 2-.5 2.5-2.4 2.5-2.7 0-4-2.2-2.3-3.9 2.1-2.1 4.7-1.3 4.7 1.4zm147.8-1.6c2 1.2 1 4.6-1.3 4.6-1.4 0-2.1-.8-2.3-2.8-.3-2.8 1-3.5 3.6-1.8zM422 704c0 .5-.4 1-1 1-.5 0-1-.5-1-1 0-.6.5-1 1-1 .6 0 1 .4 1 1zm76-.1c0 .6-.4 1.3-1 1.6-.5.3-1-.1-1-.9 0-.9.5-1.6 1-1.6.6 0 1 .4 1 .9zm171 .7c0 .8-.4 1.2-1 .9-.5-.3-1-1-1-1.6 0-.5.5-.9 1-.9.6 0 1 .7 1 1.6zm150-.1c-.7.8-1.6 1.5-2.1 1.5s-.9-.7-.9-1.5c0-.9.9-1.5 2.1-1.5 1.8 0 1.9.2.9 1.5zm-654.2 2.9c1.7.6 3.2 1.5 3.2 2.1 0 .5 1.7 2.1 3.8 3.4 8.2 5.5 10.8 10.2 8.2 15.1-1.3 2.4-1.1 2.4-15.4.3-2.2-.3-4.1-.1-4.5.5-1 1.6-8.4 3-10.9 2.1-3-1.1-2.9-5.3.3-8.5 1.4-1.4 2.5-3.3 2.5-4.3 0-1.9 3.1-3.9 7-4.3 3.2-.4 4.3-4.8 1.1-4.8-1.1 0-2.3-.5-2.6-1-1-1.6.6-3.2 2.4-2.4.9.4 3.1 1.2 4.9 1.8zm411.8 1c1.3-.3 3 .7 5.2 3.1 1.9 1.9 3.8 3.5 4.4 3.5.6 0 2.1 1.1 3.4 2.5 2 2.2 2.8 5.1 2.5 9.6-.1 1.9-4.8 4.2-6.3 3.2-3.2-1.9-9.2-2-14.9-.2-6.3 2-11.4 1.7-12.3-.7-.7-1.8 1.4-6.5 3.6-8.2 1-.7 1.8-1.9 1.8-2.7 0-2.3 3-4.5 6.1-4.5 3.3 0 4-2.5 1.2-4.5-1.1-.8-1.4-1.8-.9-3.1.7-1.8.8-1.8 2.5.3 1.1 1.3 2.5 2 3.7 1.7zm145.2-2.2c1.7 1.7 1.5 2.8-.7 2.8s-3.5-1.5-2.6-3c.8-1.3 1.8-1.3 3.3.2zM327 707c0 .6 1.4.9 3.2.8 1.9-.2 3.3.3 3.6 1.1.5 1.4 1 1.9 7.5 7.3 5.4 4.4 6.1 6.1 4.1 10.3-1.4 3.1-2.1 3.5-5.3 3.5-2-.1-5.4-.7-7.6-1.5-2.1-.8-4.2-1.1-4.5-.7-1.3 2-8.6 3.7-14.2 3.3-2.7-.2-2.3-4.4.7-7.9 1.4-1.7 2.5-3.7 2.5-4.5 0-2.4 2.9-4.7 5.9-4.7 1.5 0 3.2-.5 3.9-1.2 1.3-1.3 1.6-3.9.5-3.7-.5.1-1.6.1-2.5 0-2.5-.1-2.3-3.1.2-3.1 1.1 0 2 .5 2 1zm-121.4 2.2c1.5.7 4.3.5 9.8-.6 4.1-.8 8.3-1.3 9.2-.9 1.8.7 3.4 4.3 3.4 7.8 0 2.4-2.6 4.6-4.5 3.9-.6-.2-1.5.6-2 1.8-1.4 3.1-7.4 5-16.5 5.2-5.7.1-8.2-.3-10.3-1.6l-2.6-1.8 2.2-6c3.4-9.6 5.1-10.8 11.3-7.8zm185.5-.1c1.5 1.5 1.9 3 1.7 6.2-.3 3.9-.5 4.2-2.9 3.9-2.1-.2-2.8.2-3.3 2.2-.3 1.3-1.4 2.7-2.4 3-1.7.6-14.8 1.9-16.7 1.8-10.9-1-11.3-1.7-6.4-11.8 2.7-5.7 3.3-6.4 5.9-6.4 1.6 0 3.2.4 3.5 1 .7 1.1 12.1.2 14.5-1.1 2.4-1.3 3.9-1 6.1 1.2zm56.5 0c.6.5 4.5.2 8.7-.6 4.2-.8 8.2-1.2 8.9-1 1.9.8 3.6 3.7 4.3 7.7.5 2.8.3 3.7-1 4.2-.9.3-2.1.4-2.6 0-.5-.3-2.1.8-3.5 2.5-2.1 2.5-3.4 3.1-6.4 3.1-2.1 0-5.1.5-6.6 1-2.8 1.1-11.7-.3-13.8-2.1-1.3-1.2 1.3-11.9 3-12.6.8-.3 1.4-1.1 1.4-1.8 0-2.3 4.7-2.5 7.6-.4zm168.4-1.2c0 1.6 6.9 1.9 12.2.5 2.9-.7 6.1-1.4 7-1.4 2.2 0 4.8 4.9 4.8 9 0 2.7-.3 3-2.9 3-2.1 0-3.2.6-3.6 2-1.3 4-4.7 4.8-20.9 4.9-3.2.1-6.3-.2-6.8-.5-1.3-.8-.3-9.7 1.1-10.2.6-.2 1.1-1.1 1.1-2.1 0-2.8 3-6.1 5.6-6.1 1.3 0 2.4.4 2.4.9zm150.6 1.3c1.1.8 7.1.1 16.1-1.7 2.8-.6 3.3-.4 4.7 2.3.9 1.7 1.6 4.5 1.6 6.2 0 2.6-.4 3-2.7 3-2.1 0-3.3.8-4.5 3-1.6 2.8-2.1 3-7.8 3-3.3 0-6 .4-6 1 0 .5-1.8 1-4 1s-4-.5-4-1.1c0-.6-.8-.8-1.7-.5-4.9 1.5-5.5-3.8-1.3-12.7 2.6-5.5 5.6-6.6 9.6-3.5zm-35.3 2c1.9 1.8 5.1 4.7 7.1 6.4 3.9 3.4 4.7 7.4 2.1 10.7-1.6 2.1-6.4 2.5-10.8.8-2-.8-4-.8-7 0-11.6 2.9-13.1 3-14.5 1.2-1.6-2.2-.7-5.3 2.4-7.8 1.3-1.2 2.4-2.7 2.4-3.5 0-2.3 3.2-5 5.9-5 1.8 0 3.1-.9 4.3-3 2.2-3.8 3.8-3.8 8.1.2zm-614.7-.1c1.2 1.3 2.5 1.8 4.1 1.4 3.8-.9 11.4 1.7 12.4 4.3 1.4 3.5 1.1 5-1.2 7.3-1.9 1.9-2.9 2-11.6 1.6-7.7-.3-9.8-.8-10.5-2.1-.9-1.6-1.2-1.6-3.3.4-2.6 2.4-5.9 2.2-10.2-.6-2.5-1.6-3-5.7-1.2-9.7 1-2.2 1.6-2.4 8.7-2.3 5.2.1 7.7-.3 7.9-1.2.7-1.8 2.8-1.5 4.9.9zm136.5 6c3.3 2.8 5.9 5.5 5.9 6 0 1.9-3.7 2.8-6.9 1.6-2.7-1-3.7-.9-6.2.6-4.5 2.5-9.5 2.3-10.2-.5-.5-1.8.5-3.3 4.9-7.5 3-2.9 5.7-5.3 6.1-5.3.3 0 3.2 2.3 6.4 5.1zm44.7-1.7c.8.5 1.2 2.4 1 4.5-.2 2.8-.9 3.9-3.2 5-4.8 2.2-11.1 2.6-13.7.7-1.3-.9-4-1.6-6.1-1.6-3.1 0-3.8-.4-3.8-2 0-2.3.3-2.3 4.8-1.1 1.7.5 3.2.6 3.2.1 0-1.8 6.7-7.9 9-8.2 2.5-.4 6.4.8 8.8 2.6zm117.1-1.2c1.2 2.3 5.3 4.8 7.8 4.8 1.8 0 1.6 2.4-.4 4.9-1.6 1.9-2.2 2-5.5.9-3.2-1-4.1-.9-5.6.5-1.1 1-3.5 1.7-6 1.7-3.6 0-4.2-.3-4.2-2.2 0-2.5 8.8-12.5 11.1-12.7.9-.1 2.1.9 2.8 2.1zm79.4 1.8c.9 0 1.7.7 1.7 1.5s.7 1.5 1.5 1.5c1 0 1.5 1 1.5 2.9 0 3.8-.9 4.3-5.2 2.9-2.9-.9-4.2-.8-6.8.6-4.2 2.1-8.9 2.1-9.7 0-.8-2.1 1.3-6.4 3.1-6.4.8 0 2.3-1.3 3.2-3 2.2-3.6 4.3-4.2 7-1.8 1.1 1 2.8 1.8 3.7 1.8zm47.2-1.7c1.1.5 2.8 1.9 3.7 3 1.5 2 1.5 2.3 0 5-1.9 3.1-3.5 3.7-10.7 3.8-14 .1-13.3.3-14.8-3.3-1.6-3.9-.9-4.7 4.3-4.8 2.4-.1 4.6-1 6.9-3 3.5-3 5.7-3.2 10.6-.7zm120.2-.4c.2 1 2.1 2.7 4.1 3.8 2.7 1.4 3.7 2.5 3.7 4.3 0 2-.6 2.6-2.7 2.8-1.5.2-3.5-.1-4.6-.7-1.4-.7-2.6-.5-4.8 1-1.6 1-4.4 1.9-6.1 1.9-3 0-3.3-.3-3.3-2.9 0-2.3.9-3.6 3.9-5.8 2.2-1.5 4.2-3.6 4.4-4.6.7-2.3 4.7-2.2 5.4.2zm30 .6c2.7 1.8 3.6 4.6 2.4 7.7-1.6 4.1-12.8 6.3-16.3 3.1-3-2.7-1.9-7.4 2.7-11.6 2.2-2.1 7.3-1.7 11.2.8zm118.5-.7c.7 1 2.8 2.7 4.6 3.8 3.5 2 5.3 6.1 3.2 7.4-.6.4-3 .3-5.1-.1-3-.7-4.7-.5-6.9.6-5.6 2.9-11.7 1-9.3-2.9 1.6-2.5 9.9-10.4 11-10.5.6-.1 1.8.7 2.5 1.7zm-300.5 4.8c-.9.9-2.8-.6-2.1-1.8.4-.6 1-.6 1.7.1.6.6.8 1.3.4 1.7zm1.3 8.9c0 .6-.7 2-1.5 3.1-1.3 1.6-1.6 1.7-2.5.4-1.3-2.1-1.2-5.4.2-6.8 1-1 1.5-.9 2.5.5.7.9 1.3 2.2 1.3 2.8zM267.5 726c.9 1 1.5 2.6 1.1 3.5-.9 2.5-4.6 0-4.6-3s1.1-3.2 3.5-.5zm370.1.7c-1 1-1.9-.5-1-1.8.6-1.1.8-1.1 1.2 0 .2.7.1 1.5-.2 1.8zm-412.1-.7c.3.5.1 1-.4 1-.6 0-1.1-.5-1.1-1 0-.6.2-1 .4-1 .3 0 .8.4 1.1 1zm166.5 0c0 .5-.4 1-1 1-.5 0-1-.5-1-1 0-.6.5-1 1-1 .6 0 1 .4 1 1zm395.5 0c-.3.5-1.4 1-2.3 1-1.5 0-1.5-.2-.2-1 2-1.3 3.3-1.3 2.5 0zm-269.7 3.4c.2 1-.1 2.3-.7 2.9-1.6 1.6-3.4-.6-2.6-3.3.8-2.4 2.8-2.2 3.3.4zM829 728c0 .5-.4 1-1 1-.5 0-1-.5-1-1 0-.6.5-1 1-1 .6 0 1 .4 1 1zm-602.6 12.1c4.4 3.5 3 5.9-3.5 5.9-3.1 0-3.6-1.1-1.9-5.4 1.2-3.1 2-3.2 5.4-.5zm411.7-1.1c1 .6 1.9 1.7 1.9 2.5 0 1.1 1.2 1.5 4 1.5 3.6 0 4 .2 4 2.5 0 3-1.5 3.2-3.2.5-1.3-2.1-4.8-2.8-4.8-.9 0 .6-1.6.9-3.7.7-3.1-.2-3.9-.7-4.1-2.6-.2-1.4.4-2.9 1.5-3.7 2.2-1.7 2-1.7 4.4-.5zm149.4 1.4c1.4 1.4 2.2 3.1 1.9 3.9-.7 1.8-4.7 2.7-6.8 1.5-1.9-1.1-2.1-4.9-.4-6.6 1.7-1.7 2.6-1.5 5.3 1.2zm-394 .6c2.4 2.6.5 5-4 5-3.5 0-4.6-1.6-3.7-5.3.6-2.4 5.4-2.2 7.7.3zm75.5-.5c2 2.4.8 4.9-2.7 5.6-4.3.8-6.1-1.1-4.5-4.6 1.3-2.8 5.2-3.4 7.2-1zm-375.4 3c4.1 4.4 1.9 10.6-4.4 12.2-2.9.7-8.4-.4-10.8-2.2-1.8-1.3-1.8-1.5-.1-3.2 1-1 1.7-1.3 1.7-.5 0 1.4 3.6 1.6 4.4.3.9-1.3-1.5-2.8-5.7-3.5-2.1-.4-4.1-1.4-4.4-2.2-1.1-2.9 1.3-3.9 9.1-3.8 7 .2 7.9.4 10.2 2.9zm52.1 1.2c5.4 3.6 1.1 10.5-8 12.8-3.2.8-6 1.5-6.2 1.5-.3 0-1.4-2-2.5-4.4-1.1-2.5-2.4-4.8-3-5.1-1.4-.9-1.2-4.1.3-5.7 1.9-1.8 16.3-1.1 19.4.9zm165 0c2.6 1.7 4.1 5.5 2.4 6.1-.6.2-1.1.9-1.1 1.5 0 2.3-5.1 4.7-13 6.4-2.3.4-2.9-.2-5.5-5.4-3-5.7-3.4-9.1-1.4-10.4 1.8-1.1 16.3.3 18.6 1.8zm89.7 1.1c-.4 1.2-1 2.2-1.5 2.2-1.1 0-1.2-4.4-.2-5.4 1.2-1.1 2.3.9 1.7 3.2zm156.9-1.5c6 2.6 1.6 11.1-6.9 13.3-7.3 1.9-8.2 1.8-8.9-1.6-.4-1.7-1.6-3.9-2.7-5-1.6-1.4-1.9-2.5-1.3-4.7.3-1.5 1.2-3.1 1.8-3.5 1.5-.9 14.6.2 18 1.5zm142.3-1.3c6.6 0 10 2.6 8.9 6.8-1.1 4.5-4.4 7.2-8.7 7.2-2.1 0-3.8.4-3.8 1 0 .5-.9 1-2 1-1.4 0-2.6-1.4-4.1-4.5-1.2-2.5-2.5-4.8-3-5.1-1.3-.8-1.1-4.8.4-6.3.7-.7 2.4-1 4.1-.7 1.6.3 5.3.6 8.2.6zm-513.1 1c.3.5 2.4 1 4.6 1 3 0 4.6.6 6.4 2.6 2.3 2.4 2.3 2.8 1 5.4-1.9 3.6-2.4 3.9-9.7 5.6-5.5 1.3-6.3 1.3-8.7-.3-1.4-.9-3.9-1.6-5.4-1.4-4 .4-5.2-1.1-5.2-6.5 0-4.8.1-4.8 4-6 5-1.5 12.2-1.7 13-.4zm48.5 1c0 1.1-.7 2-1.5 2s-1.5-.9-1.5-2 .7-2 1.5-2 1.5.9 1.5 2zm46.9-.4c2.1 1.5 2.3 2.2 1.7 7.7-.3 3.3-.8 6.2-1 6.5-.3.2-1.6.2-2.9-.2-2.5-.6-3.7-3-3.7-7.4 0-1.5-.7-2.6-2-2.9-1.1-.3-2-1-2-1.5 0-.6.7-.8 1.5-.4.9.3 2.3-.3 3.2-1.4 2.1-2.4 2.2-2.4 5.2-.4zm52.4 1c.4 2.1.1 2.5-1.7 2.2-2.8-.4-3.6-4.8-.8-4.8 1.3 0 2.1.9 2.5 2.6zm17.2-1.6c.3.5 2.1 1 4 1 4.7 0 6.4.8 7.9 3.9 2.7 5.2-.5 8.1-10.8 10-5.4 1-7.2.7-8-1.4-.3-.9-1.7-1.2-4.5-.8-3.8.5-4.1.4-4.2-1.8-.4-5.5.3-9.5 1.9-10.7 1.9-1.4 12.8-1.6 13.7-.2zm125.5 1c0 1.5-.7 2-2.5 2-2.7 0-2.8-.1-1.9-2.4.9-2.4 4.4-2 4.4.4zm52.1.2c1.9 2.4 1.8 7.1-.3 11-1.2 2.5-2.1 2.2-4.1-1.1-2.1-3.6-2.2-6.5-.1-9.6 2-3 2.1-3.1 4.5-.3zm50.9.1c0 1.3-.3 2.7-.7 3-1.1 1.2-3.1-1.3-2.6-3.3.7-2.8 3.3-2.5 3.3.3zm18.5-1.3c.3.5 2 1 3.6 1 3.2 0 6.9 1.6 8.1 3.4 2.6 3.8-1.1 8.2-8.2 9.7-1.9.5-4.8 1.1-6.3 1.5-2.3.5-2.9.3-3.3-1.4-.5-1.6-1.2-1.9-4.2-1.5-5.3.7-7-1.1-6.4-6.8.3-3.5.9-4.9 2.5-5.7 2.8-1.4 13.4-1.5 14.2-.2zm134.2.5c3.3-1.3 13.1-1.7 13.8-.6.3.6 2.6 1.1 5 1.1 7.6 0 11.3 6.7 6 10.9-3.5 2.7-15.4 4-16.9 1.9-.8-1-2.2-1.4-4.4-1-4 .5-6.5-1.3-5.8-4.4.5-2-1.5-5-2.6-3.9-.3.3-1-.1-1.7-.9-1.7-2 1.5-5.2 3.5-3.5.8.6 2.2.8 3.1.4zm64.3.5c0 1.3-.7 2-1.8 2-2.4 0-3.2-.8-2.5-2.6.8-2.2 4.3-1.7 4.3.6zm-629 1c0 1.1-.7 2-1.5 2-1.5 0-2.1-2.1-.8-3.3 1.2-1.3 2.3-.7 2.3 1.3zm336.8 2.7c1.1 1.1 1.1 1.6-.2 2.9-1.2 1.2-2.7 1.4-6.3.8-2.7-.3-5.4-1.1-6-1.6-2-1.6-1.5-4.8.9-5.7 2.3-.8 9.2 1.3 11.6 3.6zm164.7-3.1c1.3.3 3.2.1 4.4-.5 3.6-2 6.1.5 6.1 5.9-.1 7.5-4 10.5-7.1 5.4-1.8-3-8.5-5.9-9.3-4-.7 1.6-2.6-1.4-2.6-4.1 0-2.4 2.7-4.5 4.8-3.8.8.3 2.4.8 3.7 1.1zm-551.7 2.3c.6 4.3-.8 11.1-2.4 11.1-.8 0-1.4-.7-1.4-1.5s-.4-1.5-1-1.5c-.5 0-1-2.5-1-5.6 0-5.4 0-5.5 2.8-5.2 2 .2 2.8.9 3 2.7zm143-.9c4.1 2.5 4.4 6 .5 6-5.9 0-10.4-1.3-11.4-3.2-2.5-4.6 4.8-6.5 10.9-2.8zm171.8-.6c5.3.1 7.6 2 7.2 6-.3 2.9-.6 3.1-4.5 3.4-2.6.2-6.9-.6-11.4-2.2-4-1.4-7.6-2.3-8-2.1-1.3.9-1.6-1.8-.5-4.3 1-2.3 1.4-2.3 7.1-1.7 3.3.4 7.8.8 10.1.9zm387.5-.2c3.3.9 3.9 1.5 3.9 4 0 2.4-.4 2.8-2.9 2.8-7.7 0-12-2.6-10.5-6.4.7-1.9 4.2-2 9.5-.4zM221 747.9c1.2 2.4-.1 6.6-2.5 7.5-2.6 1-10.3.7-11-.4-.4-.6-.4-2.3 0-3.9.4-2.1 1.5-3.1 3.8-3.9 5.2-1.6 8.5-1.4 9.7.7zm164.4-.3c4.5 4.4-2.6 10.6-9.9 8.8-2.7-.7-3.5-2.9-2.2-6 1.7-4.1 9.2-5.8 12.1-2.8zm75.3-.8c.6.4 1.4 1.9 1.8 3.3 1.1 4.4-3.2 6.7-11.7 6.1-3.8-.3-3.7-3.6.2-7.3 2.9-2.8 7.1-3.7 9.7-2.1zM632 748c2.2 1.9 2.2 2.1.6 4.5-.9 1.4-2.9 3-4.3 3.6-2.8 1.1-7.9.4-8.9-1.2-1.2-1.9.6-5.8 3.4-7.2 3.9-2.1 6.5-2 9.2.3zm148.1-1c1.1.6 1.9 2.1 1.9 3.5 0 3.9-2.5 5.5-8.6 5.5-5.3 0-5.4-.1-5.4-2.8 0-5.3 7-8.9 12.1-6.2zM512 750c0 .5-.4 1-1 1-.5 0-1-.5-1-1 0-.6.5-1 1-1 .6 0 1 .4 1 1zm-386.5 20.6c1.4.9 2.5 2 2.5 2.5s1.8 2.6 4 4.6c4.5 4.2 5 6.5 1.8 8.7-2.9 2-6.2 2-11.5 0-4-1.6-4.5-1.6-6.1 0-2.3 2-4.2 2.1-4.2.2 0-.8 1-1.6 2.2-1.8 1.9-.3 2.1-.9 2.1-6-.1-5.1.2-6 2.4-7.8 3.1-2.4 3.7-2.5 6.8-.4zm169.6 4.6c6.7 7.1 7.5 10.2 3.2 11.9-2 .7-3.9.7-6.4 0-2-.6-4.6-1.1-5.8-1.1-2.1 0-2.6-.7-4.9-7.9-1-3.1-.9-3.6 1.8-6.2 1.5-1.6 3.6-2.9 4.5-2.9 1 0 4.4 2.8 7.6 6.2zm243.2-3.9c6.4 6.6 9.8 11.1 9.5 12.5-.2.9-1.5 2.3-2.8 3-2.2 1.3-3.3 1.3-8.1-.2-5.2-1.4-5.7-1.9-7.3-5.9-2.4-6.3-2.1-8.1 1.7-10 4.2-2.1 4.4-2.1 7 .6zm148.1-.7c.9.3 1.6 1.2 1.6 2s.4 1.4 1 1.4c1 0 8 8.8 8 10.1 0 .5-1.1 1.6-2.5 2.5-2.1 1.4-3.1 1.4-8.1.3-3.1-.7-5.8-1.9-6.1-2.6-.3-.7-1.1-1.3-1.9-1.3-2.2 0-1.9-8.9.4-11.1 1.8-1.8 4.8-2.4 7.6-1.3zm-508 2c2.2.8 2 3.1-.2 4.3-2.7 1.4-4.5-.5-2.9-3 .7-1.1 1.3-1.9 1.4-1.9.1 0 .8.3 1.7.6zm78.8 1.1c.8 1 1.8 2.6 2.1 3.5.4 1.2 1.7 1.8 3.7 1.8 1.7 0 3.9.9 5 2s2.6 2 3.3 2c.6 0 .1.6-1.2 1.3-1.3.6-2.9 2.1-3.5 3.2-1.4 2.4-4.4 5.1-7.7 7-2.4 1.3-2.8 1.2-4.2-.3-.8-.9-1.7-2.6-1.9-3.7-.2-1.1-1.2-2.1-2.4-2.3-2.4-.4-5.4-5-5.4-8.6 0-1.9 1-3.2 3.8-5 4.5-3 6.4-3.2 8.4-.9zm165.1-.3c.9.7 1.7 1.8 1.7 2.4 0 1.9 4.3 4.2 6.6 3.6 2.1-.5 2.2-.3 1.7 3.8-.3 2.3-1.1 4.6-1.7 5-.7.5-.6.8.4.8 1.1 0 .9.4-.5 1.2-1.1.6-2.2 1.4-2.5 1.8-1.2 1.6-5.2 3.1-7 2.5-1.9-.6-2.4-1.6-2.1-4 0-.6-1.2-1.6-2.9-2.3-1.6-.7-3.2-2.2-3.5-3.3-.4-1-1.1-1.9-1.6-1.9-1.3 0-1.1-4.4.4-6.2 1.3-1.7 6.6-4.7 8.2-4.7.6 0 1.8.6 2.8 1.3zm78.1 2c2.4 2.6 3.6 3.2 5.1 2.6 5.6-2.1 7.6 5.4 2.9 11-2.9 3.4-7.3 6-10.2 6-2.5 0-5.3-3.1-3.4-3.7 1.8-.7 1.5-2.3-.5-2.3-3.2-.1-8.3-5.9-8.3-9.6 0-1.9 1.6-3.6 5.5-5.7 4.3-2.3 5.4-2.1 8.9 1.7zm90-2.8c2.1.8 2 3.1-.1 4.2-3.5 1.8-5.8-.9-3.1-3.6 1.4-1.4 1.2-1.4 3.2-.6zm150.4 2.7c-.4 2.6-1.9 3.1-4.2 1.4-1.7-1.2-1.7-1.5-.2-3 2.1-2.1 4.8-1.1 4.4 1.6zm-583 .8c-1.6 1-3.3-.5-2.3-2.1.5-.8 1.1-.8 2.1.1 1.2 1 1.2 1.4.2 2zm178.2 0c0 1.7-.9 4.4-2.1 6-1.7 2.5-2.3 2.7-4 1.6-3.3-2.1-2-6.8 2.6-9.5 3-1.7 3.5-1.5 3.5 1.9zm9.6-2c.3.6 0 1.7-.8 2.5-1.2 1.2-1.7 1.2-3.2.1-1.1-.8-1.6-1.9-1.2-2.5.9-1.5 4.3-1.5 5.2-.1zm324.3 1.8c1.2 1.6 2.1 3.5 2.1 4.1 0 .7.8 1.8 1.7 2.5 1.5 1.2 1.5 1.6-.4 6.1-1.7 3.9-2.7 4.9-4.5 4.9-1.6 0-2.4-.7-2.6-2.2-.2-1.5-1.3-2.5-2.8-2.9-2.6-.7-7.4-6.1-7.4-8.4 0-.7 1.4-2.6 3.2-4.2 4.2-3.7 8-3.7 10.7.1zm50.1-.9c0 2.1-1.5 2.7-2.5 1-.7-1.2.2-3 1.6-3 .5 0 .9.9.9 2zm-549.7.3c.7 1.8-.3 6.7-1.4 6.7-.5 0-.9.7-.9 1.5 0 2-1.9 1.9-4.2-.2-2.4-2.2-2.3-3.9.7-6.8 2.7-2.8 5-3.2 5.8-1.2zm153.7.2c0 .8-.4 1.5-.9 1.5-1.3 0-2.2-1.6-1.4-2.4 1.1-1.1 2.3-.6 2.3.9zm246-.6c0 .6-.4 1.3-1 1.6-.5.3-1-.1-1-.9 0-.9.5-1.6 1-1.6.6 0 1 .4 1 .9zm13 .1c1 .6 1.1 1.3.5 1.7-.6.5-1.5 2.1-2 3.7-1.5 4.2-4.1 5.6-5.9 3.1-2.1-2.7-2-4.7.4-7.3 2.2-2.4 4.6-2.8 7-1.2zm148 2.3c0 1.9-.8 4.3-1.8 5.5-1.7 1.9-2 2-4 .6-2.9-2-2.8-3.9.3-6.9 3.5-3.6 5.5-3.3 5.5.8zm-619-1.9c0 .3-1.8 1.5-4 2.7-2.2 1.3-4 2.6-4 3 0 1.3-5.4 6.9-6.7 6.9-1.7 0-4.6-5.7-3.7-7.3 2.5-4.4 4.9-5.6 11.7-5.6 3.7-.1 6.7.1 6.7.3zm92.5 1c2.5.9 6 1.2 9.2.9l5.2-.6 2.8 4.7c1.5 2.5 3.4 4.6 4.1 4.6.8 0 1.2.9 1 2.2-.4 2.8-5.1 3.8-14.4 3-6-.4-6.5-.7-9-4.3-1.4-2.1-3-3.6-3.5-3.3-.5.3-1.8 0-2.9-.6-1.9-1-1.9-1.3-.5-3.9.8-1.6 2-3.1 2.7-3.4.7-.3 1.3-.6 1.3-.6s1.8.6 4 1.3zm410.2-.3c.7.7 4.3 1.2 8.8 1.1l7.6-.1 2.3 3.7c1.3 2 3.3 4.4 4.5 5.2 2.9 2 2.7 2.4-1.6 3.9-2.1.8-4.1 1.8-4.4 2.4-.5.6-1.8.6-3.9-.2-1.8-.6-4.5-1.1-5.9-1.1-2.6-.1-6.1-2-6.1-3.4 0-1.3-4.4-4.5-6.2-4.6-2.6 0-2.3-4.4.5-6.3 2.7-2 3-2 4.4-.6zm150.1.3c2.6 1 6 1.3 9.5.9 5.2-.5 5.4-.5 7.7 2.8 1.3 1.9 3.1 4.1 4.1 4.9 3 2.5 2.6 4-1.6 5.7-4.5 1.7-4.9 1.7-12.2.5-5-.8-6.9-2.2-10.5-7.6-.4-.6-1-.7-1.4-.4-.4.4-1.5.3-2.5-.3-2-1-1.7-3.2.9-6.2 1.8-2 1.1-2 6-.3zm-386.3.8c4.7-.2 5.1 0 9.2 4.5 2.4 2.5 4.3 5.4 4.3 6.4 0 4.2-17.2 4.7-21.7.6-1.3-1.1-2.3-2.6-2.3-3.3 0-1.4-2.3-2.4-5.6-2.4-3 0-2.9-2.5.1-5.3 1.6-1.5 2.8-1.7 6.5-1.1 2.5.5 6.7.7 9.5.6zm75.7-.1c5.1-.1 5.8.1 7.7 2.6 1.1 1.5 3.2 3.9 4.6 5.4 5.1 5 .3 7.5-12.1 6.3-4.8-.5-7.1-1.2-8.3-2.6-.9-1.1-2.3-2.8-3.2-3.9-1-1.1-2.3-1.8-3-1.7-1.8.4-2.4-3.9-.8-5.9 1-1.1 2.3-1.3 5.4-.8 2.2.4 6.5.7 9.7.6zM279 785.5c-1.5 5.4-2.3 6.1-4.4 3.9-2.7-2.6-2-5.9 1.7-7.5 1.7-.8 3.4-1.4 3.6-1.2.2.1-.2 2.3-.9 4.8zm-3.2 24.3c1.4 3.9.4 8.3-2.4 10.9-4.5 4.4-9.4 2.3-9.4-3.9 0-8.1 9.5-13.6 11.8-7zm-121.7 1.8c2.5 1.2 3.9 3.3 3.9 5.5 0 .6-1.3 1.5-3 2-1.6.6-3 1.7-3 2.5 0 1-1.5 1.4-6 1.4-3.3 0-6-.4-6-1s-.9-1-2-1c-1.6 0-2-.7-2-3 0-2 .5-3 1.5-3 .8 0 1.5-.5 1.5-1.1 0-.7 1.1-2.2 2.5-3.5 2.2-2 2.9-2.1 6.2-1.2 2.1.6 5 1.6 6.4 2.4zm244 2.1c2.6-3.5 5.2-3.4 7.8.2 2.6 3.6 2.7 5.9.2 8-1.5 1.3-3.8 1.5-12.4 1.3-9.4-.3-10.6-.5-11-2.3-.3-1-.2-2.1.3-2.4.4-.2.5-1.5.3-2.7-.3-1.4.4-3.4 1.8-5.1l2.2-2.9 4.4 4.4 4.4 4.3 2-2.8zm121.2-2.4c3.3 2.7 3.8 3.6 3.2 6-.4 1.5-1.1 2.7-1.6 2.7s-.9.7-.9 1.5-.8 1.5-1.8 1.5-2.4.6-3 1.2c-1 1-1.7 1-3.2 0-1.1-.6-2.6-1.2-3.4-1.2-2 0-2.6-3.5-1.7-11.2.1-.9 5.2-3.6 7.1-3.7.8 0 3.2 1.4 5.3 3.2zm45-.4c2 .8 3.7 2.1 3.7 2.8 0 .6.8 1.3 1.7 1.5 1.9.3 2.1.2-4.3 5.3-4.2 3.3-11.7 3.5-15 .4-2.7-2.5-2.3-3.7 2.4-9 3.8-4.2 4-4.2 11.5-1zm226.6 4.1c1 0 2.6-.9 3.6-2 2.7-2.9 4.9-2.5 7 1.5 1.5 2.6 1.7 4 1 6.1l-1 2.7-10.5-.2c-12-.2-12.9-.7-12.5-7.3.2-2.9.9-4.7 2.4-5.9 2.2-1.8 2.3-1.7 5.3 1.6 1.6 1.9 3.8 3.5 4.7 3.5zm-564.8-2.9c2.2 2.5 3.3 3 5.3 2.5 1.5-.3 2.6-1.1 2.6-1.6 0-.6 1.3-1 2.8-1 3.9 0 5.9 3.7 4.6 8.2l-1 3.3-9.9-.3c-9.1-.3-10.2-.6-12.2-2.8-1.8-1.9-2-2.9-1.3-5.5 1.9-6.7 4.8-7.6 9.1-2.8zm89.5-2.1c5.5 2.1 10.2 8 6.3 8-.6 0-2.2 1.1-3.7 2.5-3 2.8-8.9 3.4-13.5 1.2-4.1-1.9-4-3.4.4-8.2 4.3-4.7 5.9-5.2 10.5-3.5zm151.7 2c3 3.5 5.6 3.8 8 1 .9-1.1 2.3-2 3.2-2 2.3 0 4.7 4.5 4.3 8.2l-.3 3.3-9.5.3c-13.7.4-14 .3-14-6.3 0-4.1.4-5.6 1.8-6.4 2.7-1.6 3.9-1.3 6.5 1.9zm170.5 0c3.4 3.5 6.1 3.8 8.5.9 2.1-2.4 3.4-2.2 6 1.3 1.4 1.9 1.7 3.4 1.2 5.7l-.7 3.1h-10.6c-5.9 0-11.1-.4-11.7-.8-2.9-2.1-.2-13.2 3.2-13.2.7 0 2.6 1.3 4.1 3zm73.3-1.9c2.1.7 4.8 2.2 6 3.5l2.1 2.2-2.4 2.2c-1.2 1.1-3 2.7-3.9 3.5-2.1 2-6.9 1.9-12.1-.2-2.4-.9-4.5-1.8-4.7-1.9-.4-.4 3.9-6.3 6.5-8.8 1.8-1.9 3.4-2 8.5-.5zm-510.8 17.6c-.9 2.3-3.6 2.4-5.9.2-1.3-1.2-2.1-2.6-1.8-3 .2-.4.2-2-.2-3.4-.5-2.1-1.2-2.5-4.5-2.5-2.1 0-3.9-.3-3.9-.8 0-1.7 4.6-3.4 9.1-3.4 3.5.1 4.9-.4 5.5-1.6.8-1.8 2.5 12.3 1.7 14.5zm237.2-13.9c3.7.9 4.5 2.4 4.5 7.7 0 8-.6 8.9-4 6.5-1.5-1.1-3.1-3.1-3.4-4.4-.3-1.4-1.5-2.8-2.6-3.1-1.1-.3-2-1.5-2-2.6 0-3 2.3-6 4-5.3.8.3 2.4.9 3.5 1.2zm-72 5.2c.8 5.9-.1 11-2 11-2.3 0-5.5-4.2-5.5-7.2 0-2.9-3.1-5.4-5.6-4.4-1.6.6-1.7.4-.8-1.8.4-1 1.9-1.6 4.3-1.7 2 0 4.5-.4 5.6-.8 2.8-1.2 3.2-.7 4 4.9zm246.8 1c.8 5.9.3 10-1.4 10-.5 0-2.1-.7-3.4-1.6-1.8-1.2-2.5-2.5-2.5-4.9 0-2.4-.6-3.4-2.4-4.3-1.4-.6-2.6-.7-2.8-.2-.2.5-.9.6-1.6.1-1.8-1.1-.4-3.9 2.1-4.4 1.2-.2 4.2-.3 6.7-.3l4.5.1.8 5.5zm149.7 3.8c0 6-1.5 7.4-5.4 4.8-1.8-1.1-2.4-2.4-2.4-4.7.1-3.3-1.4-4.9-4.9-4.9-1.3 0-2.3-.2-2.3-.4s-.3-1.1-.6-2c-.5-1.2.6-1.6 6.3-1.8 8.1-.4 9.2.7 9.3 9zM222.5 841c.4.6 1.1.7 1.7.4.7-.5.9.2.4 2.2-.4 1.6-.8 3.3-.9 3.8-.5 2.5-3.4 4.5-6.5 4.4-3.1-.1-3.1-.1-1.1-1.6 1.6-1.1 2-2.1 1.5-4.5-.6-3.1.7-5.7 3-5.7.7 0 1.6.5 1.9 1zm166.9 1.3c0 .9-.1 3-.2 4.7-.3 4-3.3 5.7-11.4 6.6-6.2.6-6.8.5-6.8-1.1 0-1-.7-2.7-1.7-3.7-1.5-1.7-1.5-1.8.1-1.8 1 0 2.9.9 4.3 2 3.6 2.8 7.6 2.6 9.2-.4 1-1.8 1-2.9.2-4.5-.7-1.1-1-2.1-.9-2.2.2 0 1.1-.2 2.1-.4 1.1-.2 2.2-.6 2.5-.9 1-1.1 2.7 0 2.6 1.7zm76.6.5c0 3.3-2.4 9.1-3.9 9.5-.9.3-2.4.8-3.4 1.2-2.1.9-2-1.1.1-3.4.9-.9 1.2-2.5.8-4.4-.3-1.6-.2-3.5.4-4.2 1.4-1.6 6-.7 6 1.3zm170.5-.8c.7 1.2-1.9 7.5-4 9.6-2.1 2.1-4.9 1.1-3.7-1.3.5-1 .8-3.1.6-4.7-.2-1.6-.1-3.3.2-3.8.7-1.1 6.1-1 6.9.2zm149.5 1.4c0 1.4-.4 2.8-1 3.1-.5.3-1 1.4-1 2.3 0 1.6-5 5.2-7.1 5.2-.5 0-.2-1.5.7-3.3 1-1.7 1.7-4.7 1.5-6.5-.2-3 0-3.2 3.4-3.2 3 0 3.5.3 3.5 2.4zm-529.6 3c-.3.9-1 1.6-1.5 1.6s-.4-.9.3-2c1.4-2.2 2.1-2 1.2.4zm-115.3 1.8c1.7 1.7 2.8 3.7 2.5 4.5-.8 2-2.4 1.6-4.1-1.1-2.3-3.4-7.2-4.2-10.1-1.5-1.3 1.2-2.4 1.6-2.8 1-.4-.5-.2-1.2.4-1.6.5-.3 1-1.5 1-2.6 0-1.6.7-1.9 5.1-1.9 4.4 0 5.5.4 8 3.2zm166.1-.1c3.2 2.7 3.5 3.3 2.3 4.5-1.9 1.9-2.4 1.8-4.9-1-2.8-3.2-6-4.1-7.6-2.1-1.5 1.8-5 2-5 .3 0-2.6 3.3-4.8 7.4-4.8 3.1 0 5 .8 7.8 3.1zm112.3-2.1c.3.5-.3 1-1.4 1-1.2 0-2.1-.5-2.1-1 0-.6.6-1 1.4-1 .8 0 1.8.4 2.1 1zm132.5 0c0 .6 1.2 2.1 2.7 3.4 1.5 1.3 2.3 2.8 1.9 3.4-1.1 1.9-2.6 1.4-5.6-1.8-2.7-2.9-3.1-3-7.1-2.1-5 1.1-5.3 1-4.4-1.8.5-1.8 1.4-2.1 6.6-2.1 3.4 0 5.9.4 5.9 1zm149 .4c0 .6 1.2 2 2.7 3.1 1.4 1.2 2.3 2.7 2 3.2-1 1.7-4.6.3-6.4-2.3-1.9-2.9-4.7-3-9-.4-2.7 1.6-3.3 1.7-3.3.5 0-3.2 3.7-5.4 8.9-5.3 2.8.1 5.1.6 5.1 1.2zm-204 .3c0 .5-1.3.8-3 .9-1.6.1-2.7-.3-2.4-.7.6-1.1 5.4-1.2 5.4-.2zm-288 2.9c3.4 2.3 3.7 2.8 2.5 4.1-.8.8-2.3 1.2-3.3.9-3-1-6.1-7.6-3.5-7.6.2 0 2.1 1.2 4.3 2.6zm242.7.9c2.3 1.6 4.2 3.3 4.3 3.7 0 .5-1.8.8-4 .8-3.3 0-4-.3-4-1.9 0-1.1-.4-2.3-1-2.6-1.1-.7-1.4-3.8-.2-3.3.4.1 2.6 1.6 4.9 3.3zm318.6-.2c3.3 2.8 3.4 4.7.3 4.7-2.2 0-5.6-3.6-5.6-6 0-1.7 2.6-1.1 5.3 1.3zm-528.8-.3c.3.5.1 1-.4 1-.6 0-1.1-.5-1.1-1 0-.6.2-1 .4-1 .3 0 .8.4 1.1 1zm380.7 1c1.2 1.1 2.9 2 3.7 2 1.4 0 1.4.1.1 1-3.4 2.2-8.9 0-9.7-3.8-.5-1.9 3.6-1.4 5.9.8zM348 851c0 .5-.7 1-1.5 1s-1.5-.5-1.5-1c0-.6.7-1 1.5-1s1.5.4 1.5 1zm62-.6c0 .3-.4.8-1 1.1-.5.3-1 .1-1-.4 0-.6.5-1.1 1-1.1.6 0 1 .2 1 .4zm77.7.2c-.3.3-1.2.4-1.9.1-.8-.3-.5-.6.6-.6 1.1-.1 1.7.2 1.3.5zm107.3.4c0 .5-.7 1-1.5 1s-1.5-.5-1.5-1c0-.6.7-1 1.5-1s1.5.4 1.5 1zm148.4-.1c.3.4-.6.6-1.9.3-1.4-.2-2.5-.6-2.5-.8 0-.8 3.9-.4 4.4.5zM278 873.6c0 1.7-2.2 1.4-2.8-.4-.2-.7.3-1.2 1.2-1.2.9 0 1.6.7 1.6 1.6zm-46 .4c0 .5-1.8 1-4 1s-4-.5-4-1c0-.6 1.8-1 4-1s4 .4 4 1z"/><path d="M381.6 37c-3.2 2.8-6.9 5.8-8.2 6.6-1.3.9-2.6 2.4-2.9 3.4-.9 2.8 2.6 9.4 5.1 9.8 5.6.8 18-22.8 12.8-24.5-.6-.2-3.7 1.9-6.8 4.7zM640.6 142.6c-1 3.8 2.9 8.4 7.2 8.4 3.4 0 2.7-3.1-1.6-7.3-2.1-2-4.1-3.7-4.4-3.7-.3 0-.9 1.2-1.2 2.6zM661.7 164.7c-1.5 1.5-.4 3.5 5.2 9.2 4.4 4.5 5.8 6.6 5.4 8.1-.6 2.2 3 5.9 6 6 .9 0 1.7.4 1.7.8s2.4 2 5.3 3.6c3.9 2 6.1 2.5 8 2.1 2.5-.7 3.9-3.5 1.7-3.5-.9 0-8.3-7.2-12.9-12.7-8.7-10.2-10.1-12.1-10.1-13.1 0-1.3-9.1-1.7-10.3-.5zM656 184c0 .5.5 1 1 1 .6 0 1-.5 1-1 0-.6-.4-1-1-1-.5 0-1 .4-1 1zM663 185.8c0 .5.9 1.9 2 3.2 1.3 1.5 2 3.5 1.8 5.6-.1 2.5.5 3.9 2.5 5.8 1.5 1.4 2.7 3.1 2.7 3.8 0 .7.7 2.2 1.5 3.2.8 1.1 1.5 3 1.5 4.3 0 3.3 2.7 8.3 4.5 8.3.8 0 1.4.5 1.3 1.2-.2.6.5 1.3 1.4 1.6 1.7.3 4.9-4.3 5.5-8.2.2-1.1.7-2.4 1.2-3 .5-.6 1.1-2.2 1.3-3.6.2-2.1-.2-2.6-2.5-2.8-3.5-.4-13.2-9.6-14.1-13.4-.4-1.8-1.9-3.2-4.9-4.7-4.8-2.3-5.7-2.5-5.7-1.3zm18 30.2c0 .5-.7.7-1.5.4-.8-.4-1.5-.8-1.5-1 0-.2.7-.4 1.5-.4s1.5.4 1.5 1zM655.7 192.7c-.6 5.2-.1 7.3 1.8 7.3.8 0 1.1-1 .8-2.8-.2-1.5-.5-3.9-.6-5.4-.4-4.5-1.4-4.1-2 .9zM650 193c0 2.2.1 2.3 2.4 1.4 2.3-.9 2-3.4-.4-3.4-1.3 0-2 .7-2 2zM624 197.9c0 .6-.9 1.1-2 1.1-2.7 0-2.6 2.8.3 6.3 2 2.6 2.6 2.8 5.7 2 3.1-.8 3.5-1.3 3.8-4.5.3-3.1 0-3.6-2.2-4.2-1.3-.3-3.1-.9-4-1.2-.9-.3-1.6-.1-1.6.5zM597.2 205c1.2 1.6 2.3 3 2.5 3 .2 0 .3-1.4.3-3 0-2.5-.4-3-2.5-3h-2.6l2.3 3zM710.7 205.7c-1.7 1.6-.6 7.1 1.9 9.8l2.6 2.8 2.4-2.7c2.8-3 2.6-5.4-.9-8.6-2.1-2-4.8-2.6-6-1.3zM694.5 207c-.3.4.9 1 2.5 1.2 1.7.3 3 .1 3-.3 0-1-5-1.8-5.5-.9zM603 208c0 .5.5 1 1 1 .6 0 1-.5 1-1 0-.6-.4-1-1-1-.5 0-1 .4-1 1zM700.8 210.7c.7.3 1.6.2 1.9-.1.4-.3-.2-.6-1.3-.5-1.1 0-1.4.3-.6.6zM602.6 212.5c-.4 1 .1 1.5 1.4 1.5 1.3 0 1.8-.5 1.4-1.5-.4-.8-1-1.5-1.4-1.5-.4 0-1 .7-1.4 1.5zM461 214.9c0 1.7 1.2 4.1 2.1 4.1.5 0 .9-1.1.9-2.5 0-1.6-.6-2.5-1.5-2.5-.8 0-1.5.4-1.5.9zM421.2 219.8c-1.2 1.2-2.5 4-2.8 6.2-.4 2.2-1.1 4.3-1.5 4.6-.5.3-.9 1.2-.9 2 0 1 1.2 1.4 4 1.4 3.8 0 4-.2 4-2.9 0-1.7.5-3.3 1-3.6 1.4-.9 1.2-5.8-.3-8-1.3-1.7-1.5-1.7-3.5.3zM669.7 221.7c-1.2 1.1-.8 4.1.6 4.6 1.5.6 4.1-2.9 3.2-4.3-.7-1.1-2.9-1.3-3.8-.3zM225.4 227.4c-.3.8-.4 2.5-.2 3.8.5 3.5 4.9 3.2 6.2-.5.8-2.2.7-3-.4-3.7-2.2-1.4-5-1.2-5.6.4zM208.1 233.9c-2.7.7-3.7 3.9-1.5 4.8 2.1.8 1.7 3-.7 3.6-2.5.7-2.3 4 .3 4.5 3 .6 10.6-9.4 9.4-12.4-.6-1.5-3.4-1.7-7.5-.5zM490 237.5c0 .8.5 1.5 1 1.5.6 0 1-.7 1-1.5s-.4-1.5-1-1.5c-.5 0-1 .7-1 1.5zM220.8 238.3c-.9.7-2 2.5-2.3 3.9-.5 2-.1 3 2.1 4.7 1.5 1.2 3 1.8 3.3 1.3.3-.5 1.4-1.1 2.4-1.5 3.3-1.2 1.5-9.7-2.1-9.7-.9 0-2.5.6-3.4 1.3zM279.2 249c-.7 1.1-.8 2-.3 2 .9 0 2.4-3 1.8-3.6-.1-.2-.8.6-1.5 1.6zM452.5 257.2c-1.1.6-2.1 1.2-2.3 1.4-.5.4 4.2 7.4 5.1 7.4.4 0 .7-.6.7-1.4 0-.7.9-1.6 2-1.9 1.4-.4 1.8-1 1.3-2.4-1.5-4.3-3.2-5.1-6.8-3.1zM418.1 265.4c-1.3 1.6.1 5.6 1.9 5.6 2.3 0 6-2.5 6-4.1 0-2.9-5.8-4-7.9-1.5zM520 277.4c0 .9.5 1.6 1 1.6.6 0 1-.4 1-.9 0-.6-.4-1.3-1-1.6-.5-.3-1 .1-1 .9zM472 283.4c0 1.3-.4 2.6-.9 2.8-.6.1-1.1 2.9-1.2 6-.1 3.2-.6 5.8-1 5.8-.3 0-.9 1-1.2 2.2-.6 2.3 1.6 4.7 4.4 4.8.9 0 2.4.9 3.4 2 1.5 1.6 1.5 2.2.5 3.5-1 1.2-1 1.5.2 1.5.8 0 1.9-.5 2.6-1.2.9-.9 1.2-.9 1.2 0 0 .7.5 1.2 1 1.2.6 0 1-1.8 1-4.1 0-3.6-.3-4.1-3.2-5.1l-3.2-1.1 2.5-.9c2.1-.8 2.2-1 .7-1.9-1-.5-1.5-1.6-1.2-2.4.5-1.1-.2-1.5-2.5-1.5-2.1 0-3.1-.5-3.1-1.5 0-.8.6-1.5 1.3-1.5 1.7 0 4.2-7.2 3.4-9.4-.4-.9-1.6-1.6-2.7-1.6-1.5 0-2 .7-2 2.4zM521.2 284.9c-.8.4-1 1.5-.6 2.7.7 1.8.7 1.8-1.3.1-1.1-1-2.7-1.5-3.7-1.1-1.8.7-2.1 2.9-.5 3.9.6.4.8 1.3.5 2-.3.8.6 2.1 2 2.9 2.3 1.6 2.4 1.5 2.4-.4 0-1.1.6-1.9 1.3-1.8.7.2 1.2-.7 1.2-2.2 0-1.4.4-3.1.9-3.8 1.1-1.7-.5-3.4-2.2-2.3zM659.7 287.4c-.3.8.1 2 .9 2.6 1.2 1 1.4.8 1.4-1.4 0-2.8-1.4-3.5-2.3-1.2zM662.5 293.1c-.4.6-.5 1.3-.2 1.6.7.7 2.7-.6 2.7-1.8 0-1.2-1.7-1.2-2.5.2zM520.5 300c-1 1.1-1.5 2.3-1.2 2.7.4.3 0 1.4-.8 2.3-.9 1-1.3 2.4-1 3.3.8 1.9 5.4 3.2 6.8 1.8 1.1-1.1 0-12.1-1.2-12.1-.4 0-1.6.9-2.6 2zM683.5 310c-.3.5.1 1 1 1s1.3-.5 1-1c-.3-.6-.8-1-1-1-.2 0-.7.4-1 1zM526 313c.6 1.1 1.3 2 1.5 2 .3 0 .5-.9.5-2s-.7-2-1.5-2c-1.3 0-1.4.4-.5 2zM476 314c0 .5.5 1 1 1 .6 0 1-.5 1-1 0-.6-.4-1-1-1-.5 0-1 .4-1 1zM501.3 322.5c.4.8.2 1.7-.4 2-1.3.8-.2 2.5 1.7 2.5.9 0 1.4-1.1 1.4-3 0-2.1-.5-3-1.6-3-1 0-1.4.6-1.1 1.5zM517.7 324.6c-1 1.1.3 2.4 2.4 2.4 2.3 0 2.5-1.5.3-2.4-1.9-.7-1.9-.7-2.7 0zM760 327c0 .5.9 1 2.1 1 1.1 0 1.7-.5 1.4-1-.3-.6-1.3-1-2.1-1s-1.4.4-1.4 1zM728 336c0 .5 1.8 1 4 1s4-.5 4-1c0-.6-1.8-1-4-1s-4 .4-4 1z"/></svg>